<svg width="58" height="48" xmlns="http://www.w3.org/2000/svg" xmlns:xlink="http://www.w3.org/1999/xlink"><defs><radialGradient cx="80.612%" cy="26.478%" fx="80.612%" fy="26.478%" r="116.887%" gradientTransform="matrix(-.64337 .629 -.52055 -.7774 1.463 -.036)" id="a"><stop stop-color="#82615F" offset="0%"/><stop stop-color="#9F776F" offset="100%"/></radialGradient><path d="M54.312 10.153l2.626 5.196C57.523 16.505 58 18.508 58 19.8v21.15c0 1.297-1.062 2.35-2.375 2.35H53.25c0-3.894-3.192-7.05-7.125-7.05S39 39.406 39 43.3H22.375c0-3.894-3.192-7.05-7.125-7.05s-7.125 3.156-7.125 7.05h-4.75C2.062 43.3 1 42.247 1 40.95V33.9c0-1.297 1.062-2.35 2.375-2.35h33.25V10.4c0-1.293 1.069-2.35 2.375-2.35h11.875c1.306 0 2.852.945 3.437 2.103zM53.25 24.5v-4.7c0-.569-.304-1.842-.56-2.35l-2.375-4.7h-8.94V24.5H53.25zM0 25.85V2.35C0 1.053 1.062 0 2.375 0h28.5c1.313 0 2.375 1.053 2.375 2.35V28.2H2.375C1.062 28.2 0 27.147 0 25.85zM15.25 48c-2.623 0-4.75-2.104-4.75-4.7s2.127-4.7 4.75-4.7S20 40.704 20 43.3 17.873 48 15.25 48zm30.875 0c-2.623 0-4.75-2.104-4.75-4.7s2.127-4.7 4.75-4.7 4.75 2.104 4.75 4.7-2.127 4.7-4.75 4.7z" id="b"/></defs><use fill="url(#a)" xlink:href="#b"/></svg>