<?xml version="1.0" encoding="UTF-8"?>
<svg width="54px" height="54px" viewBox="0 0 54 54" version="1.1" xmlns="http://www.w3.org/2000/svg" xmlns:xlink="http://www.w3.org/1999/xlink">
    <!-- Generator: Sketch 55.1 (78136) - https://sketchapp.com -->
    <title>colornoun_Factory_1574714 Copy 3</title>
    <desc>Created with Sketch.</desc>
    <defs>
        <linearGradient x1="100%" y1="50%" x2="0%" y2="50%" id="linearGradient-1">
            <stop stop-color="#5A738D" offset="0%"></stop>
            <stop stop-color="#2B8CCC" offset="100%"></stop>
        </linearGradient>
        <path d="M44.9103511,18 C44.9103511,28.5449159 48.3831383,38.0921756 54,45.0001688 L54,54 L44.9110328,54 L44.9110328,43.598185 L44.1072605,42.4446028 C39.5000568,35.8349615 36.6906033,27.279283 36,18 L44.9103511,18 Z M49.499775,0 L54,0 C54,4.970025 49.97025,8.999775 45.000225,8.999775 L22.499775,8.999775 C20.014425,8.999775 18.000225,11.01465 18.000225,13.5 L31.500225,13.5 C31.500225,25.80255 34.938675,36.940725 40.5,45.000225 L40.5,54 L0,54 L0,45.000225 C5.558625,36.940725 8.999775,25.80255 8.999775,13.5 L13.5,13.5 C13.5,8.529975 17.52975,4.500225 22.499775,4.500225 L45.000225,4.500225 C47.485575,4.500225 49.499775,2.48535 49.499775,0 Z" id="path-2"></path>
    </defs>
    <g id="Frontend" stroke="none" stroke-width="1" fill="none" fill-rule="evenodd">
        <g id="noun_Factory_1574714-Copy-3">
            <mask id="mask-3" fill="white">
                <use xlink:href="#path-2"></use>
            </mask>
            <use id="Mask" fill="url(#linearGradient-1)" xlink:href="#path-2"></use>
        </g>
    </g>
</svg>