<svg id="Layer_1" data-name="Layer 1" xmlns="http://www.w3.org/2000/svg" viewBox="0 0 487 325"><defs><style>.cls-1{fill:#eff4fd;}</style></defs><title>Artboard 1</title><path class="cls-1" d="M188.05,320.61H100.16V150.88q0-30.93,1.32-56.58a187.7,187.7,0,0,1-20.17,20.61L44.93,145,0,89.69,110,0h78Z"/><path class="cls-1" d="M390.13,110.53q27.62,0,49.75,12.94a87,87,0,0,1,34.63,36.18Q487,183.11,487,213.82q0,53.71-32.44,82.45Q422.34,325,356.81,325q-56.1,0-91.61-17.32V236.62a230.78,230.78,0,0,0,43,14.48q24.1,5.7,41.42,5.7,24.1,0,37-10.09,12.93-10.31,12.93-30.26,0-18.42-13.15-28.73t-39.89-10.31q-20.38,0-44.05,7.68L270.68,169.3,282.73,0H465.52V72.15H356.37l-3.94,42.32q17.1-3.28,24.33-3.5Q384,110.52,390.13,110.53Z"/></svg>