<svg id="Layer_1" data-name="Layer 1" xmlns="http://www.w3.org/2000/svg" viewBox="0 0 89.66 24.1"><defs><style>.cls-1{fill:#a6c714;fill-rule:evenodd;}</style></defs><title>Artboard 1</title><path class="cls-1" d="M33.48,2.62a1.52,1.52,0,0,1,1.32-.69,3.49,3.49,0,0,1,1,.15,9.82,9.82,0,0,1,1,.39L37.53.61A6.21,6.21,0,0,0,34.82,0a4.45,4.45,0,0,0-2.26.55,3.63,3.63,0,0,0-1.47,1.58,5.23,5.23,0,0,0-.51,2.37,4.69,4.69,0,0,0,1.06,3.31,3.91,3.91,0,0,0,3,1.14,6.13,6.13,0,0,0,2.48-.48v-2c-.37.15-.73.28-1.1.39A4.15,4.15,0,0,1,34.93,7Q33,7,33,4.51A3.34,3.34,0,0,1,33.48,2.62Zm4.75,2.2V6.89H41.7V4.82ZM51.43,9h-3.1l-3.2-6.3h-.05c.07,1,.11,1.74.11,2.27V9h-2.1V0h3.09l3.19,6.22h0c-.06-.9-.09-1.63-.09-2.17V0h2.11Zm2.39-.88A4,4,0,0,0,56.61,9a9.19,9.19,0,0,0,1.49-.1,4.78,4.78,0,0,0,1.2-.38V6.82a6.58,6.58,0,0,1-1.19.39,6.37,6.37,0,0,1-1.2.11A1.86,1.86,0,0,1,55.77,7a1.13,1.13,0,0,1-.44-.87h4.44v-1a2.85,2.85,0,0,0-.88-2.26,3.69,3.69,0,0,0-2.52-.78,3.63,3.63,0,0,0-2.63.9,3.46,3.46,0,0,0-.92,2.58A3.18,3.18,0,0,0,53.82,8.07Zm2.84-4.63a.89.89,0,0,0-.72.34,1.82,1.82,0,0,0-.34,1h2.09a1.74,1.74,0,0,0-.29-1A.87.87,0,0,0,56.66,3.44Zm9.68,2.23L67.12,9h2.56l1.91-6.88H69.28l-.61,2.64a10,10,0,0,0-.2,1.11c0,.46-.09.84-.12,1.15h0A20.94,20.94,0,0,0,68,4.88l-.59-2.81H64.72l-.64,2.77A16.16,16.16,0,0,0,63.74,7h0a16.36,16.36,0,0,0-.32-2.26l-.56-2.64H60.47L62.36,9h2.52L65.59,6c.07-.3.2-1,.4-2.15h0l.12.8Zm11.5,1.12a1.86,1.86,0,0,1-.77,1.62A3.85,3.85,0,0,1,74.85,9a9.27,9.27,0,0,1-1.37-.08,6,6,0,0,1-1.18-.29V6.74a7.21,7.21,0,0,0,1.24.39,5.76,5.76,0,0,0,1.21.16c.53,0,.79-.12.79-.35a.38.38,0,0,0-.22-.31A11.72,11.72,0,0,0,74,6.09a3.21,3.21,0,0,1-1.36-.85A1.85,1.85,0,0,1,72.28,4a1.67,1.67,0,0,1,.77-1.45,3.82,3.82,0,0,1,2.15-.51,5.54,5.54,0,0,1,1.31.14,9.08,9.08,0,0,1,1.28.42l-.66,1.48a8.31,8.31,0,0,0-1-.35,3.41,3.41,0,0,0-.89-.14q-.6,0-.6.27a.34.34,0,0,0,.21.29A10.11,10.11,0,0,0,76,4.67a4.68,4.68,0,0,1,1.11.57,1.69,1.69,0,0,1,.53.64A2.11,2.11,0,0,1,77.84,6.79Zm-42,12.89.44,1.67h2.62L36,12.4H32.78l-2.89,9h2.63L33,19.68Zm-.41-2.46L35,15.9c-.1-.29-.22-.67-.36-1.13s-.24-.8-.28-1c0,.19-.12.5-.24.92s-.38,1.27-.79,2.53Zm8.66.44v3.69h2.46V17a2.48,2.48,0,0,0-.66-1.84,2.52,2.52,0,0,0-1.84-.65,3.25,3.25,0,0,0-1.28.24,1.93,1.93,0,0,0-.87.72h-.14l-.31-.84H39.62v6.77h2.46v-3a3.47,3.47,0,0,1,.27-1.62,1,1,0,0,1,.9-.47.71.71,0,0,1,.66.34A2.11,2.11,0,0,1,44.11,17.66Zm8.52,3.57-.44-.88h0a2.75,2.75,0,0,1-.94.79,3.14,3.14,0,0,1-1.24.21,1.9,1.9,0,0,1-1.47-.57A2.18,2.18,0,0,1,48,19.2a1.79,1.79,0,0,1,.73-1.58A4,4,0,0,1,50.83,17l1.1,0v-.1a.72.72,0,0,0-.81-.82,4.85,4.85,0,0,0-1.84.5l-.66-1.52a6.32,6.32,0,0,1,2.92-.6,2.83,2.83,0,0,1,2,.64,2.28,2.28,0,0,1,.69,1.77v4.36ZM51.88,19a.82.82,0,0,1-.6.25q-.54,0-.54-.57c0-.5.31-.76.95-.78l.44,0v.49A.88.88,0,0,1,51.88,19Zm6.5,2.32H56.3V11.71h2.08Zm3.22-6.89H59.08l2.72,6.63a3.2,3.2,0,0,1-.37.71,1.34,1.34,0,0,1-.42.33,1.22,1.22,0,0,1-.56.12,3.38,3.38,0,0,1-.74-.07V24a4.8,4.8,0,0,0,1,.1,3.31,3.31,0,0,0,2-.56A4.16,4.16,0,0,0,64,21.61l2.73-7.15H64.29l-1.21,3.87a4.18,4.18,0,0,0-.14.72h0a3.36,3.36,0,0,0-.12-.73Zm9.57,5a3.27,3.27,0,0,0,1.11-.24V21a4.3,4.3,0,0,1-.88.29,4.78,4.78,0,0,1-1,.09,2.11,2.11,0,0,1-1.67-.58A2.65,2.65,0,0,1,68.23,19V16.2h-.81v-.95l1-.74.6-1.43h1.51v1.36h1.63V16.2H70.55v2.64C70.55,19.28,70.75,19.5,71.17,19.5Zm2.5,1.85h2.09V14.46H73.67ZM73,12.75a.94.94,0,0,1,.33-.79,2.33,2.33,0,0,1,2.12,0,.92.92,0,0,1,.33.78c0,.68-.47,1-1.4,1S73,13.43,73,12.75Zm5.1,7.72a3.86,3.86,0,0,0,2.73.88,4.47,4.47,0,0,0,2.34-.59V18.94a4.22,4.22,0,0,1-2.13.58c-.87,0-1.3-.53-1.3-1.59a2,2,0,0,1,.33-1.23,1.16,1.16,0,0,1,1-.44,3,3,0,0,1,.8.11,7.81,7.81,0,0,1,.85.29L83.41,15a5.74,5.74,0,0,0-2.4-.51,4.09,4.09,0,0,0-2.86.91,3.29,3.29,0,0,0-1,2.57A3.32,3.32,0,0,0,78.08,20.47Zm11.58-1.28a1.85,1.85,0,0,1-.77,1.61,3.79,3.79,0,0,1-2.22.55,10.76,10.76,0,0,1-1.37-.08A6.06,6.06,0,0,1,84.11,21V19.14a7.32,7.32,0,0,0,1.25.39,5.62,5.62,0,0,0,1.21.15c.52,0,.79-.11.79-.34a.39.39,0,0,0-.22-.31,9.91,9.91,0,0,0-1.29-.54,3.22,3.22,0,0,1-1.36-.86,1.83,1.83,0,0,1-.39-1.21A1.63,1.63,0,0,1,84.86,15,3.78,3.78,0,0,1,87,14.46a5.56,5.56,0,0,1,1.32.15A7,7,0,0,1,89.6,15l-.66,1.47a7.31,7.31,0,0,0-1-.34A3.43,3.43,0,0,0,87,16c-.4,0-.6.09-.6.28a.35.35,0,0,0,.21.29,12.87,12.87,0,0,0,1.2.49,4.69,4.69,0,0,1,1.11.56,1.74,1.74,0,0,1,.54.65A2.24,2.24,0,0,1,89.66,19.19ZM0,0H22.94V22.73H0ZM11.47,21.35a10,10,0,1,0-10.08-10A10,10,0,0,0,11.47,21.35Z"/></svg>