<svg width="91" height="26" viewBox="0 0 91 26" fill="none" xmlns="http://www.w3.org/2000/svg">
<path fill-rule="evenodd" clip-rule="evenodd" d="M34.385 3.60243C34.7 3.14379 35.1387 2.91447 35.7009 2.91447C36.0718 2.91447 36.4187 2.9661 36.7417 3.06934C37.0647 3.17258 37.3877 3.29965 37.7107 3.45054L38.4345 1.59812C37.5732 1.18912 36.67 0.984619 35.7249 0.984619C34.8595 0.984619 34.1069 1.16827 33.4669 1.53558C32.8268 1.90289 32.3363 2.42804 31.9954 3.11103C31.6545 3.79403 31.484 4.58622 31.484 5.48761C31.484 6.92906 31.8359 8.03097 32.5397 8.79338C33.2435 9.5558 34.2554 9.937 35.5753 9.937C36.4965 9.937 37.3219 9.77618 38.0517 9.45454V7.46512C37.6848 7.61601 37.3199 7.74507 36.9571 7.85228C36.5942 7.9595 36.2193 8.0131 35.8325 8.0131C34.5525 8.0131 33.9125 7.17525 33.9125 5.49953C33.9125 4.69343 34.07 4.06107 34.385 3.60243ZM39.129 5.80513V7.87107H42.6043V5.80513H39.129ZM52.3353 9.937H49.2316L46.0319 3.62992H45.978C46.0539 4.62191 46.0919 5.37916 46.0919 5.90169V9.937H43.9947V0.984619H47.0865L50.2741 7.20597H50.3101C50.2542 6.30379 50.2262 5.5792 50.2262 5.03217V0.984619H52.3353V9.937ZM54.7204 9.05341C55.3833 9.64245 56.314 9.93697 57.5127 9.93697C58.0887 9.93697 58.5843 9.90174 58.9994 9.83129C59.4145 9.76084 59.8168 9.63364 60.2065 9.44969V7.8C59.7787 7.98395 59.3816 8.11408 59.0153 8.1904C58.6489 8.26673 58.2476 8.30488 57.8113 8.30488C57.3327 8.30488 56.9547 8.19921 56.6772 7.98786C56.3998 7.77651 56.2526 7.48493 56.2357 7.11311H60.6766V6.09159C60.6766 5.10921 60.3812 4.35678 59.7904 3.83427C59.1995 3.31177 58.3619 3.05052 57.2776 3.05052C56.1383 3.05052 55.2615 3.35091 54.6474 3.95169C54.0332 4.55247 53.7261 5.41449 53.7261 6.53777C53.7261 7.62583 54.0576 8.46437 54.7204 9.05341ZM57.5604 4.42783C57.275 4.42783 57.0361 4.53877 56.8437 4.76067C56.6513 4.98257 56.5386 5.33071 56.5055 5.80512H58.5906C58.5823 5.38683 58.4861 5.05271 58.302 4.80275C58.1179 4.5528 57.8707 4.42783 57.5604 4.42783ZM67.2381 6.65481L68.0228 9.93697H70.5854L72.492 3.05052H70.1808L69.5677 5.69448C69.4982 5.97407 69.4349 6.34382 69.3777 6.80372C69.3204 7.26363 69.2796 7.64756 69.255 7.95552H69.2183C69.1692 7.45711 69.0507 6.76017 68.8627 5.86466L68.2742 3.05052H65.6258L64.9821 5.8282C64.7695 6.87363 64.6571 7.58273 64.6449 7.95552H64.6081C64.5795 7.35581 64.4753 6.60214 64.2954 5.69448L63.7314 3.05052H61.3712L63.2655 9.93697H65.7852L66.4902 7.01342C66.5596 6.71762 66.6945 6.00244 66.8948 4.86786H66.9316L67.0542 5.66409L67.2381 6.65481ZM78.7475 7.77651C78.7475 8.48884 78.4895 9.02699 77.9736 9.39098C77.4577 9.75497 76.7172 9.93697 75.752 9.93697C75.2278 9.93697 74.7722 9.91055 74.3853 9.85771C73.9983 9.80487 73.6031 9.70801 73.1995 9.56711V7.72955C73.5781 7.8861 73.9931 8.01526 74.4446 8.11702C74.896 8.21878 75.2985 8.26966 75.6521 8.26966C76.1805 8.26966 76.4447 8.15616 76.4447 7.92915C76.4447 7.81174 76.3708 7.70704 76.2231 7.61507C76.0754 7.52309 75.6459 7.34403 74.9344 7.07789C74.2854 6.8274 73.8319 6.54267 73.574 6.22369C73.316 5.9047 73.1871 5.5006 73.1871 5.01137C73.1871 4.39297 73.4408 3.91157 73.9484 3.56715C74.456 3.22273 75.1737 3.05052 76.1014 3.05052C76.5674 3.05052 77.0053 3.09846 77.4151 3.19435C77.8249 3.29024 78.2503 3.43016 78.6913 3.61412L78.0298 5.09356C77.7053 4.95657 77.3621 4.84014 77.0001 4.74425C76.6381 4.64836 76.3428 4.60041 76.1139 4.60041C75.7145 4.60041 75.5148 4.69239 75.5148 4.87634C75.5148 4.98984 75.5845 5.08671 75.7239 5.16694C75.8633 5.24718 76.2658 5.41058 76.9314 5.65715C77.4265 5.84893 77.7958 6.0368 78.0392 6.22075C78.2825 6.4047 78.4614 6.62094 78.5759 6.86947C78.6903 7.11801 78.7475 7.42035 78.7475 7.77651ZM36.7623 20.6617L37.1998 22.3326H39.8248L36.8899 13.3803H33.6876L30.7892 22.3326H33.4263L33.876 20.6617H36.7623ZM36.3503 18.2008L35.928 16.887C35.8296 16.595 35.7101 16.2173 35.5693 15.7539C35.4285 15.2904 35.3357 14.9583 35.291 14.7576C35.2508 14.9437 35.1714 15.2502 35.053 15.6772C34.9345 16.1042 34.6719 16.9454 34.2652 18.2008H36.3503ZM45.0139 18.6415V22.3326H47.4711V17.9308C47.4711 17.1424 47.2522 16.5312 46.8144 16.0972C46.3765 15.6632 45.7638 15.4462 44.9762 15.4462C44.4944 15.4462 44.0681 15.5258 43.6973 15.6851C43.3265 15.8443 43.0364 16.0832 42.8269 16.4018H42.6824L42.3745 15.5656H40.5206V22.3326H42.9777V19.3702C42.9777 18.6057 43.0699 18.0662 43.2543 17.7516C43.4386 17.437 43.7382 17.2798 44.1529 17.2798C44.4546 17.2798 44.6735 17.3942 44.8096 17.6232C44.9458 17.8521 45.0139 18.1916 45.0139 18.6415ZM53.533 22.2152L53.095 21.3346H53.0483C52.7406 21.7181 52.4272 21.9804 52.1079 22.1213C51.7886 22.2622 51.3759 22.3326 50.8696 22.3326C50.2466 22.3326 49.756 22.1447 49.3978 21.769C49.0395 21.3933 48.8604 20.8649 48.8604 20.1839C48.8604 19.4755 49.1057 18.9481 49.5964 18.6017C50.087 18.2553 50.7976 18.0606 51.7282 18.0176L52.8321 17.9823V17.8884C52.8321 17.3405 52.5635 17.0665 52.0261 17.0665C51.5433 17.0665 50.93 17.2309 50.1863 17.5596L49.5263 16.045C50.2973 15.6458 51.2707 15.4462 52.4467 15.4462C53.2955 15.4462 53.9526 15.6575 54.4179 16.0802C54.8832 16.5029 55.1159 17.0939 55.1159 17.8532V22.2152H53.533ZM52.7818 20.0187C52.6164 20.184 52.4175 20.2667 52.185 20.2667C51.8215 20.2667 51.6398 20.0757 51.6398 19.6937C51.6398 19.1979 51.9558 18.9371 52.5878 18.9114L53.0299 18.8894V19.3742C53.0299 19.6386 52.9472 19.8535 52.7818 20.0187ZM59.2854 22.3326H57.2003V12.6915H59.2854V22.3326ZM62.4995 15.4462H59.9815L62.7073 22.0732C62.5728 22.4015 62.4465 22.6379 62.3283 22.7822C62.2102 22.9266 62.0717 23.0383 61.9128 23.1174C61.7539 23.1966 61.5685 23.2361 61.3566 23.2361C61.0795 23.2361 60.833 23.2124 60.6171 23.1649V24.9863C60.9512 25.0536 61.2771 25.0872 61.595 25.0872C62.418 25.0872 63.0852 24.8993 63.5965 24.5236C64.1078 24.1478 64.5387 23.5051 64.8891 22.5953L67.6271 15.4462H65.1885L63.9846 19.3144C63.9194 19.5201 63.8705 19.7594 63.8379 20.0323H63.789C63.7686 19.7475 63.7299 19.5043 63.6729 19.3026L62.4995 15.4462ZM72.0735 20.4822C72.3837 20.4822 72.7548 20.4044 73.1867 20.2487V21.9553C72.8765 22.0911 72.581 22.1879 72.3002 22.2458C72.0195 22.3036 71.6906 22.3326 71.3136 22.3326C70.54 22.3326 69.9824 22.14 69.6408 21.7547C69.2991 21.3695 69.1283 20.7777 69.1283 19.9792V17.1827H68.3214V16.2306L69.3463 15.494L69.9412 14.0689H71.4491V15.4282H73.0866V17.1827H71.4491V19.8235C71.4491 20.2627 71.6572 20.4822 72.0735 20.4822ZM74.5767 22.3326H76.6619V15.4462H74.5767V22.3326ZM73.8819 13.7305C73.8819 13.3802 73.9911 13.1195 74.2094 12.9483C74.4277 12.7771 74.7797 12.6915 75.2653 12.6915C75.751 12.6915 76.1052 12.7791 76.3279 12.9543C76.5507 13.1294 76.6621 13.3881 76.6621 13.7305C76.6621 14.4152 76.1965 14.7575 75.2653 14.7575C74.343 14.7575 73.8819 14.4152 73.8819 13.7305ZM78.9811 21.452C79.5999 22.0391 80.5088 22.3326 81.7077 22.3326C82.622 22.3326 83.4047 22.1369 84.0559 21.7455V19.9197C83.3745 20.3111 82.663 20.5068 81.9212 20.5068C81.0544 20.5068 80.6209 19.9745 80.6209 18.9099C80.6209 18.3816 80.7331 17.9726 80.9573 17.6829C81.1816 17.3933 81.4986 17.2485 81.9083 17.2485C82.1886 17.2485 82.4581 17.2847 82.7169 17.3571C82.9756 17.4295 83.2581 17.5264 83.5643 17.6477L84.3082 15.951C83.5578 15.6145 82.7578 15.4462 81.9083 15.4462C80.6748 15.4462 79.7239 15.7495 79.0555 16.3561C78.387 16.9628 78.0528 17.818 78.0528 18.9217C78.0528 20.0215 78.3622 20.8649 78.9811 21.452ZM90.5634 20.1721C90.5634 20.8845 90.3054 21.4226 89.7895 21.7866C89.2736 22.1506 88.5331 22.3326 87.5679 22.3326C87.0437 22.3326 86.5881 22.3062 86.2012 22.2533C85.8143 22.2005 85.419 22.1036 85.0155 21.9627V20.1252C85.3941 20.2817 85.8091 20.4109 86.2605 20.5127C86.7119 20.6144 87.1144 20.6653 87.468 20.6653C87.9964 20.6653 88.2606 20.5518 88.2606 20.3248C88.2606 20.2074 88.1867 20.1027 88.039 20.0107C87.8913 19.9187 87.4618 19.7397 86.7504 19.4735C86.1013 19.223 85.6478 18.9383 85.3899 18.6193C85.1319 18.3003 85.003 17.8962 85.003 17.407C85.003 16.7886 85.2568 16.3072 85.7643 15.9628C86.2719 15.6184 86.9896 15.4462 87.9174 15.4462C88.3833 15.4462 88.8212 15.4941 89.231 15.59C89.6408 15.6859 90.0662 15.8258 90.5072 16.0098L89.8457 17.4892C89.5212 17.3522 89.178 17.2358 88.816 17.1399C88.454 17.044 88.1587 16.996 87.9298 16.996C87.5304 16.996 87.3307 17.088 87.3307 17.272C87.3307 17.3855 87.4004 17.4823 87.5398 17.5626C87.6792 17.6428 88.0817 17.8062 88.7474 18.0528C89.2424 18.2446 89.6117 18.4324 89.8551 18.6164C90.0984 18.8003 90.2774 19.0166 90.3918 19.2651C90.5062 19.5136 90.5634 19.816 90.5634 20.1721ZM0.902344 0.98463H23.839V23.7099H0.902344V0.98463ZM12.3705 22.3326C17.9365 22.3326 22.4487 17.862 22.4487 12.3473C22.4487 6.83253 17.9365 2.36193 12.3705 2.36193C6.80441 2.36193 2.29223 6.83253 2.29223 12.3473C2.29223 17.862 6.80441 22.3326 12.3705 22.3326Z" fill="#2DA1DB"/>
</svg>
