<svg id="Layer_1" data-name="Layer 1" xmlns="http://www.w3.org/2000/svg" viewBox="0 0 92 92"><defs><style>.cls-1{fill:none;}.cls-2{fill:#d1dae5;}</style></defs><title>Artboard 1</title><path class="cls-1" d="M54,55.93V52a8,8,0,0,0-4.45-7.17,6,6,0,1,0-7.1,0A8,8,0,0,0,38,52v3.93A2.07,2.07,0,0,0,40.07,58H51.93A2.07,2.07,0,0,0,54,55.93ZM46,38a2,2,0,1,1-2,2A2,2,0,0,1,46,38Zm4,16H42V52a4,4,0,0,1,8,0Z"/><path class="cls-1" d="M70.84,22.57A3.94,3.94,0,0,1,70,22h0A3.94,3.94,0,0,0,70.84,22.57Z"/><path class="cls-1" d="M70,16.3A4,4,0,0,0,70,21.87,4,4,0,0,1,70,16.3Z"/><path class="cls-1" d="M75.7,16.3a4,4,0,0,1,0,5.66A4,4,0,0,0,75.7,16.3Z"/><path class="cls-1" d="M75.7,70a4,4,0,0,1,0,5.66A4,4,0,0,0,75.7,70Z"/><path class="cls-1" d="M57.31,57.31A15.86,15.86,0,0,1,46,62,15.86,15.86,0,0,0,57.31,57.31Z"/><path class="cls-1" d="M69.77,70.35A4,4,0,0,0,70,75.7,4,4,0,0,1,69.77,70.35Z"/><path class="cls-1" d="M54,55.93V52a8,8,0,0,0-4.45-7.17,6,6,0,1,0-7.1,0A8,8,0,0,0,38,52v3.93A2.07,2.07,0,0,0,40.07,58H51.93A2.07,2.07,0,0,0,54,55.93ZM46,38a2,2,0,1,1-2,2A2,2,0,0,1,46,38Zm4,16H42V52a4,4,0,0,1,8,0Z"/><path class="cls-1" d="M70.84,22.57A3.94,3.94,0,0,1,70,22h0A3.94,3.94,0,0,0,70.84,22.57Z"/><path class="cls-1" d="M75.7,16.3a4,4,0,0,1,0,5.66A4,4,0,0,0,75.7,16.3Z"/><path class="cls-1" d="M70,16.3A4,4,0,0,0,70,21.87,4,4,0,0,1,70,16.3Z"/><path class="cls-1" d="M75.7,70a4,4,0,0,1,0,5.66A4,4,0,0,0,75.7,70Z"/><path class="cls-1" d="M69.77,70.35A4,4,0,0,0,70,75.7,4,4,0,0,1,69.77,70.35Z"/><path class="cls-1" d="M57.31,57.31A15.86,15.86,0,0,1,46,62,15.86,15.86,0,0,0,57.31,57.31Z"/><circle class="cls-2" cx="46" cy="40" r="2"/><path class="cls-2" d="M84,38a8,8,0,0,0-7.75,6H65.9a19.83,19.83,0,0,0-4.41-10.66L68.81,26a8,8,0,0,0,9.72-1.23A8,8,0,1,0,66,23.19l-7.32,7.32A19.83,19.83,0,0,0,48,26.1V15.75a8,8,0,1,0-4,0V26.1a19.83,19.83,0,0,0-10.66,4.41L26,23.19A8,8,0,1,0,23.19,26l7.32,7.32A19.83,19.83,0,0,0,26.1,44H15.75a8,8,0,1,0,0,4H26.1a19.83,19.83,0,0,0,4.41,10.66L23.19,66a8,8,0,0,0-9.72,1.23A8,8,0,1,0,26,68.81l7.32-7.32A19.83,19.83,0,0,0,44,65.9V76.25a8,8,0,1,0,4,0V65.9a19.83,19.83,0,0,0,10.66-4.41L66,68.81A8,8,0,1,0,68.81,66l-7.32-7.32A19.83,19.83,0,0,0,65.9,48H76.25A8,8,0,1,0,84,38ZM40.07,58A2.07,2.07,0,0,1,38,55.93V52a8,8,0,0,1,4.45-7.17,6,6,0,1,1,7.1,0A8,8,0,0,1,54,52v3.93A2.07,2.07,0,0,1,51.93,58Z"/><path class="cls-2" d="M46,48a4,4,0,0,0-4,4v2h8V52A4,4,0,0,0,46,48Z"/></svg>