<svg id="Layer_1" data-name="Layer 1" xmlns="http://www.w3.org/2000/svg" viewBox="0 0 86 82.4"><defs><style>.cls-1{fill:none;}.cls-2{fill:#fdde40;}</style></defs><title>Artboard 1</title><path class="cls-1" d="M27.25,9.11a1.58,1.58,0,0,0,.13.26c0,.05.05.1.08.14a2.5,2.5,0,0,0,.26.33l.25.25.1.1a13.53,13.53,0,0,0,5,2.43l.26.08c.43.12.89.24,1.36.35l.24,0c.55.13,1.13.24,1.73.34l.21,0,1.6.22.58.06,1.44.11.6,0c.69,0,1.39,0,2.11,0,9.8,0,16.06-3.16,16.06-5.33a2,2,0,0,0-.64-1.3,5.24,5.24,0,0,0-.54-.48l-.16-.13c-.21-.16-.44-.31-.69-.47h0c-.26-.16-.56-.32-.87-.47l-.23-.11-1-.45h0c-.38-.15-.78-.29-1.21-.43l-.26-.08A26.77,26.77,0,0,0,50.72,4l-.28-.06a39.77,39.77,0,0,0-4.32-.54c-.93-.06-1.91-.09-2.92-.09s-1.88,0-2.78.09h0l-1.37.11h0q-.66.06-1.29.15h0a26.24,26.24,0,0,0-7.14,1.89l-.19.09c-.18.08-.35.16-.51.25L29.58,6c-.14.07-.27.15-.4.23l-.28.17-.31.21-.26.2L28.1,7a2.66,2.66,0,0,0-.24.23l-.16.17a2.26,2.26,0,0,0-.2.26l-.1.13a2.33,2.33,0,0,0-.19.39,1.23,1.23,0,0,0-.07.42A1.68,1.68,0,0,0,27.2,9Z"/><path class="cls-1" d="M43.2,24.51c9.81,0,16.06-3.16,16.06-5.33V13.56c-3.7,2.4-10,3.67-16.06,3.67Z"/><path class="cls-1" d="M79.74,20.16l-17.2-6.6v5.62c0,5.6-10,8.62-19.34,8.62s-19.34-3-19.34-8.62v-6h0L6.26,19.79l22,8.46L43.2,34l16.53-6.24Z"/><polygon class="cls-1" points="44.84 36.86 44.84 78.38 82.72 64.08 82.72 22.55 58.33 31.76 44.84 36.86"/><path class="cls-2" d="M85.93,19.73a.5.5,0,0,0-.05-.13,2.39,2.39,0,0,0-.13-.28l-.09-.13a1.51,1.51,0,0,0-.21-.23l-.11-.09,0,0a1.55,1.55,0,0,0-.36-.19L62.54,10.05V8.62a4.31,4.31,0,0,0-.12-1,5.1,5.1,0,0,0-.87-1.86,7.76,7.76,0,0,0-.72-.83c-.19-.19-.4-.38-.62-.56l-.27-.2-.43-.32-.38-.24-.39-.24-.47-.26-.35-.19-.57-.27L57,2.49l-.66-.27-.25-.1-.76-.28-.18-.06-.88-.28a35.51,35.51,0,0,0-6-1.2C47.5.2,46.64.13,45.78.08h0C44.92,0,44.06,0,43.2,0h0C35,0,26.34,2.31,24.31,6.64a4.63,4.63,0,0,0-.45,2v1L1.07,18.24a1.55,1.55,0,0,0-.36.19l0,0a.94.94,0,0,0-.1.1,1.45,1.45,0,0,0-.21.22.55.55,0,0,0-.09.14,1.15,1.15,0,0,0-.14.27.58.58,0,0,0,0,.14,1.55,1.55,0,0,0-.07.43H0v45a1.64,1.64,0,0,0,1.05,1.53L42.61,82.29h0a1.48,1.48,0,0,0,1.07,0h.05L84.94,66.75A1.64,1.64,0,0,0,86,65.21v-45A1.63,1.63,0,0,0,85.93,19.73ZM27.21,8.2a2.33,2.33,0,0,1,.19-.39l.1-.13a2.26,2.26,0,0,1,.2-.26l.16-.17A2.66,2.66,0,0,1,28.1,7l.23-.19.26-.2.31-.21.28-.17c.13-.08.26-.16.4-.23l.26-.14c.16-.09.33-.17.51-.25l.19-.09a26.24,26.24,0,0,1,7.14-1.89h0q.63-.09,1.29-.15h0l1.37-.11h0c.9-.06,1.82-.09,2.78-.09s2,0,2.92.09a39.77,39.77,0,0,1,4.32.54l.28.06a26.77,26.77,0,0,1,2.87.71l.26.08c.43.14.83.28,1.21.43h0l1,.45.23.11c.31.15.61.31.87.47h0c.25.16.48.31.69.47l.16.13a5.24,5.24,0,0,1,.54.48,2,2,0,0,1,.64,1.3C59.26,10.79,53,14,43.2,14c-.72,0-1.42,0-2.11,0l-.6,0-1.44-.11-.58-.06-1.6-.22-.21,0c-.6-.1-1.18-.21-1.73-.34l-.24,0c-.47-.11-.93-.23-1.36-.35l-.26-.08a13.53,13.53,0,0,1-5-2.43l-.1-.1-.25-.25a2.5,2.5,0,0,1-.26-.33s-.05-.09-.08-.14a1.58,1.58,0,0,1-.13-.26L27.2,9a1.68,1.68,0,0,1-.06-.37A1.23,1.23,0,0,1,27.21,8.2Zm32.05,5.36v5.62c0,2.17-6.25,5.33-16.06,5.33V17.23C49.27,17.23,55.56,16,59.26,13.56ZM43.2,34,28.31,28.25l-22-8.46,17.6-6.65h0v6c0,5.6,10,8.62,19.34,8.62s19.34-3,19.34-8.62V13.56l17.2,6.6-20,7.56ZM82.72,64.08,44.84,78.38V36.86l13.49-5.1,24.39-9.21Z"/></svg>