<svg id="Layer_1" data-name="Layer 1" xmlns="http://www.w3.org/2000/svg" viewBox="0 0 90 70.9"><defs><style>.cls-1{fill:#95c11b;}</style></defs><title>Artboard 1</title><path class="cls-1" d="M32.29,48.7a14.07,14.07,0,0,1-14-14.05V16.19H8.41a8.48,8.48,0,0,0-3.22.64A8.41,8.41,0,0,0,0,24.6V48.36A8.43,8.43,0,0,0,2.46,54.3a8.43,8.43,0,0,0,6,2.46H9.2V70.1a.82.82,0,0,0,.12.43.74.74,0,0,0,.34.29.75.75,0,0,0,.44.07.79.79,0,0,0,.41-.17l17.06-14h26a8.41,8.41,0,0,0,7.93-5.62l-3-2.44Z"/><path class="cls-1" d="M89.31,5.59A9,9,0,0,0,81,0H32.29a9,9,0,0,0-3.46.69,9.06,9.06,0,0,0-5.59,8.36v25.6a9.06,9.06,0,0,0,9.05,9.05h28l18.37,15a.91.91,0,0,0,.45.19.86.86,0,0,0,.47-.08.8.8,0,0,0,.36-.32.86.86,0,0,0,.14-.46V43.7H81a9,9,0,0,0,6.4-2.65A9.08,9.08,0,0,0,90,34.65V9.05A8.9,8.9,0,0,0,89.31,5.59Z"/></svg>