<svg id="Layer_1" data-name="Layer 1" xmlns="http://www.w3.org/2000/svg" xmlns:xlink="http://www.w3.org/1999/xlink" viewBox="0 0 70.78 81.32"><defs><style>.cls-1{fill:none;}.cls-2{clip-path:url(#clip-path);}.cls-3{fill:#59b4e6;}</style><clipPath id="clip-path"><rect class="cls-1" x="-7.65" y="-2.14" width="86" height="107"/></clipPath></defs><title>Artboard 1</title><g class="cls-2"><path class="cls-3" d="M65.62,66.08v-8.9a2.85,2.85,0,0,0-2.84-2.82H52.89V46h4a12.74,12.74,0,0,0,1.29-25.43A21.37,21.37,0,0,0,16,16.78a6.23,6.23,0,0,0-1.29-.09,14.64,14.64,0,1,0,0,29.28H20.3v8.39H10.41a2.85,2.85,0,0,0-2.84,2.82v8.9a7.88,7.88,0,0,0,2.84,15.24,7.88,7.88,0,0,0,7.91-7.88,8,8,0,0,0-5.08-7.36V60h9.89A2.86,2.86,0,0,0,26,57.18V46H33.8V66a7.88,7.88,0,1,0,10.75,7.36A7.94,7.94,0,0,0,39.47,66V46H47.3V57.18A2.86,2.86,0,0,0,50.14,60H60v6.07a7.89,7.89,0,1,0,10.75,7.36A8,8,0,0,0,65.62,66.08Z"/></g></svg>