<svg id="Layer_1" data-name="Layer 1" xmlns="http://www.w3.org/2000/svg" viewBox="0 0 83.7 84.24"><defs><style>.cls-1{fill:#c32118;fill-rule:evenodd;}</style></defs><title>Artboard 1</title><path class="cls-1" d="M59.05,36.44a23,23,0,0,1-4.71,25.49,22.66,22.66,0,0,1-32.18,0,23,23,0,0,1,0-32.38,22.67,22.67,0,0,1,25.33-4.74l-8,8a12.87,12.87,0,0,0-10.38,3.74,13,13,0,0,0,0,18.34,12.83,12.83,0,0,0,18.22,0,13,13,0,0,0,3.72-10.44ZM49.44,8.91a38.07,38.07,0,0,0-22.37,0h0l-.53.16-.29.1-.52.18-.23.08-.55.2-.23.08-1.14.46-.08,0-.51.23-.26.11-.45.21-.33.15-.45.22-.25.12c-.56.28-1.11.57-1.65.88l-.21.12-.48.28-.22.13-.48.29-.23.14-.46.3-.23.15-1,.66-.09.06-.46.34-.2.14-.43.33-.24.18-.4.32-.23.18c-.14.12-.28.22-.41.34l-.57.49-.42.36-.18.17-.38.35-.26.25-.31.28-.32.32-.29.29-.39.4-.17.17-.19.21-.35.38-.29.33-.28.31-.27.31L8.91,21l-.27.34-.27.34L8.12,22l-.48.63-.21.29-.28.38-.24.34L6.66,24l-.22.33-.26.4-.2.32-.42.67L5.43,26l-.31.53L5,26.77l-.27.49-.14.27-.27.5-.14.27c-.11.21-.21.42-.31.63l-.07.13c-.12.27-.25.54-.37.8L3.33,30c-.1.21-.19.42-.28.64l-.1.24-.24.59-.09.24c-.09.21-.16.42-.24.62l-.07.21c-.11.27-.2.55-.3.83l0,.07-.24.75-.08.26c-.07.2-.12.41-.18.6l-.08.26L1.23,36l0,.18C1,36.75.9,37.33.78,37.92l0,.21c-.05.23-.09.46-.13.69l0,.23-.12.7,0,.2c0,.28-.08.56-.11.83v.06c0,.32-.08.63-.11.94v.11l-.07.78,0,.29c0,.21,0,.42,0,.64v.28l0,.69V46c0,.19,0,.38,0,.57v.45l0,.46,0,.46,0,.42,0,.48,0,.45,0,.42.09.83,0,.36.08.52.06.38.08.51.07.4.08.44.08.42.12.54.14.59.12.52.1.38.12.44.11.41.14.45.12.39.13.42.13.39c.08.25.17.49.25.73v0l.16.42.14.39.16.4.16.39.18.43.16.36.17.39c.11.25.22.49.34.73l.13.28.24.48.2.38.18.35.22.41.18.33.24.42.14.24.53.88L6,66.4l.26.4.2.31c.09.13.18.25.27.39l.2.29.28.41.17.23c.1.15.21.29.32.44s.3.4.46.59h0l.28.36.23.27.33.4.19.23.35.41.18.21.37.41.09.1c.3.33.61.64.92,1l0,0,.42.43.16.15.39.38.23.21.39.36.14.12c.48.44,1,.87,1.5,1.27l.15.13.47.37.15.12.48.35.18.13c.54.41,1.1.79,1.67,1.16l.07,0,.48.3.21.13.51.31.14.08.55.33.07,0c.59.33,1.19.65,1.8,1l.21.11.5.25.23.1.55.25.12,0c.65.29,1.31.57,2,.82l.05,0,.58.21.21.08.56.19.2.07a38.33,38.33,0,0,0,23.59,0l.2-.07.56-.19L51,82l.59-.21,0,0q1-.37,2-.81l.14-.06.53-.25.24-.11.5-.24.22-.11c.59-.3,1.19-.61,1.77-.94l.09-.06.56-.32.13-.08.52-.31.21-.13.49-.32.07,0c.57-.37,1.13-.75,1.68-1.15l.17-.14.46-.34.19-.15L62,75.9l.23-.18c.48-.39,1-.79,1.41-1.21l.17-.14.38-.36.25-.24.35-.33.22-.22c.13-.12.25-.24.37-.37l.18-.18c.25-.26.51-.53.75-.8l.14-.15a4.4,4.4,0,0,0,.35-.39l.22-.24.31-.37.22-.26.32-.39.22-.27.28-.35h0l.45-.6.27-.37.24-.33.24-.34.25-.37.22-.32.27-.41.19-.31.3-.47.32-.53.23-.4.2-.34.23-.42L72,63.9l.23-.44.16-.3c.1-.21.21-.42.31-.64l.06-.12c.13-.26.25-.52.37-.78l.12-.28.21-.48.15-.35L73.8,60l.13-.33.19-.49.11-.32q.15-.37.27-.78l.1-.3.17-.51.11-.36.14-.5.1-.35.14-.54.08-.29c.06-.23.12-.47.17-.7l0-.14v0c.07-.27.12-.55.18-.83l.06-.32c0-.18.08-.37.11-.56l.06-.32c0-.2.07-.4.1-.6l0-.29c0-.23.07-.45.09-.67l0-.22c0-.29.07-.58.1-.88l0-.26.06-.62,0-.39,0-.53,0-.37,0-.57v-.35c0-.3,0-.59,0-.89s0-.6,0-.9v-.34c0-.2,0-.39,0-.58l0-.37,0-.52,0-.39L76.35,42l0-.26c0-.3-.07-.59-.1-.89l0-.2c0-.23-.06-.46-.1-.68l0-.29-.1-.61-.06-.31-.11-.57-.06-.31c-.06-.28-.11-.56-.18-.83v0l0-.14c-.05-.24-.11-.47-.17-.7l-.07-.28-.15-.57L75,35l-.15-.51-.1-.34-.18-.57-.09-.24c-.08-.27-.18-.53-.27-.79l-.12-.31c-.06-.17-.12-.34-.19-.5l-.12-.32-.21-.5-.15-.3-.1-.24-7.57-.7-1.68,1.68.06.1.08.15.3.58.06.11c.08.16.16.32.23.48l.09.16.23.51,0,.09c.08.2.17.41.26.61v.05l.24.58.07.18.15.41.1.26.14.39.1.32c0,.17.1.33.16.5l.07.21.12.42.07.25.12.45,0,.18L67,39l0,.23.09.44,0,.23.09.48,0,.19c0,.21.07.42.1.63l0,.22.07.44,0,.28,0,.41,0,.27.06.62v.15c0,.18,0,.36,0,.54v.28l0,.39v1c0,.24,0,.48,0,.71v.15c0,.2,0,.39,0,.58v.15c0,.48-.06.94-.1,1.41v.12c0,.19,0,.38-.07.57l0,.16c0,.2-.06.4-.08.59l0,.1c0,.23-.07.46-.11.68l0,.13c0,.19-.07.37-.1.56l0,.16-.12.56,0,.12c-.1.44-.22.89-.34,1.33l0,.13c-.06.19-.11.38-.17.56l0,.1c-.07.22-.13.43-.21.65h0l-.23.65,0,.12-.18.49-.07.16c-.16.42-.34.84-.52,1.24l0,.11-.24.51-.06.13-.28.57h0c-.1.21-.21.41-.32.61l-.06.1c-.08.16-.17.32-.26.47l-.08.16-.27.45-.07.12c-.11.19-.23.37-.35.56l0,.08c-.11.16-.21.32-.31.48l-.09.12c-.09.15-.2.29-.3.44l-.08.12c-.26.36-.52.71-.79,1.06l-.08.1-.33.41-.11.13c-.27.34-.56.67-.85,1l-.1.11c-.11.13-.23.25-.35.38l-.11.12-.44.45h0c-.15.16-.31.31-.48.47l-.1.1-.37.35-.13.12-.4.34-.1.1-.48.4-.14.12-.37.3-.15.12-.42.32-.09.08c-.18.12-.35.25-.52.38L55.2,70l-.36.25-.2.14-.36.24-.19.12-.41.25-.12.08h0l-.11.07c-.14.09-.28.18-.43.26l-.19.11-.39.22-.19.1-.46.24-.09,0,0,0-.55.28-.21.09-.36.17-.24.11-.45.2-.13.06a29.38,29.38,0,0,1-22.91,0L26.63,73l-.42-.18L26,72.73l-.36-.17-.21-.09-.56-.28-.16-.08-.43-.23-.19-.1-.35-.21-.24-.13-.4-.24-.13-.08L22.81,71l-.4-.25-.19-.13-.37-.24-.2-.13-.31-.23-.28-.17-.42-.31-.15-.11-.36-.28L19.94,69l-.31-.24-.2-.17L19,68.24l-.16-.15-.33-.29-.17-.16L18,67.32l-.12-.11-.46-.45-.09-.09L17,66.31l-.15-.17-.33-.35-.11-.12c-.29-.32-.58-.65-.85-1l-.11-.14-.3-.38L15,64c-.12-.16-.24-.31-.35-.47l0,0v0c-.13-.17-.26-.34-.38-.52l-.08-.11-.31-.44-.08-.13-.31-.47-.06-.09c-.11-.18-.23-.36-.34-.55L13,61.06l-.27-.45-.09-.16L12.37,60l-.1-.17c-.1-.19-.2-.38-.29-.57l-.06-.13c-.08-.15-.16-.3-.23-.45l-.1-.19L11.38,58l-.05-.11-.27-.6v0l-.24-.58-.07-.18-.17-.44-.07-.2c-.06-.18-.13-.36-.18-.54l0-.08h0v0c-.07-.19-.14-.39-.19-.58L10,54.46,9.88,54l0-.15-.15-.56,0-.08v0c-.05-.2-.1-.41-.14-.6l0-.23-.1-.43,0-.25c0-.16-.07-.33-.1-.51l0-.13c0-.22-.08-.45-.11-.68v-.11C9,50,9,49.8,9,49.62l0-.24-.05-.45,0-.22c0-.22-.05-.44-.06-.65v-.15c0-.18,0-.37,0-.55v-.24l0-.48V46.4c0-.22,0-.45,0-.68s0-.45,0-.67v-.24l0-.48v-.24c0-.18,0-.37,0-.55V43.4q0-.33.06-.66l0-.21L9,42.07l0-.23c0-.19,0-.38.08-.57v-.09l.12-.69v-.11l.11-.54,0-.23.1-.44,0-.22.15-.62,0-.15.14-.52.05-.17L10,37l.05-.18.2-.62h0l0,0c.06-.19.13-.38.2-.57l.07-.21.17-.43.07-.18c.08-.2.15-.39.24-.59v0c.09-.21.18-.41.26-.61l.05-.1.23-.5.08-.16.23-.48.06-.12.3-.57.08-.13.23-.42.1-.17.29-.48,0-.08.36-.58,0,0c.12-.18.23-.36.35-.53l.07-.1.3-.44.1-.13.37-.52v0l0,0c.11-.16.23-.32.35-.47l.13-.16.3-.37.11-.14c.27-.34.56-.66.85-1l.1-.11.35-.38.13-.13.37-.39.08-.08c.16-.15.31-.3.46-.46l.11-.1.36-.33.15-.14.37-.32.12-.11.48-.41.15-.11.34-.29.19-.15.36-.27.15-.12c.16-.13.34-.25.5-.37l.13-.09.42-.29.14-.1.44-.29.12-.08.55-.34h0c.18-.11.37-.23.56-.33l.16-.1.41-.22.18-.11.42-.22.17-.08A5.68,5.68,0,0,1,25.4,19l.2-.1.4-.19.19-.09.45-.19.16-.07a29.44,29.44,0,0,1,22.91,0l.16.07.45.19.19.09.4.19.2.1c.19.08.37.17.56.27l.15.08.43.23.19.1.1.06L54.22,18l-.64-7-.06-.64L53,10.21l-.09,0L51.8,9.72l-.23-.08L51,9.44l-.22-.08-.53-.18L50,9.08l-.53-.16ZM23.51,20l-.56.33C23.13,20.22,23.32,20.1,23.51,20ZM11.33,33.54l-.26.61C11.15,34,11.24,33.74,11.33,33.54ZM8.88,42.76l-.06.65Zm37,.15L64,24.66l6.93.65L83.7,12.43l-11.3-1L71.34,0,58.55,12.87l.64,7L41.06,38.1A8.05,8.05,0,0,0,32.53,40a8.18,8.18,0,0,0,0,11.52A8.07,8.07,0,0,0,44,51.5,8.16,8.16,0,0,0,45.84,42.91Z"/></svg>