<svg width="54" height="54" xmlns="http://www.w3.org/2000/svg" xmlns:xlink="http://www.w3.org/1999/xlink"><defs><linearGradient x1="50%" y1="100%" x2="50%" y2="26.76%" id="a"><stop stop-color="#B4793D" offset="0%"/><stop stop-color="#48688B" offset="100%"/></linearGradient><path d="M35.857 54h3.041v-8.402h9.3V54h3.042c1.524 0 2.76-1.23 2.76-2.747V29.284a2.734 2.734 0 0 0-2.74-2.727H35.836a2.734 2.734 0 0 0-2.74 2.727v21.97A2.754 2.754 0 0 0 35.857 54zm9.823-20.208c0-.471.383-.853.857-.853h2.388c.474 0 .858.382.858.853v3.737a.855.855 0 0 1-.858.853h-2.388a.855.855 0 0 1-.857-.853v-3.737zm-8.366 0c0-.471.384-.853.857-.853h2.389c.473 0 .857.382.857.853v3.737a.855.855 0 0 1-.857.853h-2.39a.855.855 0 0 1-.857-.853v-3.737zM2.721 54C1.218 54 0 52.749 0 51.206V2.775C0 1.242 1.21 0 2.702 0H26.04c1.492 0 2.702 1.242 2.702 2.775v48.43c0 1.544-1.219 2.795-2.721 2.795h-7.605v-8.548h-8.09V54H2.72zM17.202 9.377v3.802c0 .48.379.868.846.868h2.354a.857.857 0 0 0 .845-.868V9.377a.857.857 0 0 0-.845-.868h-2.354a.857.857 0 0 0-.846.868zm0 12.031v3.802c0 .48.379.869.846.869h2.354a.857.857 0 0 0 .845-.869v-3.802a.857.857 0 0 0-.845-.868h-2.354a.857.857 0 0 0-.846.868zm0 12.031v3.803c0 .479.379.868.846.868h2.354a.857.857 0 0 0 .845-.868v-3.803a.857.857 0 0 0-.845-.868h-2.354a.857.857 0 0 0-.846.868zM7.494 9.377v3.802c0 .48.379.868.846.868h2.354a.857.857 0 0 0 .845-.868V9.377a.857.857 0 0 0-.845-.868H8.34a.857.857 0 0 0-.846.868zm0 12.031v3.802c0 .48.379.869.846.869h2.354a.857.857 0 0 0 .845-.869v-3.802a.857.857 0 0 0-.845-.868H8.34a.857.857 0 0 0-.846.868zm0 12.031v3.803c0 .479.379.868.846.868h2.354a.857.857 0 0 0 .845-.868v-3.803a.857.857 0 0 0-.845-.868H8.34a.857.857 0 0 0-.846.868zm26.914-15.734c1.195.002 2.165.984 2.173 2.199.635 0 1.48.003 2.613.005-.005-2.676-2.134-4.846-4.765-4.86.002 1.694-.014 1.205-.021 2.656zm-.005 2.198h-.012c-.004-.11 0-.004.012-9.28h.01l-.01-1.77c6.013 0 10.887 4.954 10.887 11.065-10.046.035-1.564.003-8.716 0-1.779-.013-.636-.003-1.372 0h-.799v-.015zm.021-6.624c3.597.011 6.509 2.976 6.511 6.634l2.613.005c0-5.13-4.09-9.29-9.136-9.295.006 1.087.01 1.956.012 2.656z" id="b"/></defs><use fill="url(#a)" xlink:href="#b"/></svg>