<svg width="60" height="48" xmlns="http://www.w3.org/2000/svg" xmlns:xlink="http://www.w3.org/1999/xlink"><defs><path d="M29.999 0C40.009 5.298 50 10.63 60 15.948l-2.807 1.492v18.513a2.492 2.492 0 0 1 1.1 2.062c0 1.385-1.144 2.507-2.557 2.507s-2.557-1.122-2.557-2.507c0-.808.389-1.526.993-1.984V19.046l-24.173 12.85C20.008 26.566 10 21.262 0 15.948L29.999 0zm-18.56 26.258L30 35.666l20.04-10.157v12.334A9807.716 9807.716 0 0 0 30 48 9808.291 9808.291 0 0 0 9.96 37.843V25.509l1.479.75z" id="a"/></defs><use fill="#FFF" xlink:href="#a" fill-rule="evenodd"/></svg>