<svg xmlns="http://www.w3.org/2000/svg" width="18" height="18" viewBox="0 0 18 18"><g><g><g><path fill="#6f8fb9" d="M11.7 9c0 1.494-1.206 2.7-2.7 2.7A2.696 2.696 0 0 1 6.3 9c0-1.494 1.206-2.7 2.7-2.7 1.494 0 2.7 1.206 2.7 2.7zM9 4.5A4.502 4.502 0 0 0 4.5 9c0 2.484 2.016 4.5 4.5 4.5s4.5-2.016 4.5-4.5S11.484 4.5 9 4.5zm4.725-1.35a1.125 1.125 0 1 0 0 2.25 1.125 1.125 0 0 0 0-2.25zM5.04 1.8h7.92a3.238 3.238 0 0 1 3.24 3.24v7.92a3.238 3.238 0 0 1-3.24 3.24H5.04a3.238 3.238 0 0 1-3.24-3.24V5.04A3.238 3.238 0 0 1 5.04 1.8zM5.22 0C2.34 0 0 2.34 0 5.22v7.56C0 15.66 2.34 18 5.22 18h7.56c2.88 0 5.22-2.34 5.22-5.22V5.22C18 2.34 15.66 0 12.78 0z"/></g></g></g></svg>