<svg xmlns="http://www.w3.org/2000/svg" width="49" height="59"><path fill="#fff" d="M23.21 47.457h2.58c.715 0 1.289.568 1.289 1.277a1.28 1.28 0 0 1-1.29 1.278h-2.578a1.28 1.28 0 0 1-1.29-1.278 1.28 1.28 0 0 1 1.29-1.277zm20.632-19.24h1.29c.715 0 1.29.57 1.29 1.281v5.124c0 .71-.575 1.281-1.29 1.281h-1.048a1.356 1.356 0 0 0-.242-.04v-5.564a1.34 1.34 0 0 0 0-.4zM23.971 2.565l2.578 2.565h.524c12.891 0 15.213 9.616 15.47 15.385v5.129h-.121a1.28 1.28 0 0 0-1.168 1.282v2.404l-1.29.641v-8.174a1.28 1.28 0 0 0-.926-1.242s-6.426-2.008-9.588-7.132a1.298 1.298 0 0 0-1.209-.6 1.29 1.29 0 0 0-.886.48c-2.568 3.065-7.458 4.983-11.763 6.01-4.306 1.027-7.937 1.202-7.937 1.202-.68.04-1.208.606-1.208 1.282v8.214l-2.7-1.282v-8.214C4.524 7.564 14.56 2.695 23.972 2.565zM24.5 0C8.125 0 1.803 10.516 1.29 20.522v8.577C.387 30.126 0 31.44 0 33.107c0 2.951 1.92 5.371 4.755 6.013C8.11 47.842 13.67 59 23.21 59c5.157 0 9.157-3.337 12.25-7.696h-3.345c-2.836 3.462-5.803 5.13-9.026 5.13-6.19 0-11.5-6.172-16.4-18.998l-.243-.761-.765-.12c-1.678 0-3.103-1.524-3.103-3.448 0-.751.141-1.382.363-1.883l4.23 2.004a1.29 1.29 0 0 0 1.855-1.163v-9.178c.89-.06 3.238-.15 7.132-1.083 4.095-.977 8.82-2.725 12.089-5.852 3.46 4.535 7.933 6.293 9.147 6.694v9.42c-.005.445.226.856.6 1.091.377.24.85.266 1.253.07l2.015-1.001v4.248c-.206.045-.428.08-.645.08l-.765.12-.282.762c-1.29 3.337-2.58 6.183-3.869 8.618 1.547-.256 2.997-.892 4.03-2.044.776-1.669 1.41-3.352 2.055-4.89a5.26 5.26 0 0 0 .766-.281v.922c0 4.324-3.39 7.696-7.737 7.696h-5.4c-.539-1.483-1.96-2.566-3.627-2.566H23.21c-2.121 0-3.869 1.739-3.869 3.848 0 2.11 1.748 3.848 3.869 3.848h2.578c1.668 0 3.088-1.082 3.627-2.565h5.4c5.712 0 10.316-4.58 10.316-10.261v-1.283c2.12 0 3.868-1.738 3.868-3.848V29.5c0-2.11-1.748-3.848-3.868-3.848v-5.13C44.618 9.234 38.306 2.82 27.602 2.565L25.025 0z" opacity=".71"/></svg>