<svg xmlns="http://www.w3.org/2000/svg" width="24" height="19" viewBox="0 0 24 19"><g><g><path fill="#7090b9" d="M24 2.252c-.883.38-1.832.64-2.828.754A4.837 4.837 0 0 0 23.336.354c-.95.548-2.004.947-3.125 1.164A4.986 4.986 0 0 0 16.617 0c-2.719 0-4.926 2.15-4.926 4.798 0 .376.043.741.13 1.091C7.726 5.692 4.097 3.782 1.67.88a4.663 4.663 0 0 0-.667 2.412c0 1.663.867 3.131 2.191 3.99a4.995 4.995 0 0 1-2.23-.6v.06c0 2.325 1.695 4.266 3.95 4.703a5.024 5.024 0 0 1-2.224.084c.625 1.906 2.446 3.29 4.598 3.333a10.044 10.044 0 0 1-6.113 2.05c-.399 0-.79-.023-1.176-.068A14.195 14.195 0 0 0 7.547 19c9.058 0 14.012-7.309 14.012-13.647 0-.205-.008-.415-.016-.62A9.944 9.944 0 0 0 24 2.253z"/></g></g></svg>