<svg width="1135" height="483" viewBox="0 0 1135 483" fill="none" xmlns="http://www.w3.org/2000/svg">
<path d="M364.202 385.629H312.494V476.573H187.24V385.629H0V292.435L195.269 6.7485H312.494V290.828H364.202V385.629ZM187.24 290.828V236.198C187.24 225.914 187.561 212.096 188.203 194.743C189.06 177.175 189.702 167.963 190.13 167.106H186.597C179.318 183.602 171.074 199.027 161.868 213.381L109.839 290.828H187.24Z" fill="#EFF4FD"/>
<path d="M736.433 242.303C736.433 325.428 722.516 386.379 694.682 425.156C666.847 463.719 624.239 483 566.858 483C510.761 483 468.474 462.862 439.997 422.585C411.52 382.094 397.282 322 397.282 242.303C397.282 158.75 411.199 97.4784 439.034 58.487C466.868 19.4957 509.476 0 566.858 0C622.741 0 664.92 20.3526 693.397 61.0579C722.088 101.549 736.433 161.964 736.433 242.303ZM523.5 242.303C523.5 295.434 526.819 331.962 533.456 351.886C540.094 371.81 551.228 381.772 566.858 381.772C582.702 381.772 593.836 371.489 600.259 350.922C606.896 330.355 610.215 294.149 610.215 242.303C610.215 190.244 606.896 153.823 600.259 133.042C593.621 112.047 582.488 101.549 566.858 101.549C551.228 101.549 540.094 111.618 533.456 131.756C526.819 151.895 523.5 188.744 523.5 242.303Z" fill="#EFF4FD"/>
<path d="M1135 385.629H1083.29V476.573H958.038V385.629H770.798V292.435L966.067 6.7485H1083.29V290.828H1135V385.629ZM958.038 290.828V236.198C958.038 225.914 958.359 212.096 959.001 194.743C959.858 177.175 960.5 167.963 960.928 167.106H957.395C950.116 183.602 941.872 199.027 932.666 213.381L880.637 290.828H958.038Z" fill="#EFF4FD"/>
</svg>
