<svg width="149" height="101" viewBox="0 0 149 101" fill="none" xmlns="http://www.w3.org/2000/svg">
<path fill-rule="evenodd" clip-rule="evenodd" d="M67.1709 21.9777L71.5135 14.6474L64.0429 2.037C62.8889 0.0891 60.3331 -0.578323 58.3343 0.546308C56.3356 1.67094 55.6507 4.16176 56.8047 6.10965L66.7318 22.8664C66.8532 22.5643 66.9993 22.2672 67.1709 21.9777ZM69.3424 23.1995L72.9612 17.091L72.9613 17.0911L81.8795 2.03743C83.0335 0.0895276 85.5893 -0.577895 87.5881 0.546735C89.5869 1.67137 90.2717 4.16218 89.1177 6.11008L76.5808 27.2722C76.0584 28.154 75.2488 28.7733 74.3335 29.0829C73.969 29.2069 73.5945 29.2787 73.2203 29.3012C72.559 29.3417 71.8818 29.2296 71.2462 28.9499C71.2356 28.9453 71.2252 28.9406 71.2146 28.936C71.0989 28.8838 70.9846 28.8262 70.872 28.7629C70.4793 28.5419 70.1373 28.2682 69.85 27.9563C69.8159 27.9191 69.7823 27.8811 69.7493 27.8425C69.5909 27.6571 69.451 27.4595 69.3302 27.2525L69.3208 27.2365C68.6206 26.0237 68.5766 24.4921 69.3424 23.1995Z" fill="white"/>
<path d="M84.5352 31.5064L88.8778 38.8365H103.82C106.128 38.8365 107.999 37.0131 107.999 34.7638C107.999 32.5146 106.128 30.6912 103.82 30.6912H83.9648C84.1726 30.9448 84.3636 31.2167 84.5352 31.5064Z" fill="white"/>
<path d="M76.4644 31.3524C76.4778 31.3438 76.4912 31.3354 76.5047 31.327C76.5544 31.2963 76.6049 31.2664 76.6564 31.2375C77.0493 31.0164 77.4637 30.8646 77.8847 30.7782C77.9037 30.7742 77.9226 30.7705 77.9416 30.7669C78.2083 30.7159 78.4773 30.691 78.745 30.6912H78.7465C78.7611 30.6912 78.7756 30.6913 78.7902 30.6915C80.2175 30.7074 81.5997 31.4361 82.3652 32.7282L94.9018 53.8902C96.0559 55.8384 95.3713 58.3291 93.3724 59.4538C91.3737 60.5785 88.8178 59.9107 87.6639 57.9631L75.127 36.8008C74.0108 34.9167 74.6149 32.5247 76.4644 31.3524Z" fill="white"/>
<path d="M38 34.7638C38 32.5146 39.871 30.6912 42.179 30.6912H67.2528C69.5608 30.6912 71.4318 32.5146 71.4318 34.7638C71.4318 37.0131 69.5608 38.8365 67.2528 38.8365H42.179C39.871 38.8365 38 37.0131 38 34.7638Z" fill="white"/>
<path d="M58.5682 41.28L51.0977 53.8901C49.9437 55.8383 50.6285 58.329 52.6273 59.4537C54.6261 60.5784 57.1819 59.9106 58.3359 57.9631L68.263 41.2061C67.9333 41.2548 67.5957 41.28 67.2521 41.28H58.5682Z" fill="white"/>
<path d="M13.046 79.776V95H9.812V82.306H4.84V95H1.606V79.776H13.046ZM25.7178 83.34V95H22.5938V85.672H20.0198L19.7778 88.51C19.6312 90.182 19.4478 91.436 19.2278 92.272C19.0225 93.0933 18.6632 93.7387 18.1498 94.208C17.6512 94.6627 16.8885 95.0147 15.8618 95.264L15.1138 92.976C15.5978 92.7707 15.9425 92.5433 16.1478 92.294C16.3532 92.03 16.4998 91.6267 16.5878 91.084C16.6905 90.5413 16.7858 89.6173 16.8738 88.312L17.2478 83.34H25.7178ZM37.7137 91.766C37.7137 92.2207 37.7797 92.558 37.9117 92.778C38.0437 92.9833 38.2637 93.1373 38.5717 93.24L37.9117 95.308C37.2223 95.2493 36.6577 95.088 36.2177 94.824C35.7923 94.56 35.4623 94.1493 35.2277 93.592C34.465 94.7653 33.299 95.352 31.7297 95.352C30.571 95.352 29.647 95.022 28.9577 94.362C28.283 93.6873 27.9457 92.8147 27.9457 91.744C27.9457 90.468 28.4077 89.4927 29.3317 88.818C30.2557 88.1433 31.583 87.806 33.3137 87.806H34.6557V87.234C34.6557 86.5153 34.4943 86.0167 34.1717 85.738C33.849 85.4593 33.3137 85.32 32.5657 85.32C31.7443 85.32 30.7177 85.5253 29.4857 85.936L28.7817 83.846C30.2337 83.274 31.671 82.988 33.0937 82.988C34.6777 82.988 35.8437 83.3327 36.5917 84.022C37.3397 84.6967 37.7137 85.7087 37.7137 87.058V91.766ZM32.5877 93.108C33.4677 93.108 34.157 92.6753 34.6557 91.81V89.588H33.6217C31.935 89.588 31.0917 90.2187 31.0917 91.48C31.0917 91.9933 31.2163 92.3967 31.4657 92.69C31.7297 92.9687 32.1037 93.108 32.5877 93.108ZM49.2492 83.34L48.8532 85.694H45.5532V95H42.4292V85.694H38.9312V83.34H49.2492ZM61.9522 82.988C64.6068 82.988 65.9342 85.0487 65.9342 89.17C65.9342 90.4167 65.7655 91.5093 65.4282 92.448C65.1055 93.372 64.6362 94.0907 64.0202 94.604C63.4042 95.1027 62.6782 95.352 61.8422 95.352C60.7862 95.352 59.9062 94.912 59.2022 94.032V99.488L56.2542 99.84V94.032C55.5502 94.912 54.6408 95.352 53.5262 95.352C52.7195 95.352 52.0155 95.1027 51.4142 94.604C50.8128 94.0907 50.3435 93.372 50.0062 92.448C49.6835 91.5093 49.5222 90.4167 49.5222 89.17C49.5222 87.2047 49.8522 85.6867 50.5122 84.616C51.1868 83.5307 52.2062 82.988 53.5702 82.988C54.6408 82.988 55.5355 83.3767 56.2542 84.154V78.346L59.2022 78.698V84.22C59.9062 83.3987 60.8228 82.988 61.9522 82.988ZM54.4502 93.064C55.1248 93.064 55.7262 92.6973 56.2542 91.964V86.332C55.7115 85.628 55.1028 85.276 54.4282 85.276C53.8562 85.276 53.4308 85.584 53.1522 86.2C52.8735 86.8013 52.7342 87.7913 52.7342 89.17C52.7342 91.766 53.3062 93.064 54.4502 93.064ZM60.9842 93.064C62.1575 93.064 62.7442 91.766 62.7442 89.17C62.7442 87.7913 62.6048 86.8013 62.3262 86.2C62.0475 85.584 61.6148 85.276 61.0282 85.276C60.3682 85.276 59.7595 85.6353 59.2022 86.354V91.942C59.4515 92.3233 59.7155 92.6093 59.9942 92.8C60.2875 92.976 60.6175 93.064 60.9842 93.064ZM73.3483 82.988C75.0937 82.988 76.4577 83.538 77.4403 84.638C78.423 85.7233 78.9143 87.234 78.9143 89.17C78.9143 90.402 78.687 91.4873 78.2323 92.426C77.7923 93.35 77.147 94.0687 76.2963 94.582C75.4603 95.0953 74.4703 95.352 73.3263 95.352C71.581 95.352 70.2097 94.8093 69.2123 93.724C68.2297 92.624 67.7383 91.106 67.7383 89.17C67.7383 87.938 67.9583 86.86 68.3983 85.936C68.853 84.9973 69.4983 84.2713 70.3343 83.758C71.185 83.2447 72.1897 82.988 73.3483 82.988ZM73.3483 85.32C72.5563 85.32 71.9623 85.6353 71.5663 86.266C71.185 86.882 70.9943 87.85 70.9943 89.17C70.9943 90.49 71.185 91.4653 71.5663 92.096C71.9623 92.712 72.549 93.02 73.3263 93.02C74.1037 93.02 74.683 92.712 75.0643 92.096C75.4603 91.4653 75.6583 90.49 75.6583 89.17C75.6583 87.85 75.4677 86.882 75.0863 86.266C74.705 85.6353 74.1257 85.32 73.3483 85.32ZM87.582 82.988C89.0487 82.988 90.134 83.5307 90.838 84.616C91.5567 85.6867 91.916 87.1973 91.916 89.148C91.916 90.336 91.7327 91.3993 91.366 92.338C90.9993 93.2767 90.464 94.0173 89.76 94.56C89.0707 95.088 88.2493 95.352 87.296 95.352C86.108 95.352 85.1473 94.934 84.414 94.098V99.488L81.29 99.84V83.34H84.04L84.194 84.704C84.634 84.132 85.1473 83.7067 85.734 83.428C86.3353 83.1347 86.9513 82.988 87.582 82.988ZM86.372 93.02C87.8973 93.02 88.66 91.7367 88.66 89.17C88.66 87.762 88.4913 86.7647 88.154 86.178C87.8167 85.5913 87.3033 85.298 86.614 85.298C86.174 85.298 85.7633 85.4373 85.382 85.716C85.0153 85.98 84.6927 86.3393 84.414 86.794V91.876C84.9127 92.6387 85.5653 93.02 86.372 93.02ZM106.825 95H103.855L103.525 90.512C103.481 89.8667 103.459 89.2507 103.459 88.664C103.459 88.2533 103.489 87.4027 103.547 86.112L101.479 93.79H98.8175L96.8375 86.134C96.8961 86.8967 96.9255 87.7253 96.9255 88.62C96.9255 89.0453 96.9108 89.6687 96.8815 90.49L96.6175 95H93.6475L94.6595 83.34H98.3995L100.159 91.062L102.029 83.34H105.791L106.825 95ZM118.065 91.766C118.065 92.2207 118.131 92.558 118.263 92.778C118.395 92.9833 118.615 93.1373 118.923 93.24L118.263 95.308C117.574 95.2493 117.009 95.088 116.569 94.824C116.144 94.56 115.814 94.1493 115.579 93.592C114.817 94.7653 113.651 95.352 112.081 95.352C110.923 95.352 109.999 95.022 109.309 94.362C108.635 93.6873 108.297 92.8147 108.297 91.744C108.297 90.468 108.759 89.4927 109.683 88.818C110.607 88.1433 111.935 87.806 113.665 87.806H115.007V87.234C115.007 86.5153 114.846 86.0167 114.523 85.738C114.201 85.4593 113.665 85.32 112.917 85.32C112.096 85.32 111.069 85.5253 109.837 85.936L109.133 83.846C110.585 83.274 112.023 82.988 113.445 82.988C115.029 82.988 116.195 83.3327 116.943 84.022C117.691 84.6967 118.065 85.7087 118.065 87.058V91.766ZM112.939 93.108C113.819 93.108 114.509 92.6753 115.007 91.81V89.588H113.973C112.287 89.588 111.443 90.2187 111.443 91.48C111.443 91.9933 111.568 92.3967 111.817 92.69C112.081 92.9687 112.455 93.108 112.939 93.108ZM130.188 79.886C131.2 79.886 132.065 80.0547 132.784 80.392C133.517 80.7147 134.067 81.162 134.434 81.734C134.815 82.306 135.006 82.944 135.006 83.648C135.006 84.5427 134.749 85.2907 134.236 85.892C133.722 86.4787 133.011 86.8967 132.102 87.146C133.099 87.2487 133.913 87.608 134.544 88.224C135.174 88.84 135.49 89.698 135.49 90.798C135.49 91.6487 135.27 92.4187 134.83 93.108C134.404 93.7973 133.774 94.3473 132.938 94.758C132.102 95.154 131.112 95.352 129.968 95.352C127.87 95.352 126.228 94.6187 125.04 93.152L126.734 91.524C127.232 92.0227 127.724 92.382 128.208 92.602C128.692 92.822 129.22 92.932 129.792 92.932C130.554 92.932 131.156 92.7267 131.596 92.316C132.05 91.9053 132.278 91.3333 132.278 90.6C132.278 89.808 132.065 89.236 131.64 88.884C131.214 88.532 130.576 88.356 129.726 88.356H128.516L128.89 86.156H129.704C130.393 86.156 130.943 85.9727 131.354 85.606C131.764 85.2393 131.97 84.726 131.97 84.066C131.97 83.494 131.779 83.0467 131.398 82.724C131.031 82.4013 130.525 82.24 129.88 82.24C129.322 82.24 128.809 82.3427 128.34 82.548C127.87 82.7533 127.408 83.076 126.954 83.516L125.392 81.822C126.756 80.5313 128.354 79.886 130.188 79.886ZM148.99 79.776L144.612 95H140.674L136.142 79.776H139.596L142.698 92.316L145.69 79.776H148.99Z" fill="white"/>
</svg>
