<?xml version="1.0" encoding="UTF-8"?>
<svg width="148px" height="100px" viewBox="0 0 148 100" version="1.1" xmlns="http://www.w3.org/2000/svg" xmlns:xlink="http://www.w3.org/1999/xlink">
    <!-- Generator: Sketch 60.1 (88133) - https://sketch.com -->
    <title>3v-2</title>
    <desc>Created with Sketch.</desc>
    <g id="Page-1" stroke="none" stroke-width="1" fill="none" fill-rule="evenodd">
        <g id="3v-2">
            <path d="M66.1709,21.9777 L70.5135,14.6474 L63.0429,2.037 C61.8889,0.0891 59.3331,-0.578323 57.3343,0.546308 C55.3356,1.67094 54.6507,4.16176 55.8047,6.10965 L65.7318,22.8664 C65.8532,22.5643 65.9993,22.2672 66.1709,21.9777 Z M68.3424,23.1995 L71.9612,17.091 L71.9613,17.0911 L80.8795,2.03743 C82.0335,0.0895276 84.5893,-0.577895 86.5881,0.546735 C88.5869,1.67137 89.2717,4.16218 88.1177,6.11008 L75.5808,27.2722 C75.0584,28.154 74.2488,28.7733 73.3335,29.0829 C72.969,29.2069 72.5945,29.2787 72.2203,29.3012 C71.559,29.3417 70.8818,29.2296 70.2462,28.9499 C70.2356,28.9453 70.2252,28.9406 70.2146,28.936 C70.0989,28.8838 69.9846,28.8262 69.872,28.7629 C69.4793,28.5419 69.1373,28.2682 68.85,27.9563 C68.8159,27.9191 68.7823,27.8811 68.7493,27.8425 C68.5909,27.6571 68.451,27.4595 68.3302,27.2525 L68.3208,27.2365 C67.6206,26.0237 67.5766,24.4921 68.3424,23.1995 Z" id="Shape" fill="#EBBB28"></path>
            <path d="M83.5352,31.5064 L87.8778,38.8365 L102.82,38.8365 C105.128,38.8365 106.999,37.0131 106.999,34.7638 C106.999,32.5146 105.128,30.6912 102.82,30.6912 L82.9648,30.6912 C83.1726,30.9448 83.3636,31.2167 83.5352,31.5064 Z" id="Path" fill="#1A66BE" fill-rule="nonzero"></path>
            <path d="M75.4644,31.3524 C75.4778,31.3438 75.4912,31.3354 75.5047,31.327 C75.5544,31.2963 75.6049,31.2664 75.6564,31.2375 C76.0493,31.0164 76.4637,30.8646 76.8847,30.7782 C76.9037,30.7742 76.9226,30.7705 76.9416,30.7669 C77.2083,30.7159 77.4773,30.6911988 77.745,30.6911988 L77.7465,30.6911988 C77.7611,30.6911988 77.7756,30.6911988 77.7902,30.6915 C79.2175,30.7074 80.5997,31.4361 81.3652,32.7282 L93.9018,53.8902 C95.0559,55.8384 94.3713,58.3291 92.3724,59.4538 C90.3737,60.5785 87.8178,59.9107 86.6639,57.9631 L74.127,36.8008 C73.0108,34.9167 73.6149,32.5247 75.4644,31.3524 Z" id="Path" fill="#1A66BE" fill-rule="nonzero"></path>
            <path d="M37,34.7638 C37,32.5146 38.871,30.6912 41.179,30.6912 L66.2528,30.6912 C68.5608,30.6912 70.4318,32.5146 70.4318,34.7638 C70.4318,37.0131 68.5608,38.8365 66.2528,38.8365 L41.179,38.8365 C38.871,38.8365 37,37.0131 37,34.7638 Z" id="Path" fill="#1DAA5D" fill-rule="nonzero"></path>
            <path d="M57.5682,41.28 L50.0977,53.8901 C48.9437,55.8383 49.6285,58.329 51.6273,59.4537 C53.6261,60.5784 56.1819,59.9106 57.3359,57.9631 L67.263,41.2061 C66.9333,41.2548 66.5957,41.28 66.2521,41.28 L57.5682,41.28 Z" id="Path" fill="#1DAA5D" fill-rule="nonzero"></path>
            <path d="M12.046,79.776 L12.046,95 L8.812,95 L8.812,82.306 L3.84,82.306 L3.84,95 L0.606,95 L0.606,79.776 L12.046,79.776 Z M24.7178,83.34 L24.7178,95 L21.5938,95 L21.5938,85.672 L19.0198,85.672 L18.7778,88.51 C18.6312,90.182 18.4478,91.436 18.2278,92.272 C18.0225,93.0933 17.6632,93.7387 17.1498,94.208 C16.6512,94.6627 15.8885,95.0147 14.8618,95.264 L14.1138,92.976 C14.5978,92.7707 14.9425,92.5433 15.1478,92.294 C15.3532,92.03 15.4998,91.6267 15.5878,91.084 C15.6905,90.5413 15.7858,89.6173 15.8738,88.312 L16.2478,83.34 L24.7178,83.34 Z M36.7137,91.766 C36.7137,92.2207 36.7797,92.558 36.9117,92.778 C37.0437,92.9833 37.2637,93.1373 37.5717,93.24 L36.9117,95.308 C36.2223,95.2493 35.6577,95.088 35.2177,94.824 C34.7923,94.56 34.4623,94.1493 34.2277,93.592 C33.465,94.7653 32.299,95.352 30.7297,95.352 C29.571,95.352 28.647,95.022 27.9577,94.362 C27.283,93.6873 26.9457,92.8147 26.9457,91.744 C26.9457,90.468 27.4077,89.4927 28.3317,88.818 C29.2557,88.1433 30.583,87.806 32.3137,87.806 L33.6557,87.806 L33.6557,87.234 C33.6557,86.5153 33.4943,86.0167 33.1717,85.738 C32.849,85.4593 32.3137,85.32 31.5657,85.32 C30.7443,85.32 29.7177,85.5253 28.4857,85.936 L27.7817,83.846 C29.2337,83.274 30.671,82.988 32.0937,82.988 C33.6777,82.988 34.8437,83.3327 35.5917,84.022 C36.3397,84.6967 36.7137,85.7087 36.7137,87.058 L36.7137,91.766 Z M31.5877,93.108 C32.4677,93.108 33.157,92.6753 33.6557,91.81 L33.6557,89.588 L32.6217,89.588 C30.935,89.588 30.0917,90.2187 30.0917,91.48 C30.0917,91.9933 30.2163,92.3967 30.4657,92.69 C30.7297,92.9687 31.1037,93.108 31.5877,93.108 Z M48.2492,83.34 L47.8532,85.694 L44.5532,85.694 L44.5532,95 L41.4292,95 L41.4292,85.694 L37.9312,85.694 L37.9312,83.34 L48.2492,83.34 Z M60.9522,82.988 C63.6068,82.988 64.9342,85.0487 64.9342,89.17 C64.9342,90.4167 64.7655,91.5093 64.4282,92.448 C64.1055,93.372 63.6362,94.0907 63.0202,94.604 C62.4042,95.1027 61.6782,95.352 60.8422,95.352 C59.7862,95.352 58.9062,94.912 58.2022,94.032 L58.2022,99.488 L55.2542,99.84 L55.2542,94.032 C54.5502,94.912 53.6408,95.352 52.5262,95.352 C51.7195,95.352 51.0155,95.1027 50.4142,94.604 C49.8128,94.0907 49.3435,93.372 49.0062,92.448 C48.6835,91.5093 48.5222,90.4167 48.5222,89.17 C48.5222,87.2047 48.8522,85.6867 49.5122,84.616 C50.1868,83.5307 51.2062,82.988 52.5702,82.988 C53.6408,82.988 54.5355,83.3767 55.2542,84.154 L55.2542,78.346 L58.2022,78.698 L58.2022,84.22 C58.9062,83.3987 59.8228,82.988 60.9522,82.988 Z M53.4502,93.064 C54.1248,93.064 54.7262,92.6973 55.2542,91.964 L55.2542,86.332 C54.7115,85.628 54.1028,85.276 53.4282,85.276 C52.8562,85.276 52.4308,85.584 52.1522,86.2 C51.8735,86.8013 51.7342,87.7913 51.7342,89.17 C51.7342,91.766 52.3062,93.064 53.4502,93.064 Z M59.9842,93.064 C61.1575,93.064 61.7442,91.766 61.7442,89.17 C61.7442,87.7913 61.6048,86.8013 61.3262,86.2 C61.0475,85.584 60.6148,85.276 60.0282,85.276 C59.3682,85.276 58.7595,85.6353 58.2022,86.354 L58.2022,91.942 C58.4515,92.3233 58.7155,92.6093 58.9942,92.8 C59.2875,92.976 59.6175,93.064 59.9842,93.064 Z M72.3483,82.988 C74.0937,82.988 75.4577,83.538 76.4403,84.638 C77.423,85.7233 77.9143,87.234 77.9143,89.17 C77.9143,90.402 77.687,91.4873 77.2323,92.426 C76.7923,93.35 76.147,94.0687 75.2963,94.582 C74.4603,95.0953 73.4703,95.352 72.3263,95.352 C70.581,95.352 69.2097,94.8093 68.2123,93.724 C67.2297,92.624 66.7383,91.106 66.7383,89.17 C66.7383,87.938 66.9583,86.86 67.3983,85.936 C67.853,84.9973 68.4983,84.2713 69.3343,83.758 C70.185,83.2447 71.1897,82.988 72.3483,82.988 Z M72.3483,85.32 C71.5563,85.32 70.9623,85.6353 70.5663,86.266 C70.185,86.882 69.9943,87.85 69.9943,89.17 C69.9943,90.49 70.185,91.4653 70.5663,92.096 C70.9623,92.712 71.549,93.02 72.3263,93.02 C73.1037,93.02 73.683,92.712 74.0643,92.096 C74.4603,91.4653 74.6583,90.49 74.6583,89.17 C74.6583,87.85 74.4677,86.882 74.0863,86.266 C73.705,85.6353 73.1257,85.32 72.3483,85.32 Z M86.582,82.988 C88.0487,82.988 89.134,83.5307 89.838,84.616 C90.5567,85.6867 90.916,87.1973 90.916,89.148 C90.916,90.336 90.7327,91.3993 90.366,92.338 C89.9993,93.2767 89.464,94.0173 88.76,94.56 C88.0707,95.088 87.2493,95.352 86.296,95.352 C85.108,95.352 84.1473,94.934 83.414,94.098 L83.414,99.488 L80.29,99.84 L80.29,83.34 L83.04,83.34 L83.194,84.704 C83.634,84.132 84.1473,83.7067 84.734,83.428 C85.3353,83.1347 85.9513,82.988 86.582,82.988 Z M85.372,93.02 C86.8973,93.02 87.66,91.7367 87.66,89.17 C87.66,87.762 87.4913,86.7647 87.154,86.178 C86.8167,85.5913 86.3033,85.298 85.614,85.298 C85.174,85.298 84.7633,85.4373 84.382,85.716 C84.0153,85.98 83.6927,86.3393 83.414,86.794 L83.414,91.876 C83.9127,92.6387 84.5653,93.02 85.372,93.02 Z M105.825,95 L102.855,95 L102.525,90.512 C102.481,89.8667 102.459,89.2507 102.459,88.664 C102.459,88.2533 102.489,87.4027 102.547,86.112 L100.479,93.79 L97.8175,93.79 L95.8375,86.134 C95.8961,86.8967 95.9255,87.7253 95.9255,88.62 C95.9255,89.0453 95.9108,89.6687 95.8815,90.49 L95.6175,95 L92.6475,95 L93.6595,83.34 L97.3995,83.34 L99.159,91.062 L101.029,83.34 L104.791,83.34 L105.825,95 Z M117.065,91.766 C117.065,92.2207 117.131,92.558 117.263,92.778 C117.395,92.9833 117.615,93.1373 117.923,93.24 L117.263,95.308 C116.574,95.2493 116.009,95.088 115.569,94.824 C115.144,94.56 114.814,94.1493 114.579,93.592 C113.817,94.7653 112.651,95.352 111.081,95.352 C109.923,95.352 108.999,95.022 108.309,94.362 C107.635,93.6873 107.297,92.8147 107.297,91.744 C107.297,90.468 107.759,89.4927 108.683,88.818 C109.607,88.1433 110.935,87.806 112.665,87.806 L114.007,87.806 L114.007,87.234 C114.007,86.5153 113.846,86.0167 113.523,85.738 C113.201,85.4593 112.665,85.32 111.917,85.32 C111.096,85.32 110.069,85.5253 108.837,85.936 L108.133,83.846 C109.585,83.274 111.023,82.988 112.445,82.988 C114.029,82.988 115.195,83.3327 115.943,84.022 C116.691,84.6967 117.065,85.7087 117.065,87.058 L117.065,91.766 Z M111.939,93.108 C112.819,93.108 113.509,92.6753 114.007,91.81 L114.007,89.588 L112.973,89.588 C111.287,89.588 110.443,90.2187 110.443,91.48 C110.443,91.9933 110.568,92.3967 110.817,92.69 C111.081,92.9687 111.455,93.108 111.939,93.108 Z M129.188,79.886 C130.2,79.886 131.065,80.0547 131.784,80.392 C132.517,80.7147 133.067,81.162 133.434,81.734 C133.815,82.306 134.006,82.944 134.006,83.648 C134.006,84.5427 133.749,85.2907 133.236,85.892 C132.722,86.4787 132.011,86.8967 131.102,87.146 C132.099,87.2487 132.913,87.608 133.544,88.224 C134.174,88.84 134.49,89.698 134.49,90.798 C134.49,91.6487 134.27,92.4187 133.83,93.108 C133.404,93.7973 132.774,94.3473 131.938,94.758 C131.102,95.154 130.112,95.352 128.968,95.352 C126.87,95.352 125.228,94.6187 124.04,93.152 L125.734,91.524 C126.232,92.0227 126.724,92.382 127.208,92.602 C127.692,92.822 128.22,92.932 128.792,92.932 C129.554,92.932 130.156,92.7267 130.596,92.316 C131.05,91.9053 131.278,91.3333 131.278,90.6 C131.278,89.808 131.065,89.236 130.64,88.884 C130.214,88.532 129.576,88.356 128.726,88.356 L127.516,88.356 L127.89,86.156 L128.704,86.156 C129.393,86.156 129.943,85.9727 130.354,85.606 C130.764,85.2393 130.97,84.726 130.97,84.066 C130.97,83.494 130.779,83.0467 130.398,82.724 C130.031,82.4013 129.525,82.24 128.88,82.24 C128.322,82.24 127.809,82.3427 127.34,82.548 C126.87,82.7533 126.408,83.076 125.954,83.516 L124.392,81.822 C125.756,80.5313 127.354,79.886 129.188,79.886 Z M147.99,79.776 L143.612,95 L139.674,95 L135.142,79.776 L138.596,79.776 L141.698,92.316 L144.69,79.776 L147.99,79.776 Z" id="Shape" fill="#FFFFFF" fill-rule="nonzero"></path>
        </g>
    </g>
</svg>