<svg fill="none" height="29" viewBox="0 0 26 29" width="26" xmlns="http://www.w3.org/2000/svg"><path clip-rule="evenodd" d="m4.61825 3.45249c.63113-1.61452 2.60503-3.45249 5.95435-3.45249.827 0 1.6061.214686 2.1067.858742.0327.042278.0609.090153.0886.137223.0111.018785.0221.037435.0333.055555.0111-.01812.0221-.03678.0332-.055562.0277-.047069.056-.09494.0886-.137216.5006-.644056 1.2797-.858742 2.1067-.858742 3.3493 0 5.3232 1.83797 5.9544 3.45249 1.728.32422 3.2862 1.48966 4.074 3.31229.8096 1.87083.7748 4.38792-.5049 7.22042.7682.953 1.2122 2.1951.9924 3.435-.2176 1.2355-1.0969 2.3747-2.5767 3.0494.272.6791.433 1.3144.4004 1.8752-.0413.7098-.333 1.3144-.7835 1.7525-.8226.7974-2.0588 1.0603-3.308 1.1041-.3852 1.0362-1.0729 1.7876-1.8455 2.2082-.877.4776-1.7802.6353-2.4026.6309-.9141-.0065-1.7215-.4425-2.2285-1.1216-.5071.6813-1.3124 1.1216-2.2286 1.1216l-.0528.0001c-.56226.0003-1.43708.0008-2.29759-.3155-.78565-.2892-1.50818-.9705-1.89774-1.9979-1.31884-.092-2.58328-.6309-3.36022-1.6123-.74865-.9442-.94016-2.2871-.34821-3.6628-1.46247-.6791-2.306881-1.8227-2.507101-3.0494-.2045727-1.2421.215454-2.4667.940161-3.4175-1.279665-2.8325-1.314486-5.34959-.5049-7.22042.78782-1.82263 2.34606-2.98807 4.07405-3.31229zm7.18905-1.91032c-.2416-.30888-.5658-.42061-1.2361-.42061-3.1252 0-4.74873 1.90588-5.04906 2.96179l-.08705.3505-.38303.05258c-1.45595.17744-2.79438 1.14134-3.48209 2.73395-.626777 1.44803-.711654 3.43712.26116 5.83592.65071-.5498 1.77804-1.2793 3.1687-1.2793 2.36564 0 3.72583 1.2793 3.72583 1.2793.16758.1315.2481.3483.20458.5586-.04353.2082-.2024.3768-.40915.4294-.20457.0526-.42438-.0175-.56149-.1818 0 0-.97498-.9639-2.95977-.9639-1.5713 0-2.92496 1.4896-2.92496 1.4896l-.01741.0176c-.01088.0131-.02176.0241-.03482.035-.63113.712-.97934 1.8008-.81829 2.7866.1654 1.0033.78782 1.9299 2.29818 2.436l.6616.2103-.36562.5958c-.73995 1.2421-.56149 2.1929.03482 2.9443s1.7084 1.2618 2.8379 1.2618h.43526l.10447.4206c.23286.942.74864 1.3407 1.39283 1.5773s1.41241.2454 1.96741.2454c.9967 0 1.6714-.6594 1.6714-1.6825v-21.50356c0-1.21144-.1937-1.88178-.4353-2.19067zm3.2237-.42061c3.1252 0 4.7487 1.90588 5.049 2.96179l.0871.3505.383.05258c1.4559.17744 2.7944 1.14134 3.4821 2.73395.6159 1.42394.7116 3.36702-.2089 5.71322-.1633.0767-.2786.2257-.3134.4031 0 0-.1132.5214-.7313 1.1216-.618.6003-1.7345 1.2443-3.8477 1.2443-.2002-.0021-.3874.103-.4896.2783-.1002.1752-.1002.3899 0 .5652.1022.1752.2894.2804.4896.2782 2.3439 0 3.789-.758 4.6138-1.5598.1415-.1358.259-.2672.3656-.4031.4614.6748.6834 1.5357.5397 2.3484-.1762.999-.8378 1.9453-2.3504 2.4536l-.6093.1928.2785.5783c.3874.7821.5136 1.3933.4875 1.8401-.0261.4469-.1806.7536-.4527 1.0165-.5331.517-1.6213.8128-2.803.8237-.7139-.2563-1.2688-.6243-1.654-1.1216-.4026-.5214-.6442-1.2158-.6442-2.2433.0043-.173-.0718-.3373-.2046-.4469-.1306-.1095-.3068-.1511-.4744-.1139-.259.0592-.4418.2936-.4353.5608 0 1.2159.3156 2.2039.888 2.9443.4592.5937 1.0685.9989 1.7584 1.2969-.2873.6813-.7813 1.1326-1.3406 1.4371-.6768.368-1.4538.4929-1.8629.4907-1.0011-.0066-1.6714-.6594-1.6714-1.6825v-21.50356c0-1.21144.1937-1.88178.4352-2.19067.2416-.30888.5659-.42061 1.2362-.42061zm-5.69089 4.48643c.02176-.00657.0457-.01314.06964-.01752.15887-.01534.31774.03943.43526.15115.11534.10954.18059.26507.17409.42718 0 .46662-.18497 1.13039-.78346 1.73501-.59848.60463-1.61264 1.06905-3.11647 1.06905-.20022.00219-.38738-.10296-.48967-.27822-.10011-.17525-.10011-.38994 0-.56519.10229-.17525.28945-.2804.48967-.27821 1.28185 0 1.94127-.3768 2.31559-.75359.37433-.3768.47008-.83465.47008-.92885-.00653-.26726.17628-.50166.43527-.56081zm7.86709 1.10409c-.0239.00439-.0479.01096-.0696.01753-.259.05915-.4418.29355-.4353.56081 0 .74702.3308 1.69996 1.1317 2.50612s2.0871 1.41956 3.8825 1.41956c.2002.0022.3874-.103.4897-.2782.1001-.1753.1001-.39 0-.5652-.1023-.1753-.2895-.2804-.4897-.2782-1.5473 0-2.4897-.50826-3.0816-1.10412-.592-.59586-.8183-1.32536-.8183-1.69996.0065-.16211-.0588-.31765-.1741-.42718-.1176-.11172-.2764-.16649-.4353-.15116zm-12.88216 10.69062c-.0087-.3089.23287-.5696.53973-.5783h.05223c.05876-.0088.11534-.0088.1741 0 1.85204.311 2.87273 1.4699 3.34281 2.5762s.47008 2.1928.47008 2.4711c.00218.2015-.10228.3899-.27639.4929-.1741.1007-.38738.1007-.56149 0-.1741-.103-.27856-.2914-.27639-.4929 0-.2804-.01741-1.1589-.38303-2.0155-.36562-.8565-1.0098-1.6605-2.5071-1.9102-.30686.0087-.56584-.2344-.57455-.5433z" fill="#fff" fill-rule="evenodd"/></svg>