<svg width="403" height="134" viewBox="0 0 403 134" fill="none" xmlns="http://www.w3.org/2000/svg">
<path fill-rule="evenodd" clip-rule="evenodd" d="M57.7033 51.0767L64.6309 39.0777L52.7134 18.4359C50.8725 15.2474 46.7954 14.1549 43.6068 15.9958C40.4183 17.8367 39.3258 21.9139 41.1667 25.1024L57.0028 52.5314C57.1965 52.0369 57.4296 51.5506 57.7033 51.0767ZM61.1674 53.0767L66.9403 43.0777L66.9405 43.0779L81.1672 18.4366C83.0081 15.2481 87.0852 14.1556 90.2738 15.9965C93.4623 17.8374 94.5548 21.9146 92.7139 25.1031L72.7144 59.7432C71.8811 61.1866 70.5895 62.2004 69.1295 62.7071C68.5479 62.9101 67.9505 63.0277 67.3536 63.0644C66.2987 63.1307 65.2184 62.9473 64.2044 62.4894C64.1876 62.4819 64.1709 62.4742 64.1541 62.4666C63.9695 62.3813 63.7871 62.287 63.6075 62.1833C62.981 61.8216 62.4355 61.3736 61.9772 60.863C61.9227 60.8021 61.8691 60.74 61.8165 60.6767C61.5639 60.3732 61.3406 60.0498 61.148 59.7109L61.1329 59.6848C60.0159 57.6995 59.9458 55.1925 61.1674 53.0767Z" fill="#EBBB28"/>
<path d="M85.4038 66.6741L92.3312 78.6727H116.168C119.85 78.6727 122.835 75.688 122.835 72.0062C122.835 68.3244 119.85 65.3397 116.168 65.3397H84.4939C84.8254 65.7548 85.13 66.2 85.4038 66.6741Z" fill="#1A66BE"/>
<path d="M72.5268 66.422C72.5482 66.408 72.5696 66.3942 72.5911 66.3805C72.6704 66.3302 72.751 66.2813 72.8331 66.234C73.4598 65.8721 74.1209 65.6236 74.7926 65.4821C74.8228 65.4757 74.853 65.4696 74.8833 65.4637C75.3087 65.3802 75.7379 65.3394 76.1649 65.3397L76.1673 65.3397C76.1906 65.3397 76.2138 65.3399 76.237 65.3402C78.5139 65.3663 80.7189 66.5591 81.94 68.6741L101.939 103.314C103.78 106.503 102.688 110.58 99.4993 112.421C96.3108 114.262 92.2336 113.169 90.3927 109.981L70.3933 75.3406C68.6127 72.2565 69.5764 68.341 72.5268 66.422Z" fill="#1A66BE"/>
<path d="M11.168 72.0062C11.168 68.3244 14.1527 65.3397 17.8345 65.3397H57.8334C61.5152 65.3397 64.4999 68.3244 64.4999 72.0062C64.4999 75.688 61.5152 78.6727 57.8334 78.6727H17.8345C14.1527 78.6727 11.168 75.688 11.168 72.0062Z" fill="#1DAA5D"/>
<path d="M43.9803 82.6727L32.063 103.314C30.2221 106.503 31.3145 110.58 34.5031 112.421C37.6916 114.262 41.7688 113.169 43.6097 109.981L59.4459 82.5516C58.9199 82.6314 58.3814 82.6727 57.8332 82.6727H43.9803Z" fill="#1DAA5D"/>
<path d="M176.001 51.84L176.841 45.54H146.061V51.84H157.221V87H165.201V51.84H176.001Z" fill="#303643"/>
<path d="M196.897 54.36C193.657 54.36 190.237 55.86 187.717 59.16L187.297 55.26H180.577V100.08L188.257 99.24V84.42C190.237 86.76 192.997 87.9 196.237 87.9C204.277 87.9 208.777 80.76 208.777 71.04C208.777 60.9 205.297 54.36 196.897 54.36ZM194.077 82.02C191.677 82.02 189.757 80.94 188.257 78.72V64.44C189.757 61.98 191.977 60.12 194.617 60.12C198.577 60.12 200.737 63.06 200.737 71.1C200.737 78.78 198.277 82.02 194.077 82.02Z" fill="#303643"/>
<path d="M241.579 87V55.26H233.179L221.539 79.14C221.959 77.52 222.559 72.72 222.559 67.98V55.26H215.119V87H223.459L235.159 63.06C234.799 64.68 234.199 69.12 234.199 74.28V87H241.579Z" fill="#303643"/>
<path d="M267.843 69.66C272.583 68.58 274.443 66.18 274.443 62.76C274.443 57.24 269.223 54.36 261.183 54.36C257.403 54.36 253.563 54.84 249.603 55.62V87H262.143C270.123 87 276.003 84.18 276.003 77.52C276.003 72.9 273.423 70.26 267.843 69.66ZM261.183 59.58C264.843 59.58 266.823 60.84 266.823 63.66C266.823 66.78 264.723 67.92 261.603 67.92H257.283V59.88C258.603 59.7 259.743 59.58 261.183 59.58ZM261.363 81.66H257.283V72.48H262.083C265.563 72.48 268.023 73.5 268.023 77.1C268.023 80.94 264.663 81.66 261.363 81.66Z" fill="#303643"/>
<path d="M308.437 87V55.26H300.037L288.397 79.14C288.817 77.52 289.417 72.72 289.417 67.98V55.26H281.977V87H290.317L302.017 63.06C301.657 64.68 301.057 69.12 301.057 74.28V87H308.437Z" fill="#303643"/>
<path d="M331.821 87.12L342.141 55.26H334.221L327.021 81.9L320.121 55.26H311.961L322.041 87H324.681C322.881 91.5 320.841 93.54 314.541 94.5L315.321 100.08C324.741 99.36 329.421 94.56 331.821 87.12Z" fill="#303643"/>
<path d="M378.086 87L375.266 55.26H365.846L360.266 76.74L355.106 55.26H345.746L342.986 87H350.306L351.146 73.98C351.326 70.2 351.326 66.36 351.086 62.4L356.906 83.64H363.566L369.626 62.34C369.446 66.9 369.446 70.2 369.746 73.98L370.766 87H378.086Z" fill="#303643"/>
</svg>
