<svg width="38" height="23" viewBox="0 0 38 23" fill="none" xmlns="http://www.w3.org/2000/svg">
<path d="M2.01205 8.68013L13.1917 3.1977C14.1296 2.75458 15.2797 3.08064 15.7856 3.93308C16.2662 4.79782 15.9125 5.85818 14.9879 6.32454L3.80832 11.801C2.87206 12.2451 1.72251 11.9218 1.21443 11.0716C0.733804 10.2068 1.08746 9.14649 2.01205 8.68013Z" fill="#DFDFDE"/>
<path d="M16.947 0.856556L18.3328 0.186261C19.2236 -0.231223 20.3159 0.0759702 20.7963 0.879087C21.2528 1.6938 20.9169 2.6928 20.0388 3.13218L18.6777 3.81374C17.7869 4.23122 16.6945 3.92403 16.2141 3.12091C15.7455 2.30934 16.0709 1.30408 16.947 0.856556Z" fill="#DB3832"/>
<path d="M11.0196 12.6538L22.1921 7.19679C23.1294 6.75571 24.2788 7.08026 24.7843 7.92876C25.2656 8.78795 24.9153 9.84289 23.9937 10.3092L12.8277 15.8019C11.892 16.2439 10.7432 15.9222 10.2354 15.0759C9.98922 14.6593 9.93352 14.1699 10.0806 13.7156C10.2277 13.2612 10.5655 12.8793 11.0196 12.6538Z" fill="#F1CE48"/>
<path d="M0.937409 16.5847L5.36572 14.2035C6.24553 13.7474 7.32437 14.083 7.79885 14.9603C8.2497 15.8502 7.91796 16.9415 7.05066 17.4215L2.63452 19.7965C1.75471 20.2526 0.675874 19.917 0.201385 19.0397C-0.247415 18.1545 0.0781033 17.0687 0.937409 16.5847Z" fill="#DFDFDE"/>
<path d="M28.0577 4.07111L35.0651 1.17417C36.0453 0.783784 37.2473 1.07104 37.7759 1.82203C38.2782 2.58387 37.9086 3.51803 36.9423 3.92889L29.9349 6.82583C28.9547 7.21622 27.7527 6.92896 27.2241 6.17797C26.7218 5.41613 27.0914 4.48197 28.0577 4.07111Z" fill="#00AAD3"/>
<path d="M10.0051 19.6734L21.1903 14.1975C22.1287 13.7549 23.2794 14.0805 23.7855 14.932C24.2663 15.7957 23.9125 16.8548 22.9874 17.3206L11.8152 22.8025C10.8768 23.2451 9.7261 22.9195 9.22001 22.068C8.73279 21.206 9.08108 20.1436 10.0051 19.6734Z" fill="#DFDFDE"/>
<path d="M27.0616 11.2976L31.0543 9.22017C32.0381 8.72668 33.2445 9.0898 33.7751 10.0391C34.2792 11.0022 33.9083 12.1831 32.9384 12.7024L28.9457 14.7798C27.9619 15.2733 26.7555 14.9102 26.2249 13.9609C25.7208 12.9978 26.0917 11.8169 27.0616 11.2976Z" fill="#97BF54"/>
</svg>
