<?xml version="1.0" encoding="UTF-8"?>
<svg width="865px" height="821px" viewBox="0 0 865 821" version="1.1" xmlns="http://www.w3.org/2000/svg" xmlns:xlink="http://www.w3.org/1999/xlink">
    <!-- Generator: Sketch 52.4 (67378) - http://www.bohemiancoding.com/sketch -->
    <title>pattern</title>
    <desc>Created with Sketch.</desc>
    <g id="Brand" stroke="none" stroke-width="1" fill="none" fill-rule="evenodd">
        <g id="02.4-Style" transform="translate(-369.000000, -279.000000)">
            <g id="pattern" transform="translate(369.000000, 279.000000)">
                <path d="M553.0093,605.9637 L550.9703,603.9247 C550.4063,603.3617 550.4073,602.4487 550.9703,601.8857 L553.0543,599.8017 C553.6163,599.2387 553.6163,598.3257 553.0553,597.7637 L553.0543,597.7637 C552.4913,597.1997 551.5783,597.1997 551.0163,597.7637 L548.9313,599.8477 C548.3683,600.4097 547.4563,600.4097 546.8933,599.8477 L544.8543,597.8097 C544.2913,597.2457 543.3793,597.2457 542.8163,597.8097 L542.7923,597.8317 C542.2313,598.3957 542.2313,599.3077 542.7933,599.8707 L544.8313,601.9087 C545.3953,602.4727 545.3953,603.3847 544.8313,603.9477 L542.7473,606.0317 C542.1853,606.5957 542.1853,607.5077 542.7473,608.0707 C543.3113,608.6337 544.2233,608.6337 544.7863,608.0707 L546.8703,605.9857 C547.4343,605.4237 548.3463,605.4237 548.9093,605.9857 L550.9463,608.0257 C551.5103,608.5877 552.4223,608.5877 552.9863,608.0257 L553.0083,608.0017 C553.5713,607.4397 553.5713,606.5257 553.0093,605.9637" id="Fill-1" fill="#C0C2C4"></path>
                <path d="M666.1206,295.2382 C659.6356,295.2382 654.3596,289.9632 654.3596,283.4762 C654.3596,276.9902 659.6356,271.7132 666.1206,271.7132 C672.6066,271.7132 677.8826,276.9902 677.8826,283.4762 C677.8826,289.9632 672.6066,295.2382 666.1206,295.2382 M666.1206,275.2412 C661.5816,275.2412 657.8876,278.9352 657.8876,283.4762 C657.8876,288.0162 661.5816,291.7102 666.1206,291.7102 C670.6606,291.7102 674.3536,288.0162 674.3536,283.4762 C674.3536,278.9352 670.6606,275.2412 666.1206,275.2412" id="Fill-3" fill="#84C455"></path>
                <path d="M844.584,503 L864.733,526.433 L825,520.69 L844.584,503 Z M855.963,521.77 L844.08,507.951 L832.535,518.385 L855.963,521.77 Z" id="Fill-5" fill="#795EA8"></path>
                <path d="M823.190023,313.240033 L819.590023,313.261033 C818.595023,313.265033 817.786023,312.465033 817.780023,311.470033 L817.759023,307.789033 C817.753023,306.796033 816.943023,305.994033 815.950023,306.000033 L815.949023,306.000033 C814.955023,306.005033 814.154023,306.815033 814.160023,307.810033 L814.179023,311.491033 C814.185023,312.485033 813.383023,313.296033 812.390023,313.301033 L808.791023,313.321033 C807.795023,313.326033 806.995023,314.136033 807.000023,315.131033 L807.000023,315.172033 C807.005023,316.165033 807.816023,316.967033 808.810023,316.961033 L812.410023,316.941033 C813.405023,316.935033 814.214023,317.737033 814.220023,318.730033 L814.242023,322.411033 C814.247023,323.406033 815.057023,324.207033 816.051023,324.201033 C817.044023,324.196033 817.846023,323.386033 817.840023,322.391033 L817.820023,318.711033 C817.815023,317.717033 818.616023,316.906033 819.610023,316.901033 L823.210023,316.881033 C824.205023,316.875033 825.005023,316.064033 825.000023,315.071033 L825.000023,315.030033 C824.994023,314.036033 824.184023,313.234033 823.190023,313.240033" id="Fill-7" fill="#19C1E9"></path>
                <path d="M738.8862,574.1122 C738.8862,578.0182 735.7202,581.1852 731.8142,581.1852 C727.9072,581.1852 724.7402,578.0182 724.7402,574.1122 C724.7402,570.2062 727.9072,567.0402 731.8142,567.0402 C735.7202,567.0402 738.8862,570.2062 738.8862,574.1122" id="Fill-9" fill="#4F4949"></path>
                <path d="M315.5825,562.3065 L320.6725,542.4805 L298.7645,557.5475 L315.5825,562.3065 Z M316.1235,548.9905 L313.5935,558.8475 L305.2315,556.4805 L316.1235,548.9905 Z" id="Fill-11" fill="#D74738"></path>
                <path d="M334.9419,658.6795 L331.7369,655.4745 C330.8519,654.5895 330.8529,653.1555 331.7369,652.2705 L335.0129,648.9935 C335.8979,648.1095 335.8979,646.6755 335.0139,645.7905 L335.0129,645.7905 C334.1289,644.9065 332.6939,644.9065 331.8089,645.7905 L328.5329,649.0675 C327.6479,649.9515 326.2139,649.9515 325.3299,649.0675 L322.1259,645.8635 C321.2409,644.9775 319.8059,644.9775 318.9209,645.8635 L318.8849,645.8995 C318.0019,646.7835 318.0019,648.2185 318.8859,649.1035 L322.0899,652.3075 C322.9739,653.1925 322.9739,654.6265 322.0899,655.5105 L318.8139,658.7865 C317.9289,659.6715 317.9289,661.1065 318.8139,661.9915 C319.6989,662.8755 321.1319,662.8755 322.0179,661.9915 L325.2939,658.7145 C326.1779,657.8295 327.6129,657.8295 328.4979,658.7145 L331.7019,661.9195 C332.5869,662.8035 334.0209,662.8035 334.9059,661.9195 L334.9409,661.8835 C335.8259,660.9985 335.8259,659.5645 334.9419,658.6795" id="Fill-13" fill="#94C03D"></path>
                <path d="M840.279,162.039378 L838.35,162.024378 C837.721,162.018378 837.173,161.949378 836.721,161.817378 C836.309,161.699378 835.969,161.502378 835.683,161.218378 C835.39,160.930378 835.168,160.517378 835.021,159.991378 C834.865,159.421378 834.787,158.699378 834.794,157.845378 L834.818,154.751378 C834.827,153.729378 834.715,152.847378 834.483,152.128378 C834.249,151.406378 833.9,150.726378 833.444,150.100378 C833.024,149.534378 832.486,149.011378 831.841,148.547378 C831.417,148.239378 830.97,147.964378 830.509,147.726378 C830.972,147.499378 831.425,147.233378 831.861,146.931378 C832.523,146.472378 833.07,145.955378 833.485,145.398378 C833.947,144.785378 834.306,144.112378 834.551,143.393378 C834.795,142.678378 834.924,141.797378 834.931,140.774378 L834.957,137.679378 C834.964,136.829378 835.051,136.110378 835.219,135.539378 C835.373,135.015378 835.602,134.608378 835.899,134.328378 C836.198,134.045378 836.546,133.853378 836.96,133.740378 C837.411,133.615378 837.957,133.556378 838.581,133.560378 L840.507,133.578378 L840.538,130.020378 L837.986,130.000378 C835.783,129.982378 834.019,130.607378 832.74,131.856378 C831.455,133.111378 830.794,134.957378 830.773,137.344378 L830.754,139.977378 C830.747,140.756378 830.667,141.549378 830.516,142.336378 C830.38,143.068378 830.116,143.703378 829.735,144.220378 C829.359,144.730378 828.883,145.104378 828.279,145.364378 C827.659,145.629378 826.873,145.759378 825.936,145.749378 L825.034,145.747378 L825,149.618378 L825.906,149.622378 C826.854,149.632378 827.632,149.775378 828.242,150.048378 C828.83,150.311378 829.313,150.705378 829.677,151.218378 C830.054,151.747378 830.3,152.368378 830.43,153.119378 C830.568,153.902378 830.633,154.694378 830.626,155.477378 L830.606,158.110378 C830.588,160.498378 831.218,162.354378 832.482,163.628378 C833.577,164.734378 835.048,165.372378 836.863,165.532378 C837.133,165.556378 837.413,165.570378 837.7,165.572378 L840.249,165.593378 L840.279,162.039378 Z" id="Fill-15" fill="#D0D2D3"></path>
                <path d="M603.7495,178.911 L601.2175,181.471 C600.5185,182.178 599.3795,182.184 598.6725,181.485 L596.0555,178.897 C595.3485,178.198 594.2085,178.204 593.5105,178.911 L593.5095,178.912 C592.8105,179.618 592.8155,180.758 593.5235,181.457 L596.1415,184.045 C596.8475,184.744 596.8535,185.884 596.1545,186.591 L593.6235,189.15 C592.9245,189.857 592.9315,190.997 593.6375,191.696 L593.6665,191.725 C594.3735,192.423 595.5135,192.417 596.2115,191.71 L598.7435,189.151 C599.4425,188.443 600.5825,188.437 601.2885,189.136 L603.9055,191.724 C604.6125,192.423 605.7525,192.417 606.4515,191.709 C607.1505,191.003 607.1445,189.863 606.4375,189.164 L603.8205,186.577 C603.1125,185.877 603.1065,184.737 603.8065,184.031 L606.3375,181.471 C607.0365,180.764 607.0295,179.624 606.3225,178.925 L606.2945,178.896 C605.5875,178.198 604.4475,178.204 603.7495,178.911" id="Fill-17" fill="#795EA8"></path>
                <path d="M255.0288,353.2918 C253.6668,353.8348 251.9118,354.0498 250.0668,353.9548 C246.8958,353.7908 244.2768,352.8368 239.0758,350.2068 L237.4758,349.4058 C234.8738,348.1468 233.0638,347.4348 231.0158,347.3288 C228.0478,347.1758 226.4708,347.9188 222.3868,351.5008 L218.1228,346.6628 C222.2058,343.0808 223.7978,342.0318 226.4148,341.0358 C227.7768,340.4928 229.6358,340.2838 231.3758,340.3728 C234.4448,340.5318 237.4798,341.4008 242.2638,344.1168 L243.8618,345.0168 C246.3518,346.4768 248.2788,346.8888 250.3268,346.9938 C253.2938,347.1468 254.8728,346.4038 258.9558,342.8218 L263.3248,347.6648 C259.2398,351.2478 257.6448,352.2958 255.0288,353.2918" id="Fill-19" fill="#D74738"></path>
                <path d="M603.3911,417.2479 C603.3911,419.8259 601.3011,421.9159 598.7231,421.9159 C596.1441,421.9159 594.0541,419.8259 594.0541,417.2479 C594.0541,414.6699 596.1441,412.5789 598.7231,412.5789 C601.3011,412.5789 603.3911,414.6699 603.3911,417.2479" id="Fill-21" fill="#F4CB23"></path>
                <path d="M223.8218,712.0516 L222.2268,710.4566 C221.7868,710.0166 221.7878,709.3026 222.2268,708.8626 L223.8578,707.2326 C224.2978,706.7916 224.2978,706.0776 223.8578,705.6376 C223.4178,705.1976 222.7038,705.1976 222.2628,705.6376 L220.6338,707.2686 C220.1928,707.7076 219.4788,707.7076 219.0388,707.2686 L217.4438,705.6736 C217.0048,705.2336 216.2908,705.2336 215.8488,705.6736 L215.8318,705.6916 C215.3918,706.1316 215.3918,706.8456 215.8318,707.2856 L217.4258,708.8806 C217.8668,709.3216 217.8668,710.0346 217.4258,710.4756 L215.7968,712.1056 C215.3558,712.5456 215.3558,713.2586 215.7968,713.6986 C216.2368,714.1396 216.9508,714.1396 217.3908,713.6986 L219.0208,712.0696 C219.4618,711.6286 220.1758,711.6286 220.6158,712.0696 L222.2098,713.6636 C222.6498,714.1046 223.3638,714.1046 223.8038,713.6636 L223.8218,713.6466 C224.2618,713.2056 224.2618,712.4916 223.8218,712.0516" id="Fill-23" fill="#C0C2C4"></path>
                <polygon id="Fill-25" fill="#D0D2D3" points="702.5679 692.7411 691.0629 729.2161 685.4949 729.2161 696.9419 692.7411"></polygon>
                <path d="M388.613,439.738398 C370.076,439.738398 355,424.662398 355,406.124398 C355,387.586398 370.076,372.504398 388.613,372.504398 C407.151,372.504398 422.227,387.586398 422.227,406.124398 C422.227,424.662398 407.151,439.738398 388.613,439.738398 M388.613,382.586398 C375.638,382.586398 365.08,393.144398 365.08,406.124398 C365.08,419.098398 375.638,429.656398 388.613,429.656398 C401.589,429.656398 412.145,419.098398 412.145,406.124398 C412.145,393.144398 401.589,382.586398 388.613,382.586398" id="Fill-27" fill="#F4CB23"></path>
                <polygon id="Fill-29" fill="#D0D2D3" points="443.312 677.0194 437.225 674.4934 437.225 673.4504 443.312 670.9234 443.312 672.2314 439.05 673.9754 443.312 675.7104"></polygon>
                <polygon id="Fill-31" fill="#D0D2D3" points="449.0425 669.7098 446.2315 678.6208 444.8705 678.6208 447.6675 669.7098"></polygon>
                <polygon id="Fill-33" fill="#D0D2D3" points="457.0015 674.493 450.9145 677.019 450.9145 675.711 455.1765 673.972 450.9145 672.231 450.9145 670.924 457.0015 673.45"></polygon>
                <path d="M540.6343,820.4657 C505.7733,820.4657 477.4213,792.1147 477.4213,757.2537 C477.4213,722.3927 505.7733,694.0287 540.6343,694.0287 C575.4953,694.0287 603.8473,722.3927 603.8473,757.2537 C603.8473,792.1147 575.4953,820.4657 540.6343,820.4657 M540.6343,712.9887 C516.2353,712.9887 496.3783,732.8447 496.3783,757.2537 C496.3783,781.6527 516.2353,801.5067 540.6343,801.5067 C565.0343,801.5067 584.8873,781.6527 584.8873,757.2537 C584.8873,732.8447 565.0343,712.9887 540.6343,712.9887" id="Fill-35" fill="#10C0E8"></path>
                <path d="M190.5024,626.9481 C159.3424,626.9481 134.0004,601.6061 134.0004,570.4451 C134.0004,539.2841 159.3424,513.9311 190.5024,513.9311 C221.6634,513.9311 247.0054,539.2841 247.0054,570.4451 C247.0054,601.6061 221.6634,626.9481 190.5024,626.9481 M190.5024,530.8791 C168.6924,530.8791 150.9434,548.6281 150.9434,570.4451 C150.9434,592.2551 168.6924,610.0011 190.5024,610.0011 C212.3124,610.0011 230.0584,592.2551 230.0584,570.4451 C230.0584,548.6281 212.3124,530.8791 190.5024,530.8791" id="Fill-37" fill="#E5E6E7"></path>
                <polygon id="Fill-39" fill="#D0D2D3" points="680.2661 437.3006 668.7611 473.7756 663.1931 473.7756 674.6391 437.3006"></polygon>
                <path d="M225.5229,470.159 C225.5229,472.176 223.8879,473.81 221.8719,473.81 C219.8539,473.81 218.2199,472.176 218.2199,470.159 C218.2199,468.142 219.8539,466.508 221.8719,466.508 C223.8879,466.508 225.5229,468.142 225.5229,470.159" id="Fill-65" fill="#F4CB23"></path>
                <path d="M515.8013,416.0545 L514.4553,416.0435 C514.0183,416.0385 513.6343,415.9915 513.3203,415.9005 C513.0323,415.8175 512.7953,415.6805 512.5963,415.4815 C512.3923,415.2805 512.2373,414.9925 512.1343,414.6255 C512.0253,414.2285 511.9713,413.7255 511.9763,413.1285 L511.9923,410.9715 C511.9983,410.2585 511.9203,409.6435 511.7583,409.1425 C511.5953,408.6385 511.3523,408.1635 511.0343,407.7285 C510.7413,407.3325 510.3653,406.9685 509.9163,406.6445 C509.6203,406.4305 509.3093,406.2385 508.9883,406.0725 C509.3113,405.9135 509.6253,405.7285 509.9303,405.5175 C510.3923,405.1975 510.7733,404.8375 511.0633,404.4495 C511.3853,404.0215 511.6353,403.5515 511.8073,403.0505 C511.9763,402.5515 512.0663,401.9375 512.0713,401.2235 L512.0893,399.0655 C512.0933,398.4725 512.1553,397.9715 512.2723,397.5735 C512.3793,397.2075 512.5393,396.9235 512.7463,396.7285 C512.9543,396.5315 513.1973,396.3975 513.4863,396.3185 C513.8013,396.2315 514.1813,396.1895 514.6163,396.1935 L515.9603,396.2045 L515.9823,393.7245 L514.2013,393.7095 C512.6653,393.6985 511.4363,394.1335 510.5433,395.0045 C509.6473,395.8795 509.1863,397.1665 509.1713,398.8315 L509.1573,400.6675 C509.1533,401.2115 509.0973,401.7645 508.9923,402.3135 C508.8973,402.8245 508.7133,403.2665 508.4473,403.6275 C508.1853,403.9825 507.8533,404.2435 507.4323,404.4245 C507.0003,404.6095 506.4513,404.7005 505.7983,404.6945 L505.1683,404.6925 L505.1453,407.3915 L505.7773,407.3945 C506.4393,407.4015 506.9813,407.5015 507.4053,407.6925 C507.8173,407.8755 508.1543,408.1495 508.4073,408.5075 C508.6703,408.8765 508.8413,409.3095 508.9323,409.8325 C509.0293,410.3785 509.0733,410.9325 509.0693,411.4775 L509.0553,413.3145 C509.0413,414.9805 509.4823,416.2745 510.3643,417.1625 C511.1263,417.9335 512.1533,418.3785 513.4183,418.4905 C513.6083,418.5065 513.8023,418.5175 514.0023,418.5185 L515.7803,418.5335 L515.8013,416.0545 Z" id="Fill-69" fill="#D0D2D3"></path>
                <path d="M630.44,98.9078 C603.174,98.9078 581,76.7338 581,49.4678 C581,22.2018 603.174,0.0188 630.44,0.0188 C657.706,0.0188 679.879,22.2018 679.879,49.4678 C679.879,76.7338 657.706,98.9078 630.44,98.9078 M630.44,14.8468 C611.356,14.8468 595.826,30.3768 595.826,49.4678 C595.826,68.5518 611.356,84.0788 630.44,84.0788 C649.523,84.0788 665.05,68.5518 665.05,49.4678 C665.05,30.3768 649.523,14.8468 630.44,14.8468" id="Fill-70" fill="#E5E6E7"></path>
                <path d="M540.2397,332.3114 L571.1387,331.7864 L541.3327,358.6794 L540.2397,332.3114 Z M561.9477,335.5514 L543.7257,335.8634 L544.3747,351.4104 L561.9477,335.5514 Z" id="Fill-71" fill="#10C0E8"></path>
                <polygon id="Fill-72" fill="#F4CB23" points="384.0981 202.4271 372.5931 238.9011 367.0251 238.9011 378.4721 202.4271"></polygon>
                <path d="M602.7153,531.076 C601.5893,531.524 600.1393,531.701 598.6143,531.624 C595.9943,531.487 593.8303,530.7 589.5323,528.526 L588.2123,527.865 C586.0613,526.824 584.5673,526.235 582.8733,526.148 C580.4213,526.021 579.1193,526.636 575.7433,529.596 L572.2213,525.598 C575.5943,522.638 576.9093,521.771 579.0723,520.949 C580.1973,520.501 581.7343,520.327 583.1713,520.401 C585.7073,520.532 588.2153,521.251 592.1683,523.494 L593.4873,524.238 C595.5453,525.444 597.1383,525.784 598.8293,525.872 C601.2803,525.998 602.5863,525.385 605.9593,522.425 L609.5693,526.426 C606.1943,529.387 604.8763,530.253 602.7153,531.076" id="Fill-73" fill="#10C0E8"></path>
                <path d="M280.6645,259.3212 C280.6645,261.8992 278.5745,263.9892 275.9965,263.9892 C273.4175,263.9892 271.3275,261.8992 271.3275,259.3212 C271.3275,256.7422 273.4175,254.6522 275.9965,254.6522 C278.5745,254.6522 280.6645,256.7422 280.6645,259.3212" id="Fill-86" fill="#10C0E8"></path>
                <g id="06" transform="translate(217.000000, 136.000000)">
                    <path d="M0.7173,10.871 C0.7173,9.862 0.7793,8.874 0.9033,7.908 C1.0263,6.941 1.2163,6.007 1.4743,5.103 C1.7323,4.201 2.0563,3.335 2.4473,2.506 C2.8393,1.677 3.3063,0.895 3.8503,0.162 L5.6073,0.162 C5.1193,0.931 4.6863,1.738 4.3053,2.585 C3.9243,3.432 3.6033,4.313 3.3423,5.23 C3.0803,6.148 2.8873,7.081 2.7603,8.03 C2.6323,8.978 2.5693,9.933 2.5693,10.892 C2.5693,12.861 2.8263,14.774 3.3423,16.633 C3.8573,18.492 4.6183,20.201 5.6273,21.76 L3.8503,21.76 C3.3063,21.013 2.8393,20.213 2.4473,19.364 C2.0563,18.513 1.7323,17.624 1.4743,16.697 C1.2163,15.769 1.0263,14.817 0.9033,13.839 C0.7793,12.862 0.7173,11.873 0.7173,10.871" id="Fill-74" fill="#D0D2D3"></path>
                    <path d="M11.8188,2.3837 L11.9668,2.6167 C11.8678,3.0047 11.7508,3.4117 11.6128,3.8387 C11.4748,4.2657 11.3228,4.6997 11.1578,5.1407 C10.9918,5.5817 10.8188,6.0177 10.6388,6.4477 C10.4588,6.8777 10.2808,7.2907 10.1038,7.6857 L8.6548,7.6857 C8.7538,7.2627 8.8538,6.8177 8.9568,6.3527 C9.0578,5.8867 9.1578,5.4207 9.2528,4.9557 C9.3478,4.4897 9.4338,4.0387 9.5118,3.6007 C9.5898,3.1637 9.6568,2.7577 9.7128,2.3837 L11.8188,2.3837 Z" id="Fill-75" fill="#F4CB23"></path>
                    <polygon id="Fill-76" fill="#F4CB23" points="21.395 2.0453 20.94 6.2043 25.141 5.0293 25.416 7.0713 21.416 7.3683 24.009 10.8183 22.125 11.8343 20.263 8.0453 18.591 11.8343 16.644 10.8183 19.205 7.3683 15.236 7.0713 15.543 5.0293 19.681 6.2043 19.226 2.0453"></polygon>
                    <path d="M31.7241,2.3837 L31.8721,2.6167 C31.7731,3.0047 31.6561,3.4117 31.5181,3.8387 C31.3801,4.2657 31.2281,4.6997 31.0631,5.1407 C30.8971,5.5817 30.7241,6.0177 30.5441,6.4477 C30.3641,6.8777 30.1861,7.2907 30.0091,7.6857 L28.5601,7.6857 C28.6591,7.2627 28.7591,6.8177 28.8621,6.3527 C28.9631,5.8867 29.0631,5.4207 29.1581,4.9557 C29.2531,4.4897 29.3391,4.0387 29.4171,3.6007 C29.4951,3.1637 29.5621,2.7577 29.6181,2.3837 L31.7241,2.3837 Z" id="Fill-77" fill="#F4CB23"></path>
                    <polygon id="Fill-78" fill="#D0D2D3" points="41.3013 2.0453 40.8463 6.2043 45.0473 5.0293 45.3223 7.0713 41.3223 7.3683 43.9153 10.8183 42.0313 11.8343 40.1693 8.0453 38.4973 11.8343 36.5503 10.8183 39.1113 7.3683 35.1423 7.0713 35.4493 5.0293 39.5873 6.2043 39.1323 2.0453"></polygon>
                    <path d="M52.8882,11.0507 C52.8882,12.0597 52.8262,13.0477 52.7032,14.0137 C52.5792,14.9807 52.3892,15.9157 52.1322,16.8187 C51.8742,17.7217 51.5502,18.5877 51.1592,19.4167 C50.7672,20.2447 50.2992,21.0267 49.7562,21.7597 L47.9992,21.7597 C48.4872,20.9907 48.9202,20.1837 49.3012,19.3367 C49.6822,18.4907 50.0032,17.6087 50.2642,16.6917 C50.5252,15.7747 50.7192,14.8417 50.8462,13.8927 C50.9732,12.9437 51.0362,11.9887 51.0362,11.0297 C51.0362,9.0617 50.7792,7.1477 50.2642,5.2887 C49.7492,3.4297 48.9872,1.7207 47.9782,0.1617 L49.7562,0.1617 C50.2992,0.9097 50.7672,1.7087 51.1592,2.5587 C51.5502,3.4087 51.8742,4.2977 52.1322,5.2257 C52.3892,6.1537 52.5792,7.1057 52.7032,8.0827 C52.8262,9.0597 52.8882,10.0497 52.8882,11.0507" id="Fill-79" fill="#D0D2D3"></path>
                </g>
                <g id="05" transform="translate(415.000000, 294.000000)" fill="#E5E6E7">
                    <polygon id="Fill-66" points="17.4312 20.7108 0.7552 13.7878 0.7552 10.9318 17.4312 4.0088 17.4312 7.5938 5.7552 12.3728 17.4312 17.1258"></polygon>
                    <polygon id="Fill-67" points="33.1323 0.6844 25.4313 25.1004 21.7033 25.1004 29.3663 0.6844"></polygon>
                    <polygon id="Fill-68" points="54.938 13.788 38.262 20.711 38.262 17.126 49.938 12.36 38.262 7.594 38.262 4.009 54.938 10.932"></polygon>
                </g>
                <g id="04" transform="translate(464.000000, 171.000000)">
                    <g id="Group-5">
                        <path d="M0.9585,9.0858 C0.9585,8.2968 1.0065,7.5238 1.1035,6.7688 C1.1995,6.0128 1.3485,5.2808 1.5505,4.5748 C1.7515,3.8688 2.0055,3.1908 2.3115,2.5428 C2.6175,1.8948 2.9825,1.2838 3.4075,0.7098 L4.7815,0.7098 C4.4005,1.3118 4.0625,1.9428 3.7645,2.6058 C3.4665,3.2678 3.2145,3.9568 3.0105,4.6738 C2.8065,5.3918 2.6545,6.1218 2.5555,6.8638 C2.4565,7.6058 2.4065,8.3518 2.4065,9.1028 C2.4065,10.6418 2.6075,12.1388 3.0105,13.5928 C3.4135,15.0458 4.0095,16.3828 4.7985,17.6028 L3.4075,17.6028 C2.9825,17.0178 2.6175,16.3928 2.3115,15.7278 C2.0055,15.0628 1.7515,14.3678 1.5505,13.6418 C1.3485,12.9168 1.1995,12.1718 1.1035,11.4078 C1.0065,10.6438 0.9585,9.8698 0.9585,9.0858" id="Fill-80" fill="#D0D2D3"></path>
                        <path d="M12.8267,2.4476 L12.9427,2.6296 C12.8657,2.9336 12.7727,3.2526 12.6657,3.5856 C12.5577,3.9196 12.4387,4.2596 12.3087,4.6036 C12.1807,4.9486 12.0447,5.2896 11.9037,5.6266 C11.7637,5.9626 11.6237,6.2856 11.4857,6.5946 L10.3517,6.5946 C10.4297,6.2636 10.5087,5.9156 10.5877,5.5516 C10.6677,5.1876 10.7457,4.8226 10.8197,4.4596 C10.8937,4.0946 10.9617,3.7416 11.0217,3.3996 C11.0837,3.0576 11.1357,2.7406 11.1797,2.4476 L12.8267,2.4476 Z M9.6397,2.4476 L9.7567,2.6296 C9.6797,2.9336 9.5867,3.2526 9.4787,3.5856 C9.3717,3.9196 9.2527,4.2596 9.1227,4.6036 C8.9937,4.9486 8.8577,5.2896 8.7177,5.6266 C8.5767,5.9626 8.4367,6.2856 8.2997,6.5946 L7.1657,6.5946 C7.2427,6.2636 7.3207,5.9156 7.4007,5.5516 C7.4807,5.1876 7.5577,4.8226 7.6337,4.4596 C7.7077,4.0946 7.7747,3.7416 7.8357,3.3996 C7.8967,3.0576 7.9487,2.7406 7.9927,2.4476 L9.6397,2.4476 Z" id="Fill-81" fill="#94C03D"></path>
                        <polygon id="Fill-82" fill="#94C03D" points="20.3179 2.183 19.9629 5.436 23.2479 4.517 23.4639 6.115 20.3349 6.346 22.3619 9.044 20.8889 9.839 19.4319 6.876 18.1249 9.839 16.6019 9.044 18.6049 6.346 15.5009 6.115 15.7409 4.517 18.9769 5.436 18.6219 2.183"></polygon>
                        <path d="M31.5815,2.4476 L31.6975,2.6296 C31.6205,2.9336 31.5275,3.2526 31.4205,3.5856 C31.3125,3.9196 31.1935,4.2596 31.0635,4.6036 C30.9355,4.9486 30.7995,5.2896 30.6585,5.6266 C30.5185,5.9626 30.3785,6.2856 30.2405,6.5946 L29.1065,6.5946 C29.1845,6.2636 29.2635,5.9156 29.3425,5.5516 C29.4225,5.1876 29.5005,4.8226 29.5745,4.4596 C29.6485,4.0946 29.7165,3.7416 29.7765,3.3996 C29.8385,3.0576 29.8905,2.7406 29.9345,2.4476 L31.5815,2.4476 Z M28.3945,2.4476 L28.5115,2.6296 C28.4345,2.9336 28.3415,3.2526 28.2335,3.5856 C28.1265,3.9196 28.0075,4.2596 27.8775,4.6036 C27.7485,4.9486 27.6125,5.2896 27.4725,5.6266 C27.3315,5.9626 27.1915,6.2856 27.0545,6.5946 L25.9205,6.5946 C25.9975,6.2636 26.0755,5.9156 26.1555,5.5516 C26.2355,5.1876 26.3125,4.8226 26.3885,4.4596 C26.4625,4.0946 26.5295,3.7416 26.5905,3.3996 C26.6515,3.0576 26.7035,2.7406 26.7475,2.4476 L28.3945,2.4476 Z" id="Fill-83" fill="#94C03D"></path>
                        <path d="M37.8481,9.2264 C37.8481,10.0154 37.7991,10.7884 37.7021,11.5434 C37.6061,12.3004 37.4571,13.0314 37.2561,13.7374 C37.0541,14.4434 36.8001,15.1214 36.4941,15.7694 C36.1881,16.4174 35.8231,17.0284 35.3981,17.6024 L34.0241,17.6024 C34.4051,17.0014 34.7441,16.3694 35.0411,15.7074 C35.3401,15.0454 35.5911,14.3554 35.7951,13.6384 C35.9991,12.9204 36.1511,12.1904 36.2501,11.4484 C36.3501,10.7064 36.3991,9.9604 36.3991,9.2094 C36.3991,7.6704 36.1981,6.1734 35.7951,4.7194 C35.3921,3.2664 34.7961,1.9294 34.0071,0.7094 L35.3981,0.7094 C35.8231,1.2944 36.1881,1.9194 36.4941,2.5844 C36.8001,3.2494 37.0541,3.9444 37.2561,4.6704 C37.4571,5.3954 37.6061,6.1404 37.7021,6.9044 C37.7991,7.6694 37.8481,8.4434 37.8481,9.2264" id="Fill-84" fill="#D0D2D3"></path>
                        <path d="M40.4546,6.6361 C40.4546,6.4211 40.4816,6.2401 40.5376,6.0941 C40.5926,5.9481 40.6676,5.8291 40.7616,5.7381 C40.8546,5.6471 40.9656,5.5821 41.0926,5.5431 C41.2196,5.5051 41.3566,5.4851 41.5066,5.4851 C41.6486,5.4851 41.7856,5.5051 41.9156,5.5431 C42.0456,5.5821 42.1566,5.6471 42.2506,5.7381 C42.3446,5.8291 42.4196,5.9481 42.4746,6.0941 C42.5296,6.2401 42.5576,6.4211 42.5576,6.6361 C42.5576,6.8401 42.5296,7.0141 42.4746,7.1571 C42.4196,7.3011 42.3446,7.4191 42.2506,7.5131 C42.1566,7.6071 42.0456,7.6761 41.9156,7.7201 C41.7856,7.7641 41.6486,7.7861 41.5066,7.7861 C41.3566,7.7861 41.2196,7.7641 41.0926,7.7201 C40.9656,7.6761 40.8546,7.6071 40.7616,7.5131 C40.6676,7.4191 40.5926,7.3011 40.5376,7.1571 C40.4816,7.0141 40.4546,6.8401 40.4546,6.6361 Z M42.2336,12.8351 L42.3586,13.0261 C42.2806,13.3231 42.1886,13.6411 42.0816,13.9771 C41.9736,14.3141 41.8546,14.6531 41.7256,14.9951 C41.5956,15.3371 41.4606,15.6781 41.3196,16.0171 C41.1796,16.3571 41.0396,16.6811 40.9016,16.9901 L39.7596,16.9901 C39.8426,16.6541 39.9236,16.3031 40.0036,15.9391 C40.0836,15.5741 40.1606,15.2121 40.2356,14.8501 C40.3096,14.4891 40.3776,14.1361 40.4376,13.7911 C40.4986,13.4461 40.5516,13.1281 40.5956,12.8351 L42.2336,12.8351 Z" id="Fill-85" fill="#D0D2D3"></path>
                    </g>
                </g>
                <g id="03" transform="translate(289.000000, 706.000000)">
                    <path d="M0.4858,8.4071 C0.4858,7.6191 0.5338,6.8461 0.6308,6.0901 C0.7268,5.3341 0.8758,4.6031 1.0778,3.8961 C1.2788,3.1901 1.5328,2.5131 1.8388,1.8651 C2.1448,1.2171 2.5098,0.6051 2.9348,0.0311 L4.3088,0.0311 C3.9278,0.6331 3.5898,1.2641 3.2918,1.9271 C2.9938,2.5891 2.7418,3.2791 2.5378,3.9961 C2.3338,4.7141 2.1818,5.4431 2.0828,6.1851 C1.9838,6.9281 1.9338,7.6741 1.9338,8.4241 C1.9338,9.9641 2.1348,11.4611 2.5378,12.9141 C2.9408,14.3681 3.5368,15.7051 4.3258,16.9251 L2.9348,16.9251 C2.5098,16.3401 2.1448,15.7151 1.8388,15.0501 C1.5328,14.3851 1.2788,13.6891 1.0778,12.9641 C0.8758,12.2381 0.7268,11.4931 0.6308,10.7291 C0.5338,9.9651 0.4858,9.1911 0.4858,8.4071" id="Fill-59" fill="#D0D2D3"></path>
                    <path d="M12.354,1.7694 L12.47,1.9524 C12.393,2.2544 12.3,2.5744 12.193,2.9084 C12.085,3.2424 11.966,3.5814 11.836,3.9254 C11.708,4.2704 11.572,4.6114 11.431,4.9484 C11.291,5.2844 11.151,5.6074 11.013,5.9154 L9.879,5.9154 C9.957,5.5844 10.036,5.2374 10.115,4.8734 C10.195,4.5094 10.273,4.1454 10.347,3.7814 C10.421,3.4164 10.489,3.0634 10.549,2.7214 C10.611,2.3794 10.663,2.0624 10.707,1.7694 L12.354,1.7694 Z M9.167,1.7694 L9.284,1.9524 C9.207,2.2544 9.114,2.5744 9.006,2.9084 C8.899,3.2424 8.78,3.5814 8.65,3.9254 C8.521,4.2704 8.385,4.6114 8.245,4.9484 C8.104,5.2844 7.964,5.6074 7.827,5.9154 L6.693,5.9154 C6.77,5.5844 6.848,5.2374 6.928,4.8734 C7.008,4.5094 7.085,4.1454 7.161,3.7814 C7.235,3.4164 7.302,3.0634 7.363,2.7214 C7.424,2.3794 7.476,2.0624 7.52,1.7694 L9.167,1.7694 Z" id="Fill-60" fill="#94C03D"></path>
                    <polygon id="Fill-61" fill="#94C03D" points="19.8452 1.5047 19.4902 4.7577 22.7752 3.8387 22.9912 5.4367 19.8622 5.6677 21.8892 8.3657 20.4162 9.1607 18.9592 6.1977 17.6522 9.1607 16.1292 8.3657 18.1322 5.6677 15.0282 5.4367 15.2682 3.8387 18.5042 4.7577 18.1492 1.5047"></polygon>
                    <path d="M31.1089,1.7694 L31.2249,1.9524 C31.1479,2.2544 31.0549,2.5744 30.9479,2.9084 C30.8399,3.2424 30.7209,3.5814 30.5909,3.9254 C30.4629,4.2704 30.3269,4.6114 30.1859,4.9484 C30.0459,5.2844 29.9059,5.6074 29.7679,5.9154 L28.6339,5.9154 C28.7119,5.5844 28.7909,5.2374 28.8699,4.8734 C28.9499,4.5094 29.0279,4.1454 29.1019,3.7814 C29.1759,3.4164 29.2439,3.0634 29.3039,2.7214 C29.3659,2.3794 29.4179,2.0624 29.4619,1.7694 L31.1089,1.7694 Z M27.9219,1.7694 L28.0389,1.9524 C27.9619,2.2544 27.8689,2.5744 27.7609,2.9084 C27.6539,3.2424 27.5349,3.5814 27.4049,3.9254 C27.2759,4.2704 27.1399,4.6114 26.9999,4.9484 C26.8589,5.2844 26.7189,5.6074 26.5819,5.9154 L25.4479,5.9154 C25.5249,5.5844 25.6029,5.2374 25.6829,4.8734 C25.7629,4.5094 25.8399,4.1454 25.9159,3.7814 C25.9899,3.4164 26.0569,3.0634 26.1179,2.7214 C26.1789,2.3794 26.2309,2.0624 26.2749,1.7694 L27.9219,1.7694 Z" id="Fill-62" fill="#94C03D"></path>
                    <path d="M37.3755,8.5487 C37.3755,9.3377 37.3265,10.1107 37.2295,10.8657 C37.1335,11.6217 36.9845,12.3527 36.7835,13.0597 C36.5815,13.7657 36.3275,14.4427 36.0215,15.0907 C35.7155,15.7387 35.3505,16.3507 34.9255,16.9247 L33.5515,16.9247 C33.9325,16.3227 34.2715,15.6917 34.5685,15.0287 C34.8675,14.3667 35.1185,13.6777 35.3225,12.9597 C35.5265,12.2427 35.6785,11.5127 35.7775,10.7707 C35.8775,10.0277 35.9265,9.2817 35.9265,8.5317 C35.9265,6.9917 35.7255,5.4957 35.3225,4.0417 C34.9195,2.5877 34.3235,1.2507 33.5345,0.0307 L34.9255,0.0307 C35.3505,0.6157 35.7155,1.2407 36.0215,1.9057 C36.3275,2.5707 36.5815,3.2667 36.7835,3.9917 C36.9845,4.7177 37.1335,5.4627 37.2295,6.2267 C37.3265,6.9907 37.3755,7.7647 37.3755,8.5487" id="Fill-63" fill="#D0D2D3"></path>
                    <path d="M39.9819,5.9579 C39.9819,5.7419 40.0089,5.5619 40.0649,5.4159 C40.1199,5.2699 40.1949,5.1499 40.2889,5.0599 C40.3819,4.9689 40.4929,4.9039 40.6199,4.8649 C40.7469,4.8269 40.8839,4.8079 41.0339,4.8079 C41.1759,4.8079 41.3129,4.8269 41.4429,4.8649 C41.5729,4.9039 41.6839,4.9689 41.7779,5.0599 C41.8719,5.1499 41.9469,5.2699 42.0019,5.4159 C42.0569,5.5619 42.0849,5.7419 42.0849,5.9579 C42.0849,6.1619 42.0569,6.3359 42.0019,6.4789 C41.9469,6.6229 41.8719,6.7409 41.7779,6.8349 C41.6839,6.9289 41.5729,6.9979 41.4429,7.0419 C41.3129,7.0859 41.1759,7.1079 41.0339,7.1079 C40.8839,7.1079 40.7469,7.0859 40.6199,7.0419 C40.4929,6.9979 40.3819,6.9289 40.2889,6.8349 C40.1949,6.7409 40.1199,6.6229 40.0649,6.4789 C40.0089,6.3359 39.9819,6.1619 39.9819,5.9579 Z M41.7609,12.1569 L41.8859,12.3479 C41.8079,12.6449 41.7159,12.9629 41.6089,13.2989 C41.5009,13.6359 41.3819,13.9759 41.2529,14.3169 C41.1229,14.6589 40.9879,14.9999 40.8469,15.3399 C40.7069,15.6789 40.5669,16.0029 40.4289,16.3119 L39.2869,16.3119 C39.3699,15.9759 39.4509,15.6249 39.5309,15.2609 C39.6109,14.8959 39.6879,14.5339 39.7629,14.1729 C39.8369,13.8119 39.9049,13.4579 39.9649,13.1129 C40.0259,12.7689 40.0789,12.4489 40.1229,12.1569 L41.7609,12.1569 Z" id="Fill-64" fill="#D0D2D3"></path>
                </g>
                <g id="02" transform="translate(402.000000, 541.000000)">
                    <path d="M0.8599,11.2196 C0.8599,10.2106 0.9219,9.2236 1.0459,8.2566 C1.1689,7.2896 1.3589,6.3556 1.6169,5.4516 C1.8749,4.5486 2.1989,3.6836 2.5899,2.8546 C2.9819,2.0256 3.4489,1.2436 3.9929,0.5106 L5.7499,0.5106 C5.2619,1.2796 4.8289,2.0866 4.4479,2.9336 C4.0669,3.7806 3.7459,4.6616 3.4849,5.5786 C3.2229,6.4956 3.0299,7.4296 2.9029,8.3776 C2.7749,9.3266 2.7119,10.2816 2.7119,11.2406 C2.7119,13.2086 2.9689,15.1226 3.4849,16.9816 C3.9999,18.8406 4.7609,20.5496 5.7699,22.1096 L3.9929,22.1096 C3.4489,21.3616 2.9819,20.5626 2.5899,19.7116 C2.1989,18.8626 1.8749,17.9736 1.6169,17.0446 C1.3589,16.1176 1.1689,15.1646 1.0459,14.1886 C0.9219,13.2106 0.8599,12.2216 0.8599,11.2196" id="Fill-41" fill="#D0D2D3"></path>
                    <path d="M11.9614,2.7323 L12.1094,2.9653 C12.0104,3.3533 11.8934,3.7603 11.7554,4.1873 C11.6174,4.6143 11.4654,5.0483 11.3004,5.4893 C11.1344,5.9303 10.9614,6.3663 10.7814,6.7953 C10.6014,7.2263 10.4234,7.6393 10.2464,8.0343 L8.7974,8.0343 C8.8964,7.6113 8.9964,7.1673 9.0994,6.7013 C9.2004,6.2353 9.3004,5.7693 9.3954,5.3033 C9.4904,4.8383 9.5764,4.3863 9.6544,3.9493 C9.7324,3.5123 9.7994,3.1063 9.8554,2.7323 L11.9614,2.7323 Z" id="Fill-43" fill="#94C03D"></path>
                    <polygon id="Fill-45" fill="#94C03D" points="21.5376 2.3934 21.0826 6.5524 25.2836 5.3774 25.5586 7.4204 21.5586 7.7164 24.1516 11.1664 22.2676 12.1824 20.4056 8.3944 18.7336 12.1824 16.7866 11.1664 19.3476 7.7164 15.3786 7.4204 15.6856 5.3774 19.8236 6.5524 19.3686 2.3934"></polygon>
                    <path d="M31.8667,2.7323 L32.0147,2.9653 C31.9157,3.3533 31.7987,3.7603 31.6607,4.1873 C31.5227,4.6143 31.3707,5.0483 31.2057,5.4893 C31.0397,5.9303 30.8667,6.3663 30.6867,6.7953 C30.5067,7.2263 30.3287,7.6393 30.1517,8.0343 L28.7027,8.0343 C28.8017,7.6113 28.9017,7.1673 29.0047,6.7013 C29.1057,6.2353 29.2057,5.7693 29.3007,5.3033 C29.3957,4.8383 29.4817,4.3863 29.5597,3.9493 C29.6377,3.5123 29.7047,3.1063 29.7607,2.7323 L31.8667,2.7323 Z" id="Fill-47" fill="#94C03D"></path>
                    <polygon id="Fill-49" fill="#D0D2D3" points="41.4438 2.3934 40.9888 6.5524 45.1898 5.3774 45.4648 7.4204 41.4648 7.7164 44.0578 11.1664 42.1738 12.1824 40.3118 8.3944 38.6398 12.1824 36.6928 11.1664 39.2538 7.7164 35.2848 7.4204 35.5918 5.3774 39.7298 6.5524 39.2748 2.3934"></polygon>
                    <path d="M48.3325,11.2196 C48.3325,10.2106 48.3945,9.2236 48.5185,8.2566 C48.6415,7.2896 48.8315,6.3556 49.0895,5.4516 C49.3475,4.5486 49.6715,3.6836 50.0625,2.8546 C50.4545,2.0256 50.9215,1.2436 51.4655,0.5106 L53.2225,0.5106 C52.7345,1.2796 52.3015,2.0866 51.9205,2.9336 C51.5395,3.7806 51.2185,4.6616 50.9575,5.5786 C50.6955,6.4956 50.5025,7.4296 50.3755,8.3776 C50.2475,9.3266 50.1845,10.2816 50.1845,11.2406 C50.1845,13.2086 50.4415,15.1226 50.9575,16.9816 C51.4725,18.8406 52.2335,20.5496 53.2425,22.1096 L51.4655,22.1096 C50.9215,21.3616 50.4545,20.5626 50.0625,19.7116 C49.6715,18.8626 49.3475,17.9736 49.0895,17.0446 C48.8315,16.1176 48.6415,15.1646 48.5185,14.1886 C48.3945,13.2106 48.3325,12.2216 48.3325,11.2196" id="Fill-51" fill="#D0D2D3"></path>
                    <path d="M56.355,18.532 L58.259,18.532 L58.259,6.913 L56.355,6.913 L56.355,18.532 Z M56.207,3.769 C56.207,3.347 56.314,3.039 56.529,2.848 C56.745,2.658 57.01,2.563 57.328,2.563 C57.625,2.563 57.883,2.658 58.106,2.848 C58.329,3.039 58.439,3.347 58.439,3.769 C58.439,4.186 58.329,4.493 58.106,4.69 C57.883,4.888 57.625,4.986 57.328,4.986 C57.01,4.986 56.745,4.888 56.529,4.69 C56.314,4.493 56.207,4.186 56.207,3.769 Z" id="Fill-53" fill="#D0D2D3"></path>
                    <polygon id="Fill-55" fill="#D0D2D3" points="65.2749 12.3416 61.1789 12.3416 61.1789 10.7536 65.2749 10.7536 65.2749 6.6486 66.8619 6.6486 66.8619 10.7536 70.9579 10.7536 70.9579 12.3416 66.8619 12.3416 66.8619 16.4266 65.2749 16.4266"></polygon>
                    <path d="M79.562,18.5321 L77.699,18.5321 L77.699,8.8701 C77.699,8.5671 77.701,8.2421 77.705,7.8961 C77.708,7.5511 77.715,7.2071 77.726,6.8651 C77.736,6.5221 77.747,6.1951 77.757,5.8811 C77.768,5.5671 77.777,5.2901 77.784,5.0501 C77.664,5.1771 77.558,5.2861 77.466,5.3781 C77.374,5.4691 77.281,5.5581 77.186,5.6421 C77.09,5.7271 76.99,5.8171 76.884,5.9131 C76.779,6.0081 76.652,6.1191 76.503,6.2461 L74.937,7.5261 L73.921,6.2241 L77.974,3.0601 L79.562,3.0601 L79.562,18.5321 Z" id="Fill-56" fill="#D0D2D3"></path>
                    <path d="M90.1538,11.3993 C90.1538,12.4083 90.0918,13.3963 89.9688,14.3623 C89.8448,15.3293 89.6548,16.2633 89.3978,17.1673 C89.1398,18.0703 88.8158,18.9353 88.4248,19.7643 C88.0328,20.5933 87.5648,21.3753 87.0218,22.1093 L85.2648,22.1093 C85.7528,21.3393 86.1858,20.5323 86.5668,19.6853 C86.9478,18.8383 87.2688,17.9573 87.5298,17.0403 C87.7908,16.1233 87.9848,15.1903 88.1118,14.2413 C88.2388,13.2923 88.3018,12.3373 88.3018,11.3783 C88.3018,9.4103 88.0448,7.4963 87.5298,5.6373 C87.0148,3.7783 86.2528,2.0693 85.2438,0.5103 L87.0218,0.5103 C87.5648,1.2573 88.0328,2.0573 88.4248,2.9073 C88.8158,3.7573 89.1398,4.6463 89.3978,5.5743 C89.6548,6.5023 89.8448,7.4543 89.9688,8.4313 C90.0918,9.4083 90.1538,10.3973 90.1538,11.3993" id="Fill-57" fill="#D0D2D3"></path>
                    <path d="M97.8159,11.3993 C97.8159,12.4083 97.7539,13.3963 97.6309,14.3623 C97.5069,15.3293 97.3169,16.2633 97.0599,17.1673 C96.8019,18.0703 96.4779,18.9353 96.0869,19.7643 C95.6949,20.5933 95.2269,21.3753 94.6839,22.1093 L92.9269,22.1093 C93.4149,21.3393 93.8479,20.5323 94.2289,19.6853 C94.6099,18.8383 94.9309,17.9573 95.1919,17.0403 C95.4529,16.1233 95.6469,15.1903 95.7739,14.2413 C95.9009,13.2923 95.9639,12.3373 95.9639,11.3783 C95.9639,9.4103 95.7069,7.4963 95.1919,5.6373 C94.6769,3.7783 93.9149,2.0693 92.9059,0.5103 L94.6839,0.5103 C95.2269,1.2573 95.6949,2.0573 96.0869,2.9073 C96.4779,3.7573 96.8019,4.6463 97.0599,5.5743 C97.3169,6.5023 97.5069,7.4543 97.6309,8.4313 C97.7539,9.4083 97.8159,10.3973 97.8159,11.3993" id="Fill-58" fill="#D0D2D3"></path>
                </g>
                <g id="01" transform="translate(0.000000, 227.000000)">
                    <path d="M2.11666667,11.162794 L4.63333333,11.162794 C5.99761905,11.162794 6.99285714,10.8906206 7.62380952,10.3486823 C8.25,9.80674412 8.56428571,8.99985832 8.56428571,7.93043355 C8.56428571,6.86100878 8.2452381,6.08061774 7.61190476,5.5868518 C6.97380952,5.09308586 5.94285714,4.8474072 4.51904762,4.8474072 L2.11666667,4.8474072 L2.11666667,11.162794 Z M2.11666667,12.9764806 L2.11666667,20 L0,20 L0,3 L4.63333333,3 C6.71904762,3 8.25952381,3.39982998 9.25952381,4.20189855 C10.2595238,5.00396713 10.7595238,6.21309153 10.7595238,7.82445452 C10.7595238,10.0813262 9.63809524,11.6011618 7.39285714,12.3839615 L12,20 L9.52857143,20 L5.45952381,12.9764806 L2.11666667,12.9764806 Z" id="Fill-87" fill="#BBBDBF"></path>
                    <path d="M19.6651943,8.67970883 C18.6545936,8.67970883 17.8577739,8.99435851 17.2723057,9.62602366 C16.6844081,10.2600546 16.3370141,11.1401274 16.2276943,12.266242 L22.7844523,12.266242 C22.767447,11.0951774 22.4905035,10.2032757 21.9511926,9.59290264 C21.4118816,8.98489536 20.6490724,8.67970883 19.6651943,8.67970883 M20.1923587,20 C18.2610424,20 16.7451413,19.4298453 15.6470848,18.2919017 C14.5490283,17.1539581 14,15.5854413 14,13.5910828 C14,11.5801638 14.5125883,9.97852593 15.5353357,8.78853503 C16.5605124,7.59617834 17.9428004,7 19.6894876,7 C21.3074205,7 22.597394,7.50864422 23.5594081,8.52593267 C24.5189929,9.54085532 25,10.9177434 25,12.6542311 L25,13.9010009 L16.1791078,13.9010009 C16.2204064,15.3228389 16.5896643,16.4040036 17.2941696,17.144495 C17.9986749,17.8826206 18.997129,18.2516833 20.2871025,18.2516833 C20.9746025,18.2516833 21.6280919,18.1925387 22.2451413,18.0742493 C22.8621908,17.95596 23.5861307,17.7264786 24.4145318,17.3834395 L24.4145318,19.188535 C23.7027385,19.4842584 23.0346731,19.6948135 22.4103357,19.8178344 C21.7835689,19.9384895 21.0426237,20 20.1923587,20" id="Fill-88" fill="#BBBDBF"></path>
                    <path d="M31.3522833,18.3409298 C32.4846226,18.3409298 33.3746505,18.0304467 34.0223672,17.4071103 C34.6724138,16.786144 34.9962721,15.9044667 34.9962721,14.7597083 L34.9962721,13.6268004 L33.1742777,13.7050137 C31.7576887,13.759526 30.723206,13.9894257 30.0754893,14.3923428 C29.4277726,14.7976299 29.1015843,15.4328168 29.1015843,16.3050137 C29.1015843,16.9591613 29.2996272,17.4639927 29.693383,17.8147675 C30.0871389,18.1655424 30.639329,18.3409298 31.3522833,18.3409298 Z M35.5251631,19.7724704 L35.1314073,17.9854148 L35.0428705,17.9854148 C34.4254427,18.7722881 33.8150047,19.3031905 33.2022367,19.5828624 C32.5917987,19.8601641 31.8205965,20 30.8909599,20 C29.6747437,20 28.7241379,19.6752963 28.0344828,19.0282589 C27.3424977,18.3788514 27,17.4639927 27,16.2813127 C27,13.7334549 28.973439,12.3990884 32.9273066,12.2758432 L35.0195713,12.1952598 L35.0195713,11.4510483 C35.0195713,10.498268 34.8168686,9.79434822 34.4114632,9.34165907 C34.0083877,8.88659982 33.3583411,8.66144029 32.4683131,8.66144029 C31.8136067,8.66144029 31.1985089,8.7609845 30.6160298,8.95770283 C30.0358807,9.15679125 29.4883504,9.37721057 28.9780988,9.6213309 L28.360671,8.07602552 C28.9804287,7.74184139 29.6607642,7.47876026 30.3970177,7.28678213 C31.1309413,7.09717411 31.860205,7 32.5778192,7 C34.0712954,7 35.1826654,7.33655424 35.9072693,8.00729262 C36.6365331,8.67803099 37,9.74694622 37,11.2116682 L37,19.7724704 L35.5251631,19.7724704 Z" id="Fill-89" fill="#BBBDBF"></path>
                    <path d="M46.6226756,20 C44.8468492,20 43.4684917,19.4464058 42.4806302,18.3368517 C41.4927686,17.2296633 41,15.6398544 41,13.5697907 C41,11.466606 41.4997417,9.84604186 42.4992252,8.71046406 C43.4963843,7.57015469 44.9212293,7 46.7667872,7 C47.3664773,7 47.9591942,7.06387625 48.544938,7.18926297 C49.1330062,7.31464968 49.6188017,7.47788899 50,7.6766151 L49.3817149,9.38944495 C48.3427169,8.99199272 47.4548037,8.79563239 46.722624,8.79563239 C45.481405,8.79563239 44.5632748,9.19308462 43.9728822,9.98798908 C43.3801653,10.7828935 43.0872934,11.9705187 43.0872934,13.5461328 C43.0872934,15.0626024 43.3801653,16.221838 43.9728822,17.0238399 C44.5632748,17.8282075 45.4395661,18.2280255 46.5994318,18.2280255 C47.6849174,18.2280255 48.7494835,17.9843494 49.7977789,17.4969973 L49.7977789,19.3257507 C48.9447314,19.7752502 47.8871384,20 46.6226756,20" id="Fill-90" fill="#BBBDBF"></path>
                    <path d="M57.1497963,18.2826909 C57.430586,18.2826909 57.7615168,18.2560847 58.1425885,18.2004535 C58.5211532,18.1472411 58.8069571,18.0843537 59,18.0142101 L59,19.6250945 C58.7994359,19.7121693 58.4860545,19.7944067 58.0623629,19.876644 C57.6386713,19.9588813 57.2074585,20 56.7737386,20 C54.1739267,20 52.8752742,18.6793651 52.8752742,16.040514 L52.8752742,8.57868481 L51,8.57868481 L51,7.57490552 L52.9003447,6.73318216 L53.7702914,4 L55.0664369,4 L55.0664369,6.943613 L58.9047321,6.943613 L58.9047321,8.57868481 L55.0664369,8.57868481 L55.0664369,15.9824641 C55.0664369,16.7226002 55.2494516,17.2910053 55.6179881,17.6876795 C55.9840175,18.0843537 56.495456,18.2826909 57.1497963,18.2826909" id="Fill-91" fill="#BBBDBF"></path>
                    <path d="M73.6798727,11.4072815 C73.6798727,9.24465222 73.1301733,7.60702649 72.0357269,6.49440431 C70.9412805,5.38178212 69.2847542,4.82547103 67.068624,4.82547103 L64.2012734,4.82547103 L64.2012734,18.1624876 L66.5783516,18.1624876 C71.312699,18.1624876 73.6798727,15.9107522 73.6798727,11.4072815 M76,11.3374416 C76,14.1430798 75.2125929,16.2888511 73.6377786,17.7723474 C72.0654404,19.2582519 69.8072161,20 66.8655819,20 L62,20 L62,3 L67.3806155,3 C70.0993987,3 72.2140078,3.72729848 73.7293951,5.18189545 C75.2423063,6.63408415 76,8.68593285 76,11.3374416" id="Fill-92" fill="#BBBDBF"></path>
                    <path d="M80.3000921,11.9938076 C80.3000921,14.3072795 80.7861307,16.0683914 81.758208,17.2796202 C82.7302854,18.493326 84.1466708,19.0977019 86.0122737,19.0977019 C87.8705124,19.0977019 89.2795336,18.4982799 90.2442467,17.3043897 C91.2065051,16.1080226 91.690089,14.3370029 91.690089,11.9938076 C91.690089,9.65804321 91.2114145,7.89693133 90.2565204,6.7154259 C89.2991715,5.53144351 87.8950598,4.93697537 86.0368211,4.93697537 C84.1564897,4.93697537 82.7302854,5.53887436 81.758208,6.73771845 C80.7861307,7.93903949 80.3000921,9.69024357 80.3000921,11.9938076 M94,11.9938076 C94,14.7927618 93.3003989,16.9922939 91.8987419,18.594881 C90.4946303,20.197468 88.5332924,21 86.0122737,21 C83.4593434,21 81.4857318,20.2123297 80.0938938,18.6369891 C78.6996011,17.0616485 78,14.8398239 78,11.9690381 C78,9.12302188 78.6946916,6.91853585 80.0816201,5.35062612 C81.4685486,3.78519334 83.4519791,3 86.0368211,3 C88.5480209,3 90.5044492,3.79510114 91.9036514,5.38778038 C93.3028536,6.97798266 94,9.17999174 94,11.9938076" id="Fill-93" fill="#BBBDBF"></path>
                    <path d="M105.510001,20 L99.8979997,5.09519762 L99.8039438,5.09519762 C99.9221166,6.33305001 99.9775855,7.86471172 99.9775855,9.6853662 L99.9775855,20 L98,20 L98,3 L101.166548,3 L106.416797,16.93186 L106.510853,16.93186 L111.855157,3 L115,3 L115,20 L112.880125,20 L112.880125,9.54809463 C112.880125,8.38489871 112.933182,6.90621901 113.041708,5.11687208 L112.950064,5.11687208 L107.268123,20 L105.510001,20 Z" id="Fill-94" fill="#BBBDBF"></path>
                    <path d="M119,18.4944321 C119,18.2227171 119.03912,17.9910913 119.117359,17.8017817 C119.195599,17.6124722 119.303178,17.4565702 119.437653,17.3385301 C119.569682,17.22049 119.728606,17.1358575 119.90709,17.0801782 C120.08802,17.0267261 120.286064,17 120.498778,17 C120.701711,17 120.897311,17.0267261 121.08313,17.0801782 C121.268949,17.1358575 121.427873,17.22049 121.562347,17.3385301 C121.696822,17.4565702 121.801956,17.6124722 121.880196,17.8017817 C121.958435,17.9910913 122,18.2227171 122,18.4944321 C122,18.7594655 121.958435,18.9888641 121.880196,19.1781737 C121.801956,19.3674833 121.696822,19.5233853 121.562347,19.6458797 C121.427873,19.766147 121.268949,19.857461 121.08313,19.9153675 C120.897311,19.9710468 120.701711,20 120.498778,20 C120.286064,20 120.08802,19.9710468 119.90709,19.9153675 C119.728606,19.857461 119.569682,19.766147 119.437653,19.6458797 C119.303178,19.5233853 119.195599,19.3674833 119.117359,19.1781737 C119.03912,18.9888641 119,18.7594655 119,18.4944321" id="Fill-95" fill="#94C03D"></path>
                    <path d="M130.593215,7 C131.122456,7 131.592892,7.04816599 132,7.13968136 L131.76252,9.06872916 C131.314701,8.96035569 130.882714,8.9073731 130.459774,8.9073731 C129.826494,8.9073731 129.238449,9.09281215 128.6979,9.46609856 C128.155089,9.83697666 127.729887,10.3523527 127.426817,11.0074102 C127.119225,11.6624676 126.965428,12.3873657 126.965428,13.1869211 L126.965428,20 L125,20 L125,7.23360504 L126.617124,7.23360504 L126.836511,9.56965543 L126.922456,9.56965543 C127.381583,8.72434235 127.924394,8.08614302 128.550889,7.65264913 C129.175121,7.21674694 129.858158,7 130.593215,7" id="Fill-96" fill="#10C0E8"></path>
                    <path d="M139.665194,8.67970883 C138.654594,8.67970883 137.857774,8.99435851 137.272306,9.62602366 C136.684408,10.2600546 136.337014,11.1401274 136.227694,12.266242 L142.784452,12.266242 C142.767447,11.0951774 142.490504,10.2032757 141.951193,9.59290264 C141.411882,8.98489536 140.649072,8.67970883 139.665194,8.67970883 M140.192359,20 C138.261042,20 136.745141,19.4298453 135.647085,18.2919017 C134.549028,17.1539581 134,15.5854413 134,13.5910828 C134,11.5801638 134.512588,9.97852593 135.535336,8.78853503 C136.560512,7.59617834 137.9428,7 139.689488,7 C141.30742,7 142.597394,7.50864422 143.559408,8.52593267 C144.518993,9.54085532 145,10.9177434 145,12.6542311 L145,13.9010009 L136.179108,13.9010009 C136.220406,15.3228389 136.589664,16.4040036 137.29417,17.144495 C137.998675,17.8826206 138.997129,18.2516833 140.287102,18.2516833 C140.974602,18.2516833 141.628092,18.1925387 142.245141,18.0742493 C142.862191,17.95596 143.586131,17.7264786 144.414532,17.3834395 L144.414532,19.188535 C143.702739,19.4842584 143.034673,19.6948135 142.410336,19.8178344 C141.783569,19.9384895 141.042624,20 140.192359,20" id="Fill-97" fill="#10C0E8"></path>
                    <path d="M156.88613,20 L156.88613,11.8382734 C156.88613,10.7978881 156.649888,10.024824 156.179866,9.51667284 C155.707383,9.01092997 154.971588,8.75565024 153.965101,8.75565024 C152.626398,8.75565024 151.654362,9.11930345 151.046532,9.84420156 C150.441163,10.5666914 150.138479,11.7491664 150.138479,13.3844016 L150.138479,20 L148,20 L148,7.23360504 L149.722595,7.23360504 L150.044966,8.97721378 L150.163087,8.97721378 C150.566667,8.34864765 151.132662,7.86217117 151.861074,7.51778436 C152.589485,7.17339755 153.394183,7 154.272707,7 C155.87226,7 157.06085,7.3805113 157.838479,8.1391256 C158.613647,8.9001482 159,10.0826232 159,11.6865506 L159,20 L156.88613,20 Z" id="Fill-98" fill="#10C0E8"></path>
                    <path d="M167.421479,18.2969777 C168.656723,18.2969777 169.561475,17.9563732 170.131046,17.2751643 C170.700618,16.5939553 170.986576,15.4775296 170.986576,13.9235217 L170.986576,13.5474376 C170.986576,11.804205 170.69593,10.5600526 170.119327,9.81971091 C169.542723,9.07700394 168.635628,8.70565046 167.39804,8.70565046 C166.350309,8.70565046 165.53697,9.12667543 164.965054,9.96636005 C164.390795,10.80841 164.104837,12.0099869 164.104837,13.5687254 C164.104837,15.1227332 164.390795,16.2982917 164.960367,17.0977661 C165.527594,17.8972405 166.350309,18.2969777 167.421479,18.2969777 M167.090987,20 C165.478372,20 164.226721,19.4346912 163.336032,18.3088042 C162.445344,17.1829172 162,15.5863338 162,13.5237845 C162,11.4754271 162.447688,9.87647832 163.343064,8.72693824 C164.236096,7.57739816 165.494779,7.00262812 167.114426,7.00262812 C168.783294,7.00262812 170.065417,7.61997372 170.963137,8.85229961 L171.110803,8.85229961 C171.087364,8.70091984 171.056893,8.3934297 171.019391,7.93455979 C170.981888,7.47332457 170.963137,7.16346912 170.963137,7.00262812 L170.963137,2 L173,2 L173,19.770565 L171.359258,19.770565 L171.054549,18.0911958 L170.963137,18.0911958 C170.095887,19.3637319 168.806733,20 167.090987,20" id="Fill-99" fill="#10C0E8"></path>
                    <path d="M182.665194,8.67970883 C181.654594,8.67970883 180.857774,8.99435851 180.272306,9.62602366 C179.684408,10.2600546 179.337014,11.1401274 179.227694,12.266242 L185.784452,12.266242 C185.767447,11.0951774 185.490504,10.2032757 184.951193,9.59290264 C184.411882,8.98489536 183.649072,8.67970883 182.665194,8.67970883 M183.192359,20 C181.261042,20 179.745141,19.4298453 178.647085,18.2919017 C177.549028,17.1539581 177,15.5854413 177,13.5910828 C177,11.5801638 177.512588,9.97852593 178.535336,8.78853503 C179.560512,7.59617834 180.9428,7 182.689488,7 C184.30742,7 185.597394,7.50864422 186.559408,8.52593267 C187.518993,9.54085532 188,10.9177434 188,12.6542311 L188,13.9010009 L179.179108,13.9010009 C179.220406,15.3228389 179.589664,16.4040036 180.29417,17.144495 C180.998675,17.8826206 181.997129,18.2516833 183.287102,18.2516833 C183.974602,18.2516833 184.628092,18.1925387 185.245141,18.0742493 C185.862191,17.95596 186.586131,17.7264786 187.414532,17.3834395 L187.414532,19.188535 C186.702739,19.4842584 186.034673,19.6948135 185.410336,19.8178344 C184.783569,19.9384895 184.042624,20 183.192359,20" id="Fill-100" fill="#10C0E8"></path>
                    <path d="M196.593215,7 C197.122456,7 197.592892,7.04816599 198,7.13968136 L197.76252,9.06872916 C197.314701,8.96035569 196.882714,8.9073731 196.459774,8.9073731 C195.826494,8.9073731 195.238449,9.09281215 194.6979,9.46609856 C194.155089,9.83697666 193.729887,10.3523527 193.426817,11.0074102 C193.119225,11.6624676 192.965428,12.3873657 192.965428,13.1869211 L192.965428,20 L191,20 L191,7.23360504 L192.617124,7.23360504 L192.836511,9.56965543 L192.922456,9.56965543 C193.381583,8.72434235 193.924394,8.08614302 194.550889,7.65264913 C195.175121,7.21674694 195.858158,7 196.593215,7" id="Fill-101" fill="#10C0E8"></path>
                    <path d="M201,11.9001421 C201,10.7797849 201.0625,9.68134768 201.189732,8.60726608 C201.314732,7.53562005 201.508929,6.49563629 201.772321,5.49218591 C202.033482,4.48873554 202.363839,3.52668967 202.761161,2.60604831 C203.160714,1.68297138 203.638393,0.81591232 204.191964,0 L205.977679,0 C205.484375,0.854881266 205.042411,1.75116704 204.654018,2.69372844 C204.265625,3.63385427 203.9375,4.61294906 203.671875,5.63344835 C203.40625,6.65151208 203.209821,7.68906028 203.080357,8.7436574 C202.950893,9.79825452 202.886161,10.8577228 202.886161,11.9244977 C202.886161,14.1116298 203.149554,16.2378729 203.671875,18.3032271 C204.198661,20.3685813 204.973214,22.2683174 206,24 L204.191964,24 C203.638393,23.1694743 203.160714,22.2829308 202.761161,21.3379338 C202.363839,20.3929369 202.033482,19.4065354 201.772321,18.3738583 C201.508929,17.3436168 201.314732,16.2841486 201.189732,15.1978892 C201.0625,14.1140654 201,13.0156282 201,11.9001421" id="Fill-102" fill="#D0D2D3"></path>
                    <polygon id="Fill-103" fill="#94C03D" points="23 47 12 41.9477581 12 40.7309749 23 35 23 36.9053887 14.2507844 41.2443439 23 45.0822707"></polygon>
                    <path d="M28.1617021,41.0237994 L28.1617021,47.1865703 L31.6243161,47.1865703 C33.0006079,47.1865703 34.0218845,46.9216603 34.6881459,46.3942485 C35.3544073,45.8692449 35.687538,45.0696983 35.687538,44.000425 C35.687538,42.9841337 35.3325228,42.2351608 34.6297872,41.7510979 C33.9246201,41.267035 32.8693009,41.0237994 31.4589666,41.0237994 L28.1617021,41.0237994 Z M28.1617021,39.2320442 L31.3300912,39.2320442 C32.674772,39.2320442 33.6547112,39.0201162 34.2650456,38.5938518 C34.8778116,38.1675875 35.1817629,37.4547386 35.1817629,36.4553053 C35.1817629,35.5233036 34.8462006,34.8538037 34.1775076,34.441989 C33.5088146,34.0325825 32.4510638,33.825471 31.0018237,33.825471 L28.1617021,33.825471 L28.1617021,39.2320442 Z M26,32 L30.8948328,32 C33.1975684,32 34.8583587,32.3395665 35.8796353,33.0186995 C36.9009119,33.6978326 37.4115502,34.759881 37.4115502,36.2096614 C37.4115502,37.2163196 37.1319149,38.0495821 36.5775076,38.7046324 C36.0206687,39.3596827 35.2109422,39.7835387 34.1483283,39.9762006 L34.1483283,40.094206 C35.4711246,40.3181754 36.443769,40.773339 37.0662614,41.4548803 C37.6887538,42.1364216 38,43.039524 38,44.1641876 C38,45.6838079 37.474772,46.8686783 36.4243161,47.721207 C35.3762918,48.5737357 33.912462,49 32.0352584,49 L26,49 L26,32 Z" id="Fill-104" fill="#D74738"></path>
                    <path d="M44.3522833,47.3409298 C45.4846226,47.3409298 46.3746505,47.0304467 47.0223672,46.4071103 C47.6724138,45.786144 47.9962721,44.9044667 47.9962721,43.7597083 L47.9962721,42.6268004 L46.1742777,42.7050137 C44.7576887,42.759526 43.723206,42.9894257 43.0754893,43.3923428 C42.4277726,43.7976299 42.1015843,44.4328168 42.1015843,45.3050137 C42.1015843,45.9591613 42.2996272,46.4639927 42.693383,46.8147675 C43.0871389,47.1655424 43.639329,47.3409298 44.3522833,47.3409298 Z M48.5251631,48.7724704 L48.1314073,46.9854148 L48.0428705,46.9854148 C47.4254427,47.7722881 46.8150047,48.3031905 46.2022367,48.5828624 C45.5917987,48.8601641 44.8205965,49 43.8909599,49 C42.6747437,49 41.7241379,48.6752963 41.0344828,48.0282589 C40.3424977,47.3788514 40,46.4639927 40,45.2813127 C40,42.7334549 41.973439,41.3990884 45.9273066,41.2758432 L48.0195713,41.1952598 L48.0195713,40.4510483 C48.0195713,39.498268 47.8168686,38.7943482 47.4114632,38.3416591 C47.0083877,37.8865998 46.3583411,37.6614403 45.4683131,37.6614403 C44.8136067,37.6614403 44.1985089,37.7609845 43.6160298,37.9577028 C43.0358807,38.1567912 42.4883504,38.3772106 41.9780988,38.6213309 L41.360671,37.0760255 C41.9804287,36.7418414 42.6607642,36.4787603 43.3970177,36.2867821 C44.1309413,36.0971741 44.860205,36 45.5778192,36 C47.0712954,36 48.1826654,36.3365542 48.9072693,37.0072926 C49.6365331,37.678031 50,38.7469462 50,40.2116682 L50,48.7724704 L48.5251631,48.7724704 Z" id="Fill-105" fill="#D74738"></path>
                    <path d="M59.5932149,36 C60.1224556,36 60.5928918,36.048166 61,36.1396814 L60.7625202,38.0687292 C60.3147011,37.9603557 59.8827141,37.9073731 59.4597738,37.9073731 C58.8264943,37.9073731 58.2384491,38.0928122 57.6978998,38.4660986 C57.1550889,38.8369767 56.7298869,39.3523527 56.4268174,40.0074102 C56.1192246,40.6624676 55.9654281,41.3873657 55.9654281,42.1869211 L55.9654281,49 L54,49 L54,36.233605 L55.6171244,36.233605 L55.8365105,38.5696554 L55.9224556,38.5696554 C56.3815832,37.7243423 56.9243942,37.086143 57.5508885,36.6526491 C58.1751212,36.2167469 58.8581583,36 59.5932149,36" id="Fill-106" fill="#D74738"></path>
                    <path d="M72,45.3093722 C72,46.4828025 71.560686,47.388899 70.682058,48.0323931 C69.8034301,48.6758872 68.5686016,49 66.9799472,49 C65.3200528,49 64.0021108,48.7350318 63.0237467,48.2098271 L63.0237467,46.3384895 C64.4081794,47.0080073 65.7403694,47.3415833 67.025066,47.3415833 C68.0651715,47.3415833 68.8203166,47.1759782 69.292876,46.8400364 C69.7701847,46.5040946 70.005277,46.0545951 70.005277,45.4915378 C70.005277,44.9970883 69.7773087,44.5783439 69.3237467,44.2353048 C68.8701847,43.8922657 68.0604222,43.499545 66.8992084,43.0595086 C65.714248,42.600546 64.8807388,42.2125569 64.3986807,41.888444 C63.9189974,41.5643312 63.5627968,41.2023658 63.3395778,40.7978162 C63.1139842,40.3932666 63,39.9035487 63,39.3239308 C63,38.2971793 63.4203166,37.4857143 64.2609499,36.8919017 C65.1039578,36.2957234 66.2556728,36 67.723219,36 C69.1527704,36 70.4897098,36.2815287 71.7364116,36.844586 L71.0382586,38.4793449 C69.760686,37.9470428 68.608971,37.6797088 67.5878628,37.6797088 C66.7306069,37.6797088 66.0799472,37.8145587 65.6358839,38.0842584 C65.1941953,38.3563239 64.9733509,38.7253867 64.9733509,39.1985441 C64.9733509,39.655141 65.1633245,40.033667 65.5456464,40.3341219 C65.9279683,40.6345769 66.8184697,41.0533212 68.2171504,41.5856233 C69.2643799,41.9736124 70.0385224,42.3355778 70.5395778,42.6715196 C71.0406332,43.0050955 71.4087071,43.3836215 71.6461741,43.8023658 C71.8812665,44.2211101 72,44.722657 72,45.3093722" id="Fill-107" fill="#D74738"></path>
                    <polygon id="Fill-108" fill="#D74738" points="76 49 76 32 78.2370408 32 78.2370408 47.0926477 86 47.0926477 86 49"></polygon>
                    <path d="M89.1967347,42.477525 C89.1967347,44.0531392 89.52,45.2502275 90.1616327,46.0687898 C90.8032653,46.8873521 91.7510204,47.2966333 93.004898,47.2966333 C94.2440816,47.2966333 95.1844898,46.8873521 95.8310204,46.0687898 C96.477551,45.2502275 96.7983673,44.0531392 96.7983673,42.477525 C96.7983673,40.899545 96.475102,39.7166515 95.8236735,38.9193813 C95.1722449,38.1244768 94.2220408,37.7246588 92.9681633,37.7246588 C90.4555102,37.7246588 89.1967347,39.3097361 89.1967347,42.477525 M99,42.477525 C99,44.5262966 98.4636735,46.1255687 97.3910204,47.2753412 C96.3183673,48.4251137 94.8391837,49 92.9436735,49 C91.7706122,49 90.7297959,48.7350318 89.8236735,48.2050955 C88.917551,47.6751592 88.2220408,46.9157416 87.7297959,45.9268426 C87.242449,44.9379436 87,43.7881711 87,42.477525 C87,40.4358508 87.5240816,38.8460419 88.5820408,37.7080983 C89.64,36.5701547 91.1191837,36 93.0269388,36 C94.8587755,36 96.3085714,36.5819836 97.3861224,37.7435851 C98.4612245,38.9028207 99,40.4831665 99,42.477525" id="Fill-109" fill="#D74738"></path>
                    <path d="M107.421479,47.6947517 C108.67313,47.6947517 109.584914,47.3428094 110.154485,46.6389246 C110.724057,45.9350399 111.007671,44.8034474 111.007671,43.2465912 L111.007671,42.73823 C111.007671,41.0078467 110.721713,39.7491639 110.147454,38.9621816 C109.575538,38.1751994 108.649691,37.7817083 107.3746,37.7817083 C106.333902,37.7817083 105.527594,38.2143041 104.960367,39.0746077 C104.390795,39.9373553 104.104837,41.1667095 104.104837,42.7626704 C104.104837,44.3684075 104.381419,45.5904296 104.936927,46.4311809 C105.492436,47.2743761 106.319838,47.6947517 107.421479,47.6947517 Z M110.986576,49.0756367 L111.054549,47.4821199 L110.963137,47.4821199 C110.124014,48.7799074 108.841892,49.4300232 107.114426,49.4300232 C105.508843,49.4300232 104.252504,48.8458966 103.35244,47.6776434 C102.452376,46.5093903 102,44.8621045 102,42.73823 C102,40.6559043 102.45472,39.0110625 103.364159,37.8061487 C104.273599,36.6036789 105.518219,36 107.090987,36 C108.773919,36 110.072448,36.6525598 110.986576,37.9601235 L111.110803,37.9601235 L111.380354,36.2370723 L113,36.2370723 L113,49.4055827 C113,51.2630563 112.549968,52.6586056 111.64756,53.5946746 C110.747496,54.5307435 109.34349,55 107.444918,55 C105.633071,55 104.144684,54.723823 102.975069,54.173913 L102.975069,52.2137896 C104.179842,52.8907898 105.71042,53.230512 107.557426,53.230512 C108.614532,53.230512 109.448967,52.9054541 110.063073,52.2626704 C110.679523,51.6149987 110.986576,50.7229226 110.986576,49.5815539 L110.986576,49.0756367 Z" id="Fill-110" fill="#D74738"></path>
                    <path d="M118.196735,42.477525 C118.196735,44.0531392 118.52,45.2502275 119.161633,46.0687898 C119.803265,46.8873521 120.75102,47.2966333 122.004898,47.2966333 C123.244082,47.2966333 124.18449,46.8873521 124.83102,46.0687898 C125.477551,45.2502275 125.798367,44.0531392 125.798367,42.477525 C125.798367,40.899545 125.475102,39.7166515 124.823673,38.9193813 C124.172245,38.1244768 123.222041,37.7246588 121.968163,37.7246588 C119.45551,37.7246588 118.196735,39.3097361 118.196735,42.477525 M128,42.477525 C128,44.5262966 127.463673,46.1255687 126.39102,47.2753412 C125.318367,48.4251137 123.839184,49 121.943673,49 C120.770612,49 119.729796,48.7350318 118.823673,48.2050955 C117.917551,47.6751592 117.222041,46.9157416 116.729796,45.9268426 C116.242449,44.9379436 116,43.7881711 116,42.477525 C116,40.4358508 116.524082,38.8460419 117.582041,37.7080983 C118.64,36.5701547 120.119184,36 122.026939,36 C123.858776,36 125.308571,36.5819836 126.386122,37.7435851 C127.461224,38.9028207 128,40.4831665 128,42.477525" id="Fill-111" fill="#D74738"></path>
                    <polygon id="Fill-112" fill="#94C03D" points="145 29 138.923843 53 137 53 143.097247 29"></polygon>
                    <polygon id="Fill-113" fill="#94C03D" points="147 45.0822707 155.761542 41.2443439 147 36.9053887 147 35 158 40.733443 158 41.9477581 147 47"></polygon>
                    <path d="M163.810026,46 L164,46.2748659 C163.881266,46.7057367 163.741425,47.1638465 163.572559,47.6491952 C163.408971,48.134544 163.224274,48.6273215 163.026385,49.1200991 C162.825858,49.6128766 162.617414,50.1056541 162.401055,50.5959554 C162.184697,51.0862567 161.970976,51.5542716 161.759894,52 L160,52 C160.126649,51.5146513 160.253298,51.0094924 160.37467,50.4845233 C160.498681,49.957078 160.617414,49.432109 160.733509,48.9096162 C160.846966,48.3895997 160.952507,47.8794882 161.044855,47.3817582 C161.137203,46.8815518 161.218997,46.4209657 161.287599,46 L163.810026,46 Z" id="Fill-114" fill="#BBBDBF"></path>
                    <path d="M21.8861298,77 L21.8861298,68.8382734 C21.8861298,67.7978881 21.6498881,67.024824 21.1798658,66.5166728 C20.7073826,66.01093 19.9715884,65.7556502 18.9651007,65.7556502 C17.6263982,65.7556502 16.6543624,66.1193034 16.0465324,66.8442016 C15.4411633,67.5666914 15.1384787,68.7491664 15.1384787,70.3844016 L15.1384787,77 L13,77 L13,64.233605 L14.7225951,64.233605 L15.0449664,65.9772138 L15.1630872,65.9772138 C15.5666667,65.3486476 16.1326622,64.8621712 16.8610738,64.5177844 C17.5894855,64.1733976 18.3941834,64 19.2727069,64 C20.8722595,64 22.0608501,64.3805113 22.8384787,65.1391256 C23.6136465,65.9001482 24,67.0826232 24,68.6865506 L24,77 L21.8861298,77 Z" id="Fill-115" fill="#BBBDBF"></path>
                    <path d="M28.1967347,70.477525 C28.1967347,72.0531392 28.52,73.2502275 29.1616327,74.0687898 C29.8032653,74.8873521 30.7510204,75.2966333 32.004898,75.2966333 C33.2440816,75.2966333 34.1844898,74.8873521 34.8310204,74.0687898 C35.477551,73.2502275 35.7983673,72.0531392 35.7983673,70.477525 C35.7983673,68.899545 35.475102,67.7166515 34.8236735,66.9193813 C34.1722449,66.1244768 33.2220408,65.7246588 31.9681633,65.7246588 C29.4555102,65.7246588 28.1967347,67.3097361 28.1967347,70.477525 M38,70.477525 C38,72.5262966 37.4636735,74.1255687 36.3910204,75.2753412 C35.3183673,76.4251137 33.8391837,77 31.9436735,77 C30.7706122,77 29.7297959,76.7350318 28.8236735,76.2050955 C27.917551,75.6751592 27.2220408,74.9157416 26.7297959,73.9268426 C26.242449,72.9379436 26,71.7881711 26,70.477525 C26,68.4358508 26.5240816,66.8460419 27.5820408,65.7080983 C28.64,64.5701547 30.1191837,64 32.0269388,64 C33.8587755,64 35.3085714,64.5819836 36.3861224,65.7435851 C37.4612245,66.9028207 38,68.4831665 38,70.477525" id="Fill-116" fill="#BBBDBF"></path>
                    <path d="M46.1497963,76.2826909 C46.430586,76.2826909 46.7615168,76.2560847 47.1425885,76.2004535 C47.5211532,76.1472411 47.8069571,76.0843537 48,76.0142101 L48,77.6250945 C47.7994359,77.7121693 47.4860545,77.7944067 47.0623629,77.876644 C46.6386713,77.9588813 46.2074585,78 45.7737386,78 C43.1739267,78 41.8752742,76.6793651 41.8752742,74.040514 L41.8752742,66.5786848 L40,66.5786848 L40,65.5749055 L41.9003447,64.7331822 L42.7702914,62 L44.0664369,62 L44.0664369,64.943613 L47.9047321,64.943613 L47.9047321,66.5786848 L44.0664369,66.5786848 L44.0664369,73.9824641 C44.0664369,74.7226002 44.2494516,75.2910053 44.6179881,75.6876795 C44.9840175,76.0843537 45.495456,76.2826909 46.1497963,76.2826909" id="Fill-117" fill="#BBBDBF"></path>
                    <path d="M54.6651943,65.6797088 C53.6545936,65.6797088 52.8577739,65.9943585 52.2723057,66.6260237 C51.6844081,67.2600546 51.3370141,68.1401274 51.2276943,69.266242 L57.7844523,69.266242 C57.767447,68.0951774 57.4905035,67.2032757 56.9511926,66.5929026 C56.4118816,65.9848954 55.6490724,65.6797088 54.6651943,65.6797088 M55.1923587,77 C53.2610424,77 51.7451413,76.4298453 50.6470848,75.2919017 C49.5490283,74.1539581 49,72.5854413 49,70.5910828 C49,68.5801638 49.5125883,66.9785259 50.5353357,65.788535 C51.5605124,64.5961783 52.9428004,64 54.6894876,64 C56.3074205,64 57.597394,64.5086442 58.5594081,65.5259327 C59.5189929,66.5408553 60,67.9177434 60,69.6542311 L60,70.9010009 L51.1791078,70.9010009 C51.2204064,72.3228389 51.5896643,73.4040036 52.2941696,74.144495 C52.9986749,74.8826206 53.997129,75.2516833 55.2871025,75.2516833 C55.9746025,75.2516833 56.6280919,75.1925387 57.2451413,75.0742493 C57.8621908,74.95596 58.5861307,74.7264786 59.4145318,74.3834395 L59.4145318,76.188535 C58.7027385,76.4842584 58.0346731,76.6948135 57.4103357,76.8178344 C56.7835689,76.9384895 56.0426237,77 55.1923587,77" id="Fill-118" fill="#BBBDBF"></path>
                    <path d="M69.5398042,65.7269382 C68.2894849,65.7269382 67.3903789,66.0840999 66.8495104,66.8007884 C66.3063006,67.517477 66.0346956,68.7285151 66.0346956,70.4315375 L66.0346956,70.5237845 C66.0346956,72.2362681 66.3109834,73.461498 66.8659004,74.1947438 C67.4208174,74.9303548 68.3246062,75.2969777 69.5866326,75.2969777 C70.698808,75.2969777 71.5323542,74.8854139 72.0779055,74.0575558 C72.6234568,73.2320631 72.8974032,72.0375821 72.8974032,70.4788436 C72.8974032,68.8940867 72.6211154,67.7067017 72.0708812,66.9143233 C71.5229885,66.1219448 70.6753938,65.7269382 69.5398042,65.7269382 M69.8793103,64.0262812 C71.5136228,64.0262812 72.7756492,64.5939553 73.6653895,65.7316689 C74.5551298,66.8717477 75,68.4612352 75,70.5024967 C75,72.5721419 74.5481056,74.1710907 73.6419753,75.3017083 C72.7381865,76.4323259 71.4831843,77 69.8793103,77 C69.0410813,77 68.2965092,76.8462549 67.6385696,76.5411301 C66.9829715,76.2383706 66.4491273,75.7842313 66.0346956,75.1834428 L65.8778203,75.1834428 C65.6436782,76.096452 65.5031928,76.6262812 65.4587058,76.770565 L64,76.770565 L64,59 L66.0346956,59 L66.0346956,63.3166886 C66.0346956,64.177661 65.9972329,65.0386334 65.9223074,65.8996058 L66.0346956,65.8996058 C66.8705832,64.6507227 68.151341,64.0262812 69.8793103,64.0262812" id="Fill-119" fill="#BBBDBF"></path>
                    <path d="M79.1967347,70.477525 C79.1967347,72.0531392 79.52,73.2502275 80.1616327,74.0687898 C80.8032653,74.8873521 81.7510204,75.2966333 83.004898,75.2966333 C84.2440816,75.2966333 85.1844898,74.8873521 85.8310204,74.0687898 C86.477551,73.2502275 86.7983673,72.0531392 86.7983673,70.477525 C86.7983673,68.899545 86.475102,67.7166515 85.8236735,66.9193813 C85.1722449,66.1244768 84.2220408,65.7246588 82.9681633,65.7246588 C80.4555102,65.7246588 79.1967347,67.3097361 79.1967347,70.477525 M89,70.477525 C89,72.5262966 88.4636735,74.1255687 87.3910204,75.2753412 C86.3183673,76.4251137 84.8391837,77 82.9436735,77 C81.7706122,77 80.7297959,76.7350318 79.8236735,76.2050955 C78.917551,75.6751592 78.2220408,74.9157416 77.7297959,73.9268426 C77.242449,72.9379436 77,71.7881711 77,70.477525 C77,68.4358508 77.5240816,66.8460419 78.5820408,65.7080983 C79.64,64.5701547 81.1191837,64 83.0269388,64 C84.8587755,64 86.3085714,64.5819836 87.3861224,65.7435851 C88.4612245,66.9028207 89,68.4831665 89,70.477525" id="Fill-120" fill="#BBBDBF"></path>
                    <path d="M94.1967347,70.477525 C94.1967347,72.0531392 94.52,73.2502275 95.1616327,74.0687898 C95.8032653,74.8873521 96.7510204,75.2966333 98.004898,75.2966333 C99.2440816,75.2966333 100.18449,74.8873521 100.83102,74.0687898 C101.477551,73.2502275 101.798367,72.0531392 101.798367,70.477525 C101.798367,68.899545 101.475102,67.7166515 100.823673,66.9193813 C100.172245,66.1244768 99.2220408,65.7246588 97.9681633,65.7246588 C95.4555102,65.7246588 94.1967347,67.3097361 94.1967347,70.477525 M104,70.477525 C104,72.5262966 103.463673,74.1255687 102.39102,75.2753412 C101.318367,76.4251137 99.8391837,77 97.9436735,77 C96.7706122,77 95.7297959,76.7350318 94.8236735,76.2050955 C93.917551,75.6751592 93.2220408,74.9157416 92.7297959,73.9268426 C92.242449,72.9379436 92,71.7881711 92,70.477525 C92,68.4358508 92.5240816,66.8460419 93.5820408,65.7080983 C94.64,64.5701547 96.1191837,64 98.0269388,64 C99.8587755,64 101.308571,64.5819836 102.386122,65.7435851 C103.461224,66.9028207 104,68.4831665 104,70.477525" id="Fill-121" fill="#BBBDBF"></path>
                    <polygon id="Fill-122" fill="#BBBDBF" points="108.974713 70.4641288 109.652874 69.5632903 110.429885 68.5905763 114.324138 64.299614 116.657471 64.299614 111.726437 69.7238121 117 77 114.590805 77 110.363218 71.0774657 108.974713 72.3376814 108.974713 77 107 77 107 59 108.974713 59 108.974713 68.4060961 108.887356 70.4641288"></polygon>
                    <path d="M5,98.0998579 C5,99.2202151 4.9375,100.318652 4.8125,101.392734 C4.68526786,102.46438 4.49107143,103.504364 4.22991071,104.507814 C3.96651786,105.511264 3.63839286,106.47331 3.23883929,107.393952 C2.83928571,108.314593 2.36383929,109.184088 1.81026786,110 L0.0223214286,110 C0.517857143,109.145119 0.957589286,108.248833 1.34598214,107.306272 C1.734375,106.366146 2.0625,105.387051 2.328125,104.366552 C2.59375,103.348488 2.79241071,102.31094 2.91964286,101.256343 C3.04910714,100.201745 3.11383929,99.1422772 3.11383929,98.0755023 C3.11383929,95.8883702 2.85267857,93.7621271 2.328125,91.6967729 C1.80357143,89.6314187 1.02901786,87.7316826 0,86 L1.81026786,86 C2.36383929,86.8305257 2.83928571,87.7170692 3.23883929,88.6620662 C3.63839286,89.6070631 3.96651786,90.5934646 4.22991071,91.6261417 C4.49107143,92.6563832 4.68526786,93.7158514 4.8125,94.8021108 C4.9375,95.8859346 5,96.9868074 5,98.0998579" id="Fill-123" fill="#D0D2D3"></path>
                    <path d="M8.99264706,94.5997616 C8.99264706,94.2993593 9.03431373,94.049024 9.1127451,93.8463716 C9.19117647,93.6413351 9.29656863,93.4768291 9.43137255,93.3504694 C9.56372549,93.2241097 9.72303922,93.1335121 9.90441176,93.0786768 C10.0857843,93.0262256 10.2818627,93 10.495098,93 C10.7009804,93 10.8946078,93.0262256 11.0833333,93.0786768 C11.2671569,93.1335121 11.4264706,93.2241097 11.5612745,93.3504694 C11.6960784,93.4768291 11.8014706,93.6413351 11.8823529,93.8463716 C11.9583333,94.049024 12,94.2993593 12,94.5997616 C12,94.8834749 11.9583333,95.1242736 11.8823529,95.3245418 C11.8014706,95.52481 11.6960784,95.689316 11.5612745,95.820444 C11.4264706,95.9491879 11.2671569,96.0445537 11.0833333,96.1065415 C10.8946078,96.1685293 10.7009804,96.1995232 10.495098,96.1995232 C10.2818627,96.1995232 10.0857843,96.1685293 9.90441176,96.1065415 C9.72303922,96.0445537 9.56372549,95.9491879 9.43137255,95.820444 C9.29656863,95.689316 9.19117647,95.52481 9.1127451,95.3245418 C9.03431373,95.1242736 8.99264706,94.8834749 8.99264706,94.5997616 Z M11.5367647,103.220831 L11.7132353,103.485472 C11.6029412,103.900313 11.4730392,104.34138 11.3186275,104.808672 C11.1642157,105.278349 10.995098,105.75041 10.8088235,106.224855 C10.625,106.701684 10.4313725,107.173745 10.2303922,107.64819 C10.0294118,108.117866 9.83088235,108.56847 9.63235294,109 L8,109 C8.11764706,108.530323 8.23284314,108.043958 8.34803922,107.538519 C8.46078431,107.030696 8.57352941,106.525257 8.67892157,106.024586 C8.78676471,105.521532 8.88235294,105.030398 8.96813725,104.551185 C9.05637255,104.071971 9.13235294,103.62852 9.19362745,103.220831 L11.5367647,103.220831 Z" id="Fill-124" fill="#D0D2D3"></path>
                </g>
            </g>
        </g>
    </g>
</svg>