<svg width="705" height="608" viewBox="0 0 705 608" fill="none" xmlns="http://www.w3.org/2000/svg">
<path fill-rule="evenodd" clip-rule="evenodd" d="M524.683 403.623L522.644 401.584C522.08 401.021 522.081 400.108 522.644 399.545L524.729 397.461C525.291 396.898 525.29 395.985 524.729 395.423H524.729C524.166 394.859 523.252 394.859 522.69 395.423L520.605 397.507C520.042 398.069 519.13 398.069 518.567 397.507L516.528 395.469C515.965 394.905 515.053 394.905 514.49 395.469L514.466 395.491C513.905 396.055 513.905 396.967 514.467 397.53L516.505 399.568C517.069 400.132 517.069 401.044 516.505 401.607L514.421 403.691C513.859 404.255 513.859 405.167 514.421 405.73C514.985 406.293 515.898 406.293 516.461 405.73L518.544 403.645C519.108 403.083 520.02 403.083 520.583 403.645L522.62 405.685C523.184 406.247 524.097 406.247 524.661 405.685L524.682 405.661C525.245 405.099 525.245 404.185 524.683 403.623Z" fill="#C0C2C4"/>
<path fill-rule="evenodd" clip-rule="evenodd" d="M292.818 336.826L297.908 317L276 332.067L292.818 336.826ZM293.359 323.51L290.829 333.367L282.467 331L293.359 323.51Z" fill="#D74738"/>
<path fill-rule="evenodd" clip-rule="evenodd" d="M299.792 382.552L296.587 379.347C295.702 378.462 295.703 377.028 296.587 376.143L299.863 372.866C300.748 371.982 300.748 370.548 299.864 369.663H299.863C298.979 368.779 297.544 368.779 296.659 369.663L293.383 372.94C292.498 373.824 291.064 373.824 290.18 372.94L286.976 369.736C286.091 368.85 284.656 368.85 283.771 369.736L283.735 369.772C282.852 370.656 282.852 372.091 283.736 372.976L286.94 376.18C287.824 377.065 287.824 378.499 286.94 379.383L283.664 382.659C282.779 383.544 282.779 384.979 283.664 385.864C284.549 386.748 285.982 386.748 286.868 385.864L290.144 382.587C291.028 381.702 292.463 381.702 293.348 382.587L296.552 385.792C297.437 386.676 298.871 386.676 299.756 385.792L299.791 385.756C300.676 384.871 300.676 383.437 299.792 382.552Z" fill="#94C03D"/>
<path fill-rule="evenodd" clip-rule="evenodd" d="M682.761 0.534404L680.229 3.0944C679.53 3.8014 678.391 3.80741 677.684 3.10841L675.067 0.520412C674.36 -0.178588 673.22 -0.172596 672.522 0.534404L672.521 0.535411C671.822 1.24141 671.827 2.38141 672.535 3.08041L675.153 5.66841C675.859 6.36741 675.865 7.50741 675.166 8.21441L672.635 10.7734C671.936 11.4804 671.943 12.6204 672.649 13.3194L672.678 13.3484C673.385 14.0464 674.525 14.0404 675.223 13.3334L677.755 10.7744C678.454 10.0664 679.594 10.0604 680.3 10.7594L682.917 13.3474C683.624 14.0464 684.764 14.0404 685.463 13.3324C686.162 12.6264 686.156 11.4864 685.449 10.7874L682.832 8.2004C682.124 7.5004 682.118 6.36041 682.818 5.65441L685.349 3.0944C686.048 2.3874 686.041 1.24741 685.334 0.548412L685.306 0.519405C684.599 -0.178595 683.459 -0.172596 682.761 0.534404Z" fill="#795EA8"/>
<path fill-rule="evenodd" clip-rule="evenodd" d="M36.906 66.9388C35.544 67.4818 33.789 67.6968 31.944 67.6018C28.773 67.4378 26.154 66.4838 20.953 63.8538L19.353 63.0528C16.751 61.7938 14.941 61.0818 12.893 60.9758C9.92499 60.8228 8.34799 61.5658 4.26399 65.1478L0 60.3098C4.083 56.7278 5.67499 55.6788 8.29199 54.6828C9.65399 54.1398 11.513 53.9308 13.253 54.0198C16.322 54.1788 19.357 55.0478 24.141 57.7638L25.739 58.6638C28.229 60.1238 30.156 60.5358 32.204 60.6408C35.171 60.7938 36.75 60.0508 40.833 56.4688L45.202 61.3118C41.117 64.8948 39.522 65.9428 36.906 66.9388Z" fill="#D74738"/>
<path fill-rule="evenodd" clip-rule="evenodd" d="M685.337 220.669C685.337 223.247 683.247 225.337 680.669 225.337C678.09 225.337 676 223.247 676 220.669C676 218.091 678.09 216 680.669 216C683.247 216 685.337 218.091 685.337 220.669Z" fill="#F4CB23"/>
<path fill-rule="evenodd" clip-rule="evenodd" d="M154.356 539.744L152.761 538.149C152.321 537.709 152.322 536.995 152.761 536.555L154.392 534.925C154.832 534.484 154.832 533.77 154.392 533.33C153.952 532.89 153.238 532.89 152.797 533.33L151.168 534.961C150.727 535.4 150.013 535.4 149.573 534.961L147.978 533.366C147.539 532.926 146.825 532.926 146.383 533.366L146.366 533.384C145.926 533.824 145.926 534.538 146.366 534.978L147.96 536.573C148.401 537.014 148.401 537.727 147.96 538.168L146.331 539.798C145.89 540.238 145.89 540.951 146.331 541.391C146.771 541.832 147.485 541.832 147.925 541.391L149.555 539.762C149.996 539.321 150.71 539.321 151.15 539.762L152.744 541.356C153.184 541.797 153.898 541.797 154.338 541.356L154.356 541.339C154.796 540.898 154.796 540.184 154.356 539.744Z" fill="#C0C2C4"/>
<path fill-rule="evenodd" clip-rule="evenodd" d="M234.613 173.234C216.076 173.234 201 158.158 201 139.62C201 121.082 216.076 106 234.613 106C253.151 106 268.227 121.082 268.227 139.62C268.227 158.158 253.151 173.234 234.613 173.234ZM234.613 116.082C221.638 116.082 211.08 126.64 211.08 139.62C211.08 152.594 221.638 163.152 234.613 163.152C247.589 163.152 258.145 152.594 258.145 139.62C258.145 126.64 247.589 116.082 234.613 116.082Z" fill="#F4CB23"/>
<path fill-rule="evenodd" clip-rule="evenodd" d="M371.5 608C334.826 608 305 578.177 305 541.507C305 504.836 334.826 475 371.5 475C408.174 475 438 504.836 438 541.507C438 578.177 408.174 608 371.5 608ZM371.5 494.944C345.832 494.944 324.943 515.831 324.943 541.507C324.943 567.172 345.832 588.057 371.5 588.057C397.169 588.057 418.054 567.172 418.054 541.507C418.054 515.831 397.169 494.944 371.5 494.944Z" fill="#10C0E8"/>
<path fill-rule="evenodd" clip-rule="evenodd" d="M175 421C146.323 421 123 397.68 123 369.005C123 340.33 146.323 317 175 317C203.677 317 227 340.33 227 369.005C227 397.68 203.677 421 175 421ZM175 332.596C154.928 332.596 138.593 348.929 138.593 369.005C138.593 389.075 154.928 405.405 175 405.405C195.072 405.405 211.403 389.075 211.403 369.005C211.403 348.929 195.072 332.596 175 332.596Z" fill="#E5E6E7"/>
<path fill-rule="evenodd" clip-rule="evenodd" d="M693.073 317L681.568 353.475H676L687.446 317H693.073Z" fill="#D0D2D3"/>
<path fill-rule="evenodd" clip-rule="evenodd" d="M47.303 222.651C47.303 224.668 45.668 226.302 43.652 226.302C41.634 226.302 40 224.668 40 222.651C40 220.634 41.634 219 43.652 219C45.668 219 47.303 220.634 47.303 222.651Z" fill="#F4CB23"/>
<path fill-rule="evenodd" clip-rule="evenodd" d="M102.656 444.345L101.31 444.334C100.873 444.329 100.489 444.282 100.175 444.191C99.887 444.108 99.65 443.971 99.451 443.772C99.247 443.571 99.092 443.283 98.989 442.916C98.88 442.519 98.826 442.016 98.831 441.419L98.847 439.262C98.853 438.549 98.775 437.934 98.613 437.433C98.45 436.929 98.207 436.454 97.889 436.019C97.596 435.623 97.22 435.259 96.771 434.935C96.475 434.721 96.164 434.529 95.843 434.363C96.166 434.204 96.48 434.019 96.785 433.808C97.247 433.488 97.628 433.128 97.918 432.74C98.24 432.312 98.49 431.842 98.662 431.341C98.831 430.842 98.921 430.228 98.926 429.514L98.944 427.356C98.948 426.763 99.01 426.262 99.127 425.864C99.234 425.498 99.394 425.214 99.601 425.019C99.809 424.822 100.052 424.688 100.341 424.609C100.656 424.522 101.036 424.48 101.471 424.484L102.815 424.495L102.837 422.015L101.056 422C99.52 421.989 98.291 422.424 97.398 423.295C96.502 424.17 96.041 425.457 96.026 427.122L96.012 428.958C96.008 429.502 95.952 430.055 95.847 430.604C95.752 431.115 95.568 431.557 95.302 431.918C95.04 432.273 94.708 432.534 94.287 432.715C93.855 432.9 93.306 432.991 92.653 432.985L92.023 432.983L92 435.682L92.632 435.685C93.294 435.692 93.836 435.792 94.26 435.983C94.672 436.166 95.009 436.44 95.262 436.798C95.525 437.167 95.696 437.6 95.787 438.123C95.884 438.669 95.928 439.223 95.924 439.768L95.91 441.605C95.896 443.271 96.337 444.565 97.219 445.453C97.981 446.224 99.008 446.669 100.273 446.781C100.463 446.797 100.657 446.808 100.857 446.809L102.635 446.824L102.656 444.345Z" fill="#D0D2D3"/>
<path fill-rule="evenodd" clip-rule="evenodd" d="M18.656 238.345L17.31 238.334C16.873 238.329 16.489 238.282 16.175 238.191C15.887 238.108 15.65 237.971 15.451 237.772C15.247 237.571 15.092 237.283 14.989 236.916C14.88 236.519 14.826 236.016 14.831 235.419L14.847 233.262C14.853 232.549 14.775 231.934 14.613 231.433C14.45 230.929 14.207 230.454 13.889 230.019C13.596 229.623 13.22 229.259 12.771 228.935C12.475 228.721 12.164 228.529 11.843 228.363C12.166 228.204 12.48 228.019 12.785 227.808C13.247 227.488 13.628 227.128 13.918 226.74C14.24 226.312 14.49 225.842 14.662 225.341C14.831 224.842 14.921 224.228 14.926 223.514L14.944 221.356C14.948 220.763 15.01 220.262 15.127 219.864C15.234 219.498 15.394 219.214 15.601 219.019C15.809 218.822 16.052 218.688 16.341 218.609C16.656 218.522 17.036 218.48 17.471 218.484L18.815 218.495L18.837 216.015L17.056 216C15.52 215.989 14.291 216.424 13.398 217.295C12.502 218.17 12.041 219.457 12.026 221.122L12.012 222.958C12.008 223.502 11.952 224.055 11.847 224.604C11.752 225.115 11.568 225.557 11.302 225.918C11.04 226.273 10.708 226.534 10.287 226.715C9.85502 226.9 9.30602 226.991 8.65302 226.985L8.02301 226.983L8 229.682L8.63202 229.685C9.29402 229.692 9.83601 229.792 10.26 229.983C10.672 230.166 11.009 230.44 11.262 230.798C11.525 231.167 11.696 231.6 11.787 232.123C11.884 232.669 11.928 233.223 11.924 233.768L11.91 235.605C11.896 237.271 12.337 238.565 13.219 239.453C13.981 240.224 15.008 240.669 16.273 240.781C16.463 240.797 16.657 240.808 16.857 240.809L18.635 240.824L18.656 238.345Z" fill="#D0D2D3"/>
<path fill-rule="evenodd" clip-rule="evenodd" d="M674 116.525L704.899 116L675.093 142.893L674 116.525ZM695.708 119.765L677.486 120.077L678.135 135.624L695.708 119.765Z" fill="#10C0E8"/>
<path fill-rule="evenodd" clip-rule="evenodd" d="M61.6287 526.629L72.198 555.669L37.0575 536.258L61.6287 526.629ZM65.6425 548.207L59.4072 531.082L44.9211 536.764L65.6425 548.207Z" fill="#6BB22D"/>
<path fill-rule="evenodd" clip-rule="evenodd" d="M375.073 108L363.568 144.474H358L369.447 108H375.073Z" fill="#F4CB23"/>
<path fill-rule="evenodd" clip-rule="evenodd" d="M599.494 541.691C598.368 542.139 596.918 542.316 595.393 542.239C592.773 542.102 590.609 541.315 586.311 539.141L584.991 538.48C582.84 537.439 581.346 536.85 579.652 536.763C577.2 536.636 575.898 537.251 572.522 540.211L569 536.213C572.373 533.253 573.688 532.386 575.851 531.564C576.976 531.116 578.513 530.942 579.95 531.016C582.486 531.147 584.994 531.866 588.947 534.109L590.266 534.853C592.324 536.059 593.917 536.399 595.608 536.487C598.059 536.613 599.365 536 602.738 533.04L606.348 537.042C602.973 540.003 601.655 540.868 599.494 541.691Z" fill="#10C0E8"/>
<path fill-rule="evenodd" clip-rule="evenodd" d="M155.337 32.669C155.337 35.247 153.247 37.337 150.669 37.337C148.09 37.337 146 35.247 146 32.669C146 30.09 148.09 28 150.669 28C153.247 28 155.337 30.09 155.337 32.669Z" fill="#10C0E8"/>
</svg>
