<svg xmlns="http://www.w3.org/2000/svg" width="154" height="65" viewBox="0 0 154 65"><g><g><g><g><g><g><path fill="#fff" d="M3.891 36.734l12.177-.123c1.004 0 1.883.86 1.883 1.965V41.4c0 1.106-.879 1.965-1.883 1.965H3.891zm0-9.443h16.445V23.49H0v23.79h16.068c3.138 0 5.774-2.576 5.774-5.764v-2.82c0-3.189-2.636-5.764-5.774-5.764H3.891z"/></g><g><path fill="#fff" d="M58.121 27.174h12.177c1.004 0 1.883.86 1.883 1.965v2.824c0 1.106-.879 1.965-1.883 1.965l-12.177-.122zm0 10.423h12.177c3.138 0 5.774-2.575 5.774-5.763v-2.82c0-3.189-2.636-5.764-5.774-5.764H54.23v23.79h3.891v-9.443z"/></g><g><path fill="#fff" d="M86.364 23.37h15.064v3.801H86.364c-1.004 0-1.883.859-1.883 1.962v12.385c0 1.104.88 1.962 1.883 1.962h15.064v3.802H86.364c-3.138 0-5.774-2.575-5.774-5.764V29.133c0-3.188 2.51-5.763 5.774-5.763z"/></g><g><path fill="#fff" d="M27.998 47.16H23.73l11.298-23.79h4.393L50.72 47.16h-4.268l-2.887-6.623H30.885zm4.77-10.301h8.913l-4.394-9.197z"/></g></g><g><g><path fill="#fff" d="M68.42 54.39h4.644c.502 0 .879.368.879.858v.859c0 .49-.377.858-.879.858H68.42zm0 4.782h5.146c1.507 0 2.762-1.226 2.762-2.697v-1.717c0-1.472-1.255-2.698-2.762-2.698H66.16v11.281h2.26v-4.169z"/></g><g><path fill="#fff" d="M54.23 52.18h9.791v2.207H56.49v9.074h-2.26z"/></g><g><path fill="#fff" d="M79.963 63.469h2.385C83.603 61.384 89 52.31 89 52.31h-2.51l-3.39 6.009-3.64-6.009H76.95l4.77 8.093c-.25.368-1.255 2.33-1.757 3.066z"/></g><g><path fill="#fff" d="M90.26 52.18v11.281h2.134v-9.074h6.779V63.462h2.26V52.18z"/></g></g></g><g><g><path fill="#fff" d="M132.464 62.85c.238.128.238.383 0 .51l-.951.509c-.238.127-.714.127-.952 0l-13.085-7c-.238-.127-.476-.509-.476-.763v-4.582c0-.254.238-.381.357-.254z"/></g><g><g><path fill="#fff" d="M128.54 15.382c-.238.127-.476.509-.595.763l-6.305 34.743c0 .254.119.636.357.89l2.736 2.164c.238.128.476.128.714-.127l27.24-53.45c.12-.255 0-.382-.237-.255z"/></g></g><g><g><path fill="#fff" d="M117.477 23.018c-.238.127-.357.509-.357.89v23.544c0 .255.238.637.357.891l1.903 1.4c.238.127.476.127.476-.255l4.758-31.434c0-.254-.119-.381-.357-.254z"/></g></g><g><g><path fill="#fff" d="M127.228 55.22c-.119.254-.119.636.12.763l2.854 2.163a.956.956 0 0 0 .833 0l19.39-17.562c.238-.254.357-.636.238-.89l-4.759-17.563c-.119-.255-.238-.255-.356 0z"/></g></g><g><g><path fill="#fff" d="M149.71 46.056c-.12-.255-.358-.382-.596-.127l-16.416 13.617c-.237.127-.237.509 0 .636l1.904 1.527c.238.128.595.255.832.128l14.632-6.618c.238-.127.357-.51.238-.764z"/></g></g></g></g></g></g></svg>