<svg width="100" height="125" viewBox="0 0 100 125" fill="none" xmlns="http://www.w3.org/2000/svg">
<path d="M73.9375 7.00154C73.1451 7.07174 72.7816 8.28974 73.406 8.78212L83.3169 17.029C71.4932 17.029 59.6414 17.029 47.8316 17.029C47.3077 17.0781 46.8758 17.5989 46.9249 18.1223C46.974 18.6457 47.4953 19.0773 48.0192 19.0282H83.2856L73.406 27.2438C72.9101 27.5349 72.774 28.2929 73.1376 28.7381C73.5013 29.1832 74.2719 29.2017 74.6566 28.7745L86.6622 18.7783C87.1074 18.4044 87.1074 17.6214 86.6622 17.2476L74.6566 7.25142C74.4617 7.07893 74.1974 6.98704 73.9375 7.00148V7.00154ZM31.0112 9.03206C29.09 9.03206 27.5023 9.7664 26.4779 10.9063C25.4534 12.0463 24.9856 13.5279 25.0084 15.0297C25.0084 28.7635 25.0367 44.085 25.0397 58.0759C24.2615 56.5582 23.5391 54.8892 22.8512 53.1403C21.6779 50.1573 20.562 47.1871 18.7242 45.2995C18.7138 45.2993 18.7034 45.2993 18.693 45.2995C15.8399 42.5581 12.2534 42.4546 9.46993 44.2999C9.44873 44.3099 9.42787 44.32 9.4074 44.3311C7.74997 45.6089 7.05519 47.4269 7.00003 49.1105C6.94609 50.7565 7.45265 52.296 8.15682 53.4526C14.49 65.0502 19.9535 77.6795 26.1965 87.5334C27.2385 88.8301 28.1554 90.3643 29.1979 91.5319C29.9288 92.3392 30.7869 92.7625 31.8241 92.9688C31.8855 92.9848 31.9484 92.9958 32.0117 92.9998C41.0355 92.9998 50.0674 92.9998 59.0868 92.9998C61.3212 92.8573 63.1727 91.4058 64.6832 89.4386C66.1937 87.4715 67.4181 84.9237 68.4349 82.1914C70.4685 76.727 71.6545 70.5567 72.0303 67.1034C72.0318 67.0724 72.0318 67.0414 72.0303 67.0094V53.0147C72.0303 51.289 71.1101 49.5827 69.6855 48.2665C68.2609 46.9503 66.2764 46.0176 64.0266 46.0173C62.7219 46.0171 61.4807 46.4204 60.4625 46.892C60.2475 46.9916 60.0917 47.1002 59.8997 47.2044C59.5339 45.1066 58.3381 43.713 57.0233 42.9872C55.3502 42.0636 53.6045 42.0244 53.0215 42.0188C50.8257 41.9856 49.2786 42.5335 48.2067 43.4558C48.0521 43.5888 47.9655 43.7508 47.8316 43.8931C47.6505 42.7303 47.2701 41.6235 46.4872 40.8006C45.4524 39.7129 43.9458 39.1122 42.0789 39.02C40.6508 38.9393 39.1835 39.4815 38.0145 40.3632V15.0291C38.0145 11.8956 35.3207 9.03139 32.0117 9.03139L31.0112 9.03206ZM31.0112 11.0313H32.0117C34.0969 11.0313 36.0136 13.1116 36.0136 15.0297C36.0136 24.7119 36.0136 34.4046 36.0136 44.0812C36.0298 44.6047 36.5214 45.0662 37.0453 45.0498C37.5692 45.0334 38.031 44.5422 38.0145 44.0187V43.925C37.9681 43.3777 38.4044 42.6139 39.2338 41.9882C40.0632 41.3626 41.1937 40.9769 41.9538 41.0199C43.4423 41.0934 44.4215 41.5474 45.049 42.2069C45.6765 42.8664 46.0182 43.7904 46.0182 45.0183V47.0176C46.0257 47.4655 46.3716 47.8853 46.8101 47.9787C47.2486 48.0717 47.7358 47.8296 47.9254 47.4237C48.4028 46.4056 48.8448 45.5679 49.5199 44.9871C50.1949 44.4062 51.1593 43.9905 53.0215 44.0187C53.4688 44.0227 54.8933 44.0964 56.0541 44.7372C57.215 45.378 58.1847 46.3995 58.0238 48.9543C57.9904 49.3865 58.2729 49.8239 58.6808 49.9715C59.0886 50.119 59.586 49.9615 59.8372 49.6103C59.796 49.6643 59.9736 49.4476 60.2436 49.2667C60.5136 49.0859 60.89 48.8974 61.3066 48.7044C62.1397 48.3186 63.1622 48.0171 64.0266 48.0172C65.7169 48.0174 67.2491 48.7263 68.3411 49.7353C69.4332 50.7442 70.0294 52.0465 70.0294 53.0153V66.885C69.6746 70.1451 68.5073 76.2379 66.559 81.4732C65.5849 84.0908 64.4357 86.5069 63.1199 88.2205C61.8042 89.9341 60.404 90.9089 58.9618 91.0008H32.1993C31.3644 90.8348 31.2402 90.7868 30.6986 90.1886C30.1669 89.6015 29.3403 88.389 27.8848 86.4401C20.6944 74.6673 15.0186 62.5081 9.87637 52.4842C9.36983 51.6763 8.961 50.3925 9.00096 49.173C9.04092 47.9536 9.46182 46.8223 10.6267 45.9243C12.7619 44.5364 15.004 44.5345 17.2861 46.7052C17.2979 46.7164 17.3055 46.7251 17.3173 46.7364C18.6563 48.131 19.8093 50.9254 20.9753 53.89C22.1484 56.8726 23.3398 60.0037 25.2585 62.2305C25.7725 62.8728 27.041 62.4281 27.0406 61.6058C27.0429 45.5508 27.0104 29.1887 27.0094 14.9985C26.9934 13.9451 27.3312 12.9386 27.9786 12.2183C28.6259 11.498 29.5759 11.0312 31.0112 11.0312V11.0313ZM63.9016 59.9814C63.4101 60.0434 63.0069 60.5177 63.0261 61.0123V67.01C63.0334 69.9201 61.6848 75.1519 61.0877 76.6001C60.8831 77.0908 61.1438 77.7232 61.6349 77.9277C62.126 78.1321 62.759 77.8716 62.9636 77.3809C63.7651 75.4371 65.0358 70.4729 65.0271 67.01V61.0123C65.0497 60.4342 64.4759 59.9087 63.9016 59.9814ZM58.9618 81.973C58.6012 81.999 58.2636 82.2361 58.1176 82.5666C57.8151 83.2082 57.4584 83.8123 57.1171 84.597C56.8051 85.0835 57.0325 85.8258 57.5635 86.0545C58.0945 86.2832 58.7908 85.9386 58.9305 85.378C59.2053 84.7461 59.5729 84.1695 59.931 83.41C60.2386 82.7824 59.6594 81.9237 58.9618 81.973V81.973Z" fill="black"/>
</svg>
