<?xml version="1.0" encoding="UTF-8"?>
<svg width="58px" height="48px" viewBox="0 0 58 48" version="1.1" xmlns="http://www.w3.org/2000/svg" xmlns:xlink="http://www.w3.org/1999/xlink">
    <!-- Generator: Sketch 55 (78076) - https://sketchapp.com -->
    <title>whnoun_Truck_611450 Copy 2</title>
    <desc>Created with Sketch.</desc>
    <defs>
        <path d="M54.311625,10.15325 L56.938375,15.3491 C57.522625,16.5053 58,18.5075 58,19.8 L58,33.9 L58,40.95 C58,42.2472 56.938375,43.3 55.625,43.3 L53.25,43.3 C53.25,39.40605 50.058,36.25 46.125,36.25 C42.192,36.25 39,39.40605 39,43.3 L22.375,43.3 C22.375,39.40605 19.183,36.25 15.25,36.25 C11.317,36.25 8.125,39.40605 8.125,43.3 L3.375,43.3 C2.061625,43.3 1,42.2472 1,40.95 L1,33.9 C1,32.6028 2.061625,31.55 3.375,31.55 L36.625,31.55 L36.625,10.4 C36.625,9.1075 37.69375,8.05 39,8.05 L50.875,8.05 C52.18125,8.05 53.727375,8.9947 54.311625,10.15325 Z M53.25,24.5 L53.25,19.8 C53.25,19.2313 52.946,17.9576 52.6895,17.45 L50.3145,12.75 L41.375,12.75 L41.375,24.5 L53.25,24.5 Z M0,25.85 L0,2.35 C0,1.0528 1.061625,0 2.375,0 L30.875,0 C32.188375,0 33.25,1.0528 33.25,2.35 L33.25,28.2 L2.375,28.2 C1.061625,28.2 0,27.1472 0,25.85 Z M15.25,48 C12.6266474,48 10.5,45.8957383 10.5,43.3 C10.5,40.7042617 12.6266474,38.6 15.25,38.6 C17.8733526,38.6 20,40.7042617 20,43.3 C20,45.8957383 17.8733526,48 15.25,48 Z M46.125,48 C43.5016474,48 41.375,45.8957383 41.375,43.3 C41.375,40.7042617 43.5016474,38.6 46.125,38.6 C48.7483526,38.6 50.875,40.7042617 50.875,43.3 C50.875,45.8957383 48.7483526,48 46.125,48 Z" id="path-1"></path>
    </defs>
    <g id="Frontend" stroke="none" stroke-width="1" fill="none" fill-rule="evenodd">
        <g id="noun_Truck_611450-Copy-2">
            <g id="Group">
                <mask id="mask-2" fill="white">
                    <use xlink:href="#path-1"></use>
                </mask>
                <use id="Mask" fill="#FFFFFF" fill-rule="nonzero" xlink:href="#path-1"></use>
            </g>
        </g>
    </g>
</svg>