<svg width="42" height="48" xmlns="http://www.w3.org/2000/svg" xmlns:xlink="http://www.w3.org/1999/xlink"><defs><path d="M26.18 30.857c9.31 0 15.82-6.37 15.82-15.528C42 6.171 35.49 0 26.18 0H8.313C7.588 0 7 .576 7 1.286v22.139H1.312C.589 23.425 0 24 0 24.71v4.86c0 .71.588 1.286 1.313 1.286H7v3.429H1.312C.589 34.286 0 34.86 0 35.57v4.286c0 .71.588 1.286 1.313 1.286H7v5.571A1.3 1.3 0 0 0 8.313 48h6.404c.725 0 1.313-.576 1.313-1.286v-5.571h17.657c.725 0 1.313-.576 1.313-1.286v-4.286c0-.71-.588-1.285-1.313-1.285H16.03v-3.429h10.15zM16.03 7.366h8.61c5.11 0 8.19 3.119 8.19 7.963 0 4.91-3.08 8.096-8.33 8.096h-8.47V7.365z" id="a"/></defs><use fill="#FFF" xlink:href="#a"/></svg>