<svg width="55" height="51" xmlns="http://www.w3.org/2000/svg" xmlns:xlink="http://www.w3.org/1999/xlink"><defs><path d="M47.48 26.062c.852.74 1.34 1.81 1.34 2.934v20.315c0 .929-.763 1.689-1.697 1.689H7.877c-.934 0-1.697-.76-1.697-1.689V29.007a3.91 3.91 0 0 1 1.348-2.952L25.366 11.52a3.258 3.258 0 0 1 4.268 0l17.847 14.543zm-9.65 8.418v-1.334a.914.914 0 0 0-.832-.908l-1.568-.143a.175.175 0 0 1-.154-.134 7.867 7.867 0 0 0-.962-2.309.174.174 0 0 1 .013-.204l1.008-1.204a.908.908 0 0 0-.056-1.228l-.948-.944a.92.92 0 0 0-1.234-.056l-1.21 1.003a.176.176 0 0 1-.205.014 7.95 7.95 0 0 0-2.32-.957.175.175 0 0 1-.136-.154l-.156-1.701a.759.759 0 0 0-.757-.688h-1.626a.759.759 0 0 0-.757.688l-.156 1.701a.175.175 0 0 1-.135.154 7.95 7.95 0 0 0-2.32.957.176.176 0 0 1-.205-.014l-1.406-1.165a.64.64 0 0 0-.859.04l-1.184 1.177a.823.823 0 0 0-.05 1.113l1.057 1.264c.049.058.054.14.014.204a7.875 7.875 0 0 0-.962 2.309.175.175 0 0 1-.154.134l-1.568.143a.914.914 0 0 0-.833.908v1.334c0 .471.361.865.833.908l1.568.143a.175.175 0 0 1 .154.134c.198.828.527 1.604.962 2.309a.174.174 0 0 1-.014.204l-1.007 1.204a.909.909 0 0 0 .056 1.228l.948.943a.92.92 0 0 0 1.234.056l1.21-1.002a.176.176 0 0 1 .205-.014c.708.434 1.489.76 2.32.957a.175.175 0 0 1 .136.154l.143 1.56c.043.47.438.829.912.829h1.341c.474 0 .87-.36.913-.83l.143-1.56a.175.175 0 0 1 .135-.153 7.947 7.947 0 0 0 2.32-.957.176.176 0 0 1 .205.014l1.21 1.002a.92.92 0 0 0 1.235-.056l.948-.943a.908.908 0 0 0 .056-1.228l-1.008-1.204a.174.174 0 0 1-.013-.204 7.868 7.868 0 0 0 .962-2.309.175.175 0 0 1 .154-.134l1.568-.143a.914.914 0 0 0 .833-.908zm-10.649-4.558c2.366-.186 4.334 1.717 4.239 4.054-.082 2.01-1.737 3.656-3.756 3.737-2.348.095-4.261-1.863-4.075-4.217.15-1.892 1.69-3.425 3.592-3.574zm26.961-8.705c.89.732 1.135 2.02.51 2.986a2.276 2.276 0 0 1-3.35.521L29.353 6.648a2.917 2.917 0 0 0-3.704 0L3.698 24.724a2.276 2.276 0 0 1-3.35-.52c-.625-.967-.38-2.255.51-2.987l6.344-5.225c.36-.296.567-.736.567-1.2V3.825c0-.929.764-1.689 1.698-1.689h4.526c.933 0 1.697.76 1.697 1.689v3.787c0 .554.648.857 1.076.504L25.999.512c.437-.36.972-.525 1.501-.511a2.257 2.257 0 0 1 1.501.511l25.141 20.705z" id="a"/></defs><use fill="#FFF" xlink:href="#a"/></svg>