<svg width="61" height="54" xmlns="http://www.w3.org/2000/svg" xmlns:xlink="http://www.w3.org/1999/xlink"><defs><path d="M34.54 10.55c-.517 2.19-2.12 4.008-4.022 5.217h-.035c-1.903-1.21-3.506-3.028-4.023-5.216-.904-3.823 1.464-7.633 4.04-10.255 2.576 2.621 4.944 6.432 4.04 10.255zm-1.83 6.494c1.811-2.914 5.631-3.808 8.843-3.844-.035 3.2-.934 7.004-3.858 8.806-1.675 1.032-3.79 1.17-5.711.746l-.021-.02c-.426-1.915-.288-4.021.748-5.688zm0 10.242c1.811-2.912 5.631-3.807 8.843-3.843-.035 3.2-.934 7.004-3.858 8.806-1.675 1.032-3.79 1.169-5.711.746l-.021-.021c-.426-1.915-.288-4.02.748-5.688zm0 10.243c1.811-2.913 5.631-3.807 8.843-3.842-.035 3.198-.934 7.003-3.858 8.806-1.675 1.031-3.79 1.168-5.711.745l-.021-.021c-.426-1.914-.288-4.02.748-5.688zm0 10.243c1.811-2.913 5.631-3.808 8.843-3.843-.035 3.199-.934 7.004-3.858 8.806-1.675 1.031-3.79 1.168-5.711.745l-.021-.02c-.426-1.915-.288-4.021.748-5.688zM19.447 13.2c3.213.036 7.033.93 8.842 3.844 1.036 1.667 1.174 3.773.749 5.687l-.021.021c-1.923.423-4.037.286-5.711-.746-2.925-1.802-3.824-5.607-3.859-8.806zm0 10.243c3.213.036 7.033.93 8.842 3.843 1.036 1.667 1.174 3.773.749 5.688l-.021.02c-1.923.425-4.037.287-5.711-.745-2.925-1.802-3.824-5.607-3.859-8.806zm0 10.243c3.213.036 7.033.93 8.842 3.843 1.036 1.667 1.174 3.773.749 5.687l-.021.021c-1.923.424-4.037.286-5.711-.745-2.925-1.802-3.824-5.607-3.859-8.806zm0 10.243c3.213.035 7.033.93 8.842 3.843 1.036 1.667 1.174 3.773.749 5.687l-.021.021c-1.923.424-4.037.286-5.711-.745-2.925-1.802-3.824-5.607-3.859-8.806zm36.397-19.348c-.337 1.427-1.382 2.613-2.623 3.402h-.022c-1.24-.789-2.286-1.975-2.624-3.402-.59-2.492.955-4.977 2.635-6.687 1.68 1.71 3.224 4.195 2.634 6.687zm-1.192 4.234c1.18-1.9 3.671-2.483 5.765-2.506-.023 2.086-.609 4.567-2.516 5.742-1.091.672-2.47.762-3.724.486l-.013-.013c-.278-1.249-.188-2.622.488-3.709zm0 6.68c1.18-1.9 3.671-2.484 5.765-2.507-.023 2.086-.609 4.567-2.516 5.742-1.091.672-2.47.762-3.724.486l-.013-.013c-.278-1.248-.188-2.621.488-3.709zm0 6.678c1.18-1.9 3.671-2.483 5.765-2.507-.023 2.086-.609 4.567-2.516 5.743-1.091.672-2.47.762-3.724.486l-.013-.014c-.278-1.248-.188-2.62.488-3.708zm0 6.679c1.18-1.9 3.671-2.483 5.765-2.506-.023 2.085-.609 4.567-2.516 5.742-1.091.672-2.47.762-3.724.486l-.013-.014c-.278-1.248-.188-2.62.488-3.708zM46 26.309c2.095.023 4.586.607 5.766 2.506.675 1.087.766 2.46.488 3.709l-.013.013c-1.253.276-2.632.187-3.724-.486-1.907-1.175-2.493-3.656-2.517-5.742zm0 6.679c2.095.023 4.586.607 5.766 2.506.675 1.087.766 2.46.488 3.709l-.013.013c-1.253.276-2.632.187-3.724-.486-1.907-1.175-2.493-3.656-2.517-5.742zm0 6.68c2.095.022 4.586.605 5.766 2.505.675 1.087.766 2.46.488 3.709l-.013.013c-1.253.276-2.632.187-3.724-.486-1.907-1.175-2.493-3.656-2.517-5.742zm0 6.678c2.095.023 4.586.606 5.766 2.506.675 1.087.766 2.46.488 3.709l-.013.013c-1.253.276-2.632.187-3.724-.486-1.907-1.175-2.493-3.656-2.517-5.742zM10.426 24.22c-.338 1.427-1.382 2.613-2.623 3.401H7.78c-1.24-.788-2.286-1.974-2.623-3.401-.59-2.493.955-4.978 2.634-6.688 1.68 1.71 3.224 4.195 2.635 6.688zm-1.193 4.234c1.18-1.9 3.671-2.483 5.766-2.506-.024 2.085-.61 4.567-2.517 5.742-1.091.672-2.47.762-3.724.486l-.013-.014c-.278-1.248-.188-2.62.488-3.708zm0 6.678c1.18-1.899 3.671-2.482 5.766-2.506-.024 2.086-.61 4.567-2.517 5.742-1.091.673-2.47.762-3.724.486l-.013-.013c-.278-1.248-.188-2.621.488-3.709zm0 6.68c1.18-1.9 3.671-2.483 5.766-2.507-.024 2.086-.61 4.567-2.517 5.742-1.091.673-2.47.763-3.724.486l-.013-.013c-.278-1.248-.188-2.621.488-3.708zm0 6.679c1.18-1.9 3.671-2.484 5.766-2.507-.024 2.086-.61 4.567-2.517 5.743-1.091.672-2.47.762-3.724.486l-.013-.014c-.278-1.248-.188-2.62.488-3.708zM.583 25.948c2.095.023 4.586.606 5.766 2.506.675 1.087.766 2.46.488 3.708l-.013.014c-1.253.276-2.632.187-3.724-.486C1.193 30.515.607 28.033.584 25.948zm0 6.679c2.095.023 4.586.606 5.766 2.506.675 1.087.766 2.46.488 3.709l-.013.013c-1.253.276-2.632.187-3.724-.486C1.193 37.194.607 34.713.584 32.627zm0 6.678c2.095.024 4.586.607 5.766 2.507.675 1.086.766 2.46.488 3.708l-.013.013c-1.253.277-2.632.187-3.724-.486C1.193 43.872.607 41.391.584 39.305zm0 6.68c2.095.022 4.586.606 5.766 2.506.675 1.086.766 2.46.488 3.708l-.013.014c-1.253.276-2.632.187-3.724-.486C1.193 50.55.607 48.07.584 45.984z" id="a"/></defs><use fill="#FFF" xlink:href="#a" fill-rule="evenodd"/></svg>