<svg xmlns="http://www.w3.org/2000/svg" width="12" height="20"><path fill="#7695bc" d="M.942 5.06a5.06 5.06 0 1 1 10.12 0c0 2.8-2.26 5.06-5.06 5.06S.942 7.86.942 5.06zm5.06-2.49c-1.38 0-2.5 1.12-2.5 2.49 0 1.38 1.12 2.49 2.5 2.49s2.5-1.11 2.5-2.49c0-1.37-1.12-2.49-2.5-2.49zm5.83 8.17c.5 1-.06 1.49-1.33 2.3-1.08.69-2.55.96-3.5 1.05l.79.81 2.98 2.98c.46.46.46 1.19 0 1.62l-.13.16c-.46.45-1.19.45-1.64 0-.76-.76-1.85-1.85-3-2.98l-2.97 2.98c-.45.45-1.19.45-1.64 0l-.14-.16c-.45-.43-.45-1.16 0-1.62.75-.76 1.85-1.85 2.99-2.98l.8-.8c-.96-.1-2.45-.36-3.54-1.06-1.27-.81-1.83-1.3-1.33-2.3.28-.57 1.07-1.05 2.12-.24 1.43 1.14 3.71 1.14 3.71 1.14s2.28 0 3.71-1.14c1.05-.81 1.84-.33 2.12.24z"/></svg>