<svg width="52" height="53" viewBox="0 0 52 53" fill="none" xmlns="http://www.w3.org/2000/svg">
<path d="M26.0625 0.125488C23.625 0.125488 21.1562 0.4458 18.75 1.12549L17.1875 1.56299L17.3125 3.12549C17.4062 4.78955 16.5859 6.47705 15 7.37549C13.4062 8.28174 11.5625 8.11768 10.125 7.18799L8.8125 6.31299L7.625 7.43799C4.02344 10.8599 1.55469 15.1724 0.375 19.813L0 21.3755L1.4375 22.063C2.97656 22.8286 4 24.3442 4 26.1255C4 27.9067 2.97656 29.4302 1.4375 30.188L0 30.8755L0.375 32.438C0.960938 34.7192 1.85938 37.0317 3.125 39.188C4.39063 41.3442 5.91406 43.1802 7.625 44.813L8.8125 45.938L10.125 45.063C11.5078 44.1646 13.2656 44.0239 14.8125 44.813L15 44.8755C16.5859 45.7817 17.4141 47.4536 17.3125 49.1255L17.1875 50.688L18.75 51.1255C21.1094 51.7896 23.5469 52.1411 26 52.1255C28.4531 52.1255 30.8984 51.7817 33.25 51.1255L34.8125 50.688L34.6875 49.063C34.5859 47.3989 35.4062 45.7817 37 44.8755C38.5859 43.9692 40.4375 44.0708 41.875 45.0005L43.1875 45.8755L44.375 44.813C46.0859 43.1802 47.6094 41.2817 48.875 39.1255C49.9766 37.2505 50.6719 35.2896 51.25 33.313H51.375V33.2505C51.3828 33.2349 51.4219 33.0942 51.4375 33.063C51.4844 32.9458 51.5312 32.7974 51.625 32.438L52 30.8755L50.5625 30.188C49.0234 29.4224 48 27.9067 48 26.1255C48 24.3442 49.0234 22.8208 50.5625 22.063L52 21.3755L51.625 19.813C51.0391 17.5317 50.1406 15.2817 48.875 13.1255C47.6094 10.9692 46.0938 9.0708 44.375 7.43799L43.1875 6.31299L41.875 7.18799C40.4375 8.11768 38.5938 8.28174 37 7.37549C35.4062 6.46924 34.5859 4.78955 34.6875 3.12549L34.8125 1.56299L33.25 1.12549C30.9219 0.469238 28.5 0.125488 26.0625 0.125488ZM26.0625 4.12549C27.7734 4.12549 29.4688 4.43018 31.125 4.81299C31.5391 7.24268 32.6875 9.50049 35 10.813C37.3281 12.1333 39.9219 11.9927 42.25 11.1255C43.4219 12.3442 44.5547 13.6177 45.4375 15.1255C46.3125 16.6177 46.8281 18.2271 47.3125 19.813C45.4219 21.3755 44 23.4927 44 26.1255C44 28.7583 45.4219 30.8755 47.3125 32.438C46.8281 34.0239 46.3125 35.6411 45.4375 37.1255C44.5469 38.6411 43.4375 39.8989 42.25 41.1255C39.9141 40.2505 37.3281 40.0552 35 41.3755C32.7031 42.6802 31.5547 44.9692 31.125 47.3755C29.4531 47.7583 27.7266 48.1255 26 48.1255C24.2656 48.1411 22.5391 47.8208 20.875 47.438C20.4609 45.0161 19.3125 42.7505 17 41.438C14.6719 40.1177 12.0781 40.2583 9.75 41.1255C8.57813 39.9067 7.44531 38.6333 6.5625 37.1255C5.6875 35.6333 5.10938 34.0942 4.625 32.5005C6.55469 30.938 8 28.7896 8 26.1255C8 23.4771 6.53906 21.3755 4.625 19.813C5.60938 16.5864 7.39844 13.6489 9.8125 11.1255C12.125 11.9692 14.6953 12.1177 17 10.813C19.3125 9.50049 20.4531 7.23486 20.875 4.81299C22.6016 4.40674 24.3281 4.12549 26.0625 4.12549ZM14.4375 18.1255L14 19.5005L10.125 31.5005L10 31.813V34.1255H14V32.3755L14.0625 32.1255H17.9375L18 32.3755V34.1255H22V31.813L21.875 31.5005L18 19.5005L17.5625 18.1255H14.4375ZM24 18.1255V34.1255H28V30.1255C31.2891 30.1255 34 27.4146 34 24.1255C34 20.8364 31.2891 18.1255 28 18.1255H24ZM36 18.1255V34.1255H40V18.1255H36ZM28 22.1255C29.1328 22.1255 30 22.9927 30 24.1255C30 25.2583 29.1328 26.1255 28 26.1255V22.1255ZM16 26.2505L16.625 28.1255H15.375L16 26.2505Z" fill="#59B4E6"/>
</svg>
