<svg width="48" height="49" viewBox="0 0 48 49" fill="none" xmlns="http://www.w3.org/2000/svg">
<path d="M22 0.0625V2.0625H0V38.0625H48V2.0625H26V0.0625H22ZM4 6.0625H44V34.0625H4V6.0625ZM34 11.25L32.5625 12.625L24 21.1875L17.4375 14.625L16 13.25L14.5625 14.625L8.5625 20.625L11.4375 23.5L16 18.9375L22.5625 25.5L24 26.875L25.4375 25.5L34 16.9375L36.5625 19.5L39.4375 16.625L35.4375 12.625L34 11.25ZM18 40.0625L14 48.0625H18L22 40.0625H18ZM26 40.0625L30 48.0625H34L30 40.0625H26Z" fill="#59B4E6"/>
</svg>
