<svg width="56" height="49" viewBox="0 0 56 49" fill="none" xmlns="http://www.w3.org/2000/svg">
<path d="M28 0.125488C22.7031 0.125488 18.1016 2.60205 14.8125 6.25049C14.5391 6.21924 14.2969 6.12549 14 6.12549C9.60156 6.12549 6 9.72705 6 14.1255C2.53906 16.2349 0 19.7974 0 24.1255C0 30.7271 5.39844 36.1255 12 36.1255H22V32.1255H12C7.5625 32.1255 4 28.563 4 24.1255C4 20.8052 6.01563 17.9692 8.875 16.7505L10.25 16.188L10.0625 14.688C10.0234 14.3599 10 14.1724 10 14.1255C10 11.8911 11.7656 10.1255 14 10.1255C14.2812 10.1255 14.5938 10.1645 14.9375 10.2505L16.1875 10.563L16.9375 9.56299C19.5 6.27393 23.5 4.12549 28 4.12549C34.5547 4.12549 40.0234 8.6333 41.5625 14.688L41.9375 16.2505L43.625 16.188C44.0469 16.1646 44.1406 16.1255 44 16.1255C48.4375 16.1255 52 19.688 52 24.1255C52 28.563 48.4375 32.1255 44 32.1255H34V36.1255H44C50.6016 36.1255 56 30.7271 56 24.1255C56 17.813 51.0234 12.7583 44.8125 12.313C42.3672 5.27393 35.8516 0.125488 28 0.125488ZM26 24.1255V40.1255H20L28 48.1255L36 40.1255H30V24.1255H26Z" fill="#59B4E6"/>
</svg>
