<svg width="56" height="42" viewBox="0 0 56 42" fill="none" xmlns="http://www.w3.org/2000/svg">
<path d="M28 0.4375C22.7031 0.4375 18.1016 2.99145 14.8125 6.75391C14.5391 6.72168 14.2969 6.625 14 6.625C9.60156 6.625 6 10.3391 6 14.875C2.53906 17.0503 0 20.7241 0 25.1875C0 31.9954 5.39844 37.5625 12 37.5625H22V33.4375H12C7.5625 33.4375 4 29.7637 4 25.1875C4 21.7634 6.01563 18.8389 8.875 17.582L10.25 17.002L10.0625 15.4551C10.0234 15.1167 10 14.9233 10 14.875C10 12.5708 11.7656 10.75 14 10.75C14.2812 10.75 14.5938 10.7903 14.9375 10.8789L16.1875 11.2012L16.9375 10.1699C19.5 6.77808 23.5 4.5625 28 4.5625C34.5547 4.5625 40.0234 9.21118 41.5625 15.4551L41.9375 17.0664L43.625 17.002C44.0469 16.9778 44.1406 16.9375 44 16.9375C48.4375 16.9375 52 20.6113 52 25.1875C52 29.7637 48.4375 33.4375 44 33.4375H34V37.5625H44C50.6016 37.5625 56 31.9954 56 25.1875C56 18.6777 51.0234 13.4651 44.8125 13.0059C42.3672 5.74683 35.8516 0.4375 28 0.4375ZM28 16.9375L20 25.1875H26V41.6875H30V25.1875H36L28 16.9375Z" fill="#59B4E6"/>
</svg>
