<svg width="56" height="57" viewBox="0 0 56 57" fill="none" xmlns="http://www.w3.org/2000/svg">
<path d="M24 0.125488V10.1255L28 14.1255V4.12549H42V14.1255H52V40.1255H36V44.1255H56V11.2817L55.5547 10.7505L45.9453 0.60205L45.4453 0.125488H24ZM46.3984 5.93799L50.5 10.2817H46.3984V5.93799ZM0 12.1255V56.1255H32V23.2817L31.5547 22.7505L22 12.1255H0ZM4 16.1255H18V26.1255H28V52.1255H4V16.1255ZM22.3984 17.938L26.5 22.2817H22.3984V17.938ZM36 20.1255V24.1255H48V20.1255H36ZM36 28.1255V32.1255H48V28.1255H36ZM8 32.1255V36.1255H24V32.1255H8ZM8 40.1255V44.1255H24V40.1255H8Z" fill="#59B4E6"/>
</svg>
