<svg width="44" height="48" viewBox="0 0 44 48" fill="none" xmlns="http://www.w3.org/2000/svg">
<path d="M4 0C2.95313 0 1.88281 0.367188 1.125 1.125C0.367188 1.88281 0 2.95313 0 4V36C0 37.0469 0.367188 38.1172 1.125 38.875C1.88281 39.6328 2.95313 40 4 40H16V44C16 45.0469 16.3672 46.1172 17.125 46.875C17.8828 47.6328 18.9531 48 20 48H40C41.0469 48 42.1172 47.6328 42.875 46.875C43.6328 46.1172 44 45.0469 44 44V12C44 10.9531 43.6328 9.88281 42.875 9.125C42.1172 8.36719 41.0469 8 40 8H28V4C28 2.95313 27.6328 1.88281 26.875 1.125C26.1172 0.367188 25.0469 0 24 0H4ZM4 4H24V8H20C18.9531 8 17.8828 8.36719 17.125 9.125C16.3672 9.88281 16 10.9531 16 12V30H11V34H16V36H4V4ZM20 12H40V44H20V12ZM27 38V42H33V38H27Z" fill="#59B4E6"/>
</svg>
