<svg width="151" height="63" xmlns="http://www.w3.org/2000/svg"><defs><linearGradient x1="51.195%" y1="34.247%" x2="42.281%" y2="112.103%" id="a"><stop stop-color="#C32118" offset="0%"/><stop stop-color="#B32318" offset="100%"/></linearGradient><linearGradient x1="49.286%" y1="101.944%" x2="49.992%" y2="11.164%" id="b"><stop stop-color="#6BB22D" offset="0%"/><stop stop-color="#A6C714" offset="100%"/></linearGradient><linearGradient x1="48.702%" y1="82.587%" x2="57.77%" y2="3.15%" id="c"><stop stop-color="#F8C500" offset="0%"/><stop stop-color="#FEDB00" offset="100%"/></linearGradient><linearGradient x1="102.893%" y1="9.49%" x2="20.907%" y2="99.889%" id="d"><stop stop-color="#6CBDEB" offset="0%"/><stop stop-color="#2DA1DB" offset="100%"/></linearGradient></defs><g fill="none" fill-rule="evenodd"><path fill="#FFF" d="M-85-2651h1680V582H-85z"/><g fill="#4F4949"><path d="M3.84 32.426h12.02c3.097 0 5.699 2.535 5.699 5.675v2.777c0 3.139-2.602 5.674-5.7 5.674H0V23.13h20.072v3.743H3.841v5.554zm0 3.743v6.52h12.02c.99 0 1.858-.845 1.858-1.932V37.98c0-1.087-.867-1.932-1.859-1.932l-12.018.12zm53.526.845h12.019c3.097 0 5.7-2.535 5.7-5.675v-2.777c0-3.139-2.603-5.674-5.7-5.674H53.526V46.31h3.84v-9.297zm0-3.743v-6.52h12.019c.99 0 1.858.845 1.858 1.932v2.777c0 1.087-.867 1.932-1.858 1.932l-12.019-.12z" fill-rule="nonzero"/><path d="M85.244 23.008h14.868v3.743H85.244c-.991 0-1.859.845-1.859 1.932v12.195c0 1.086.868 1.931 1.859 1.931h14.868v3.743H85.244c-3.098 0-5.7-2.535-5.7-5.674V28.683c0-3.14 2.479-5.675 5.7-5.675z"/><path d="M36.799 27.234l4.336 9.056h-8.797l4.46-9.056zm-6.32 12.678h12.515l2.85 6.52h4.212L38.905 23.008h-4.337l-11.15 23.424h4.212l2.85-6.52zm37.047 18.352h5.08c1.487 0 2.726-1.207 2.726-2.656v-1.69c0-1.45-1.24-2.657-2.726-2.657h-7.31V62.37h2.23v-4.105zm0-2.053v-2.656h4.584c.496 0 .868.362.868.845v.846c0 .482-.372.845-.868.845h-4.584v.12z" fill-rule="nonzero"/><path d="M53.525 51.382h9.665v2.173h-7.435v8.935h-2.23zm25.4 11.108h2.354a5089.708 5089.708 0 0 0 6.567-10.987h-2.478l-3.345 5.916-3.594-5.916h-2.478l4.709 7.968c-.248.363-1.24 2.294-1.735 3.019zm10.16-11.108V62.49h2.106v-8.935h6.69v8.934h2.231V51.383z"/></g><path d="M130.744 61.885c.235.126.235.376 0 .502l-.94.5c-.234.126-.704.126-.939 0l-12.915-6.89c-.235-.126-.47-.502-.47-.753v-4.51c0-.251.235-.377.353-.251l14.911 11.402z" fill="#4F4949"/><path d="M6.852 15.147c-.235.125-.47.5-.587.751L.042 50.107c0 .25.118.626.353.877l2.7 2.13c.235.125.47.125.704-.125L30.687.36c.117-.251 0-.376-.235-.251l-23.6 15.037z" transform="translate(120.017)" fill="url(#a)"/><path d="M.47 5.216c-.235.125-.353.501-.353.877v23.181c0 .251.235.627.353.878l1.878 1.378c.235.125.47.125.47-.25L7.514.328c0-.25-.117-.376-.352-.25L.47 5.215z" transform="translate(115.48 17.449)" fill="url(#b)"/><path d="M.704 32.955c-.117.25-.117.627.118.752l2.818 2.13a.945.945 0 0 0 .822 0L23.6 18.545c.235-.25.352-.626.235-.877L19.138.376c-.117-.25-.235-.25-.352 0L.704 32.956z" transform="translate(124.873 21.412)" fill="url(#c)"/><path d="M17.025.329c-.118-.25-.352-.376-.587-.125L.235 13.61c-.235.126-.235.502 0 .627l1.878 1.503c.235.126.587.251.822.126L17.377 9.35c.235-.125.352-.501.235-.752L17.025.33z" transform="translate(130.744 45.016)" fill="url(#d)"/></g></svg>