<svg width="218" height="42" viewBox="0 0 218 42" fill="none" xmlns="http://www.w3.org/2000/svg">
<path fill-rule="evenodd" clip-rule="evenodd" d="M47.1047 15.5973C46.9698 17.5976 45.9088 19.3921 44.2795 20.376C47.1153 21.8171 48.7001 25.1166 48.1479 28.4299C47.4524 33.162 44.4751 36.0292 38.3683 36.0292H27.1654V6.63428H38.2054C43.4646 6.63428 47.2568 9.99103 47.1047 15.5973ZM34.1414 18.1964H38.1619C39.5062 18.1964 40.5959 17.0275 40.5959 15.5856C40.5959 14.1437 39.5062 12.9748 38.1619 12.9748H34.1414V18.1964ZM34.1414 29.5721H38.1619C39.2224 29.6724 40.2449 29.1221 40.804 28.1503C41.3631 27.1785 41.3631 25.9515 40.804 24.9797C40.2449 24.0079 39.2224 23.4577 38.1619 23.5579H34.1414V29.5721Z" fill="white"/>
<path fill-rule="evenodd" clip-rule="evenodd" d="M51.4077 26.5184V16.4947C51.4077 9.73457 57.0581 6.41278 62.7411 6.41278C68.4241 6.41278 74.118 9.74623 74.118 16.4947V26.5184C74.118 33.2435 68.4676 36.6119 62.7846 36.6119C57.1016 36.6119 51.4077 33.2435 51.4077 26.5184ZM58.3294 16.4947V26.5183C58.3294 28.6746 60.5787 29.7119 62.7846 29.7119C64.9904 29.7119 67.1962 28.6396 67.1962 26.5183V16.4947C67.1962 14.1636 64.9143 13.1729 62.665 13.1729C60.4157 13.1729 58.3294 14.3151 58.3294 16.4947Z" fill="white"/>
<path fill-rule="evenodd" clip-rule="evenodd" d="M127.927 26.1804C127.927 32.0081 124.33 36.274 118.256 36.274H106.999V6.87903H113.964V16.891H118.061C125.493 16.891 127.927 20.5858 127.927 26.1804ZM114.616 29.3157H118.441C119.232 29.4052 120.018 29.1005 120.574 28.489C121.129 27.8775 121.392 27.0267 121.288 26.1804C121.337 25.3731 121.046 24.5848 120.494 24.0334C119.942 23.4821 119.188 23.2262 118.441 23.3365H114.616V29.3157Z" fill="white"/>
<path fill-rule="evenodd" clip-rule="evenodd" d="M137.446 6.87903V36.0642H130.513V6.87903H137.446Z" fill="white"/>
<path d="M22.5038 14.2919L15.6364 18.0332V16.6229C15.6364 14.2919 13.3545 13.3012 11.1052 13.3012C8.85591 13.3012 6.75874 14.4667 6.75874 16.6229V26.6699C6.75874 28.8262 9.00803 29.8635 11.2139 29.8635C13.4197 29.8635 15.6255 28.7912 15.6255 26.6699V25.5044L22.7102 21.6464V26.5184C22.7102 33.2435 17.0598 36.612 11.366 36.612C5.67213 36.612 0 33.2435 0 26.5184V16.4947C0 9.7346 5.65039 6.41281 11.3443 6.41281C16.3753 6.3895 21.4063 9.02362 22.5038 14.2919Z" fill="white"/>
<path fill-rule="evenodd" clip-rule="evenodd" d="M102.848 36.0642H76.063V29.3157H78.9534C80.6485 24.4981 81.8872 17.0192 82.6696 6.87903H100.305V29.3157H102.848V36.0642ZM94.1551 29.7818V12.5901H88.0158C87.3783 18.9462 86.5633 24.6768 85.5709 29.7818H94.1551Z" fill="white"/>
<path d="M162.754 16.9628L182.132 6.38628C183.758 5.53142 185.752 6.16044 186.628 7.80494C187.461 9.47319 186.848 11.5188 185.246 12.4185L165.868 22.9835C164.245 23.8402 162.252 23.2166 161.372 21.5764C160.539 19.9081 161.152 17.8625 162.754 16.9628Z" fill="#DFDFDE"/>
<path d="M188.705 2.20572L191.199 0.932817C192.802 0.140004 194.769 0.723371 195.633 2.24851C196.455 3.79567 195.85 5.6928 194.27 6.52719L191.82 7.82149C190.216 8.61431 188.25 8.03094 187.385 6.5058C186.542 4.9646 187.128 3.05558 188.705 2.20572Z" fill="#DB3832"/>
<path d="M177.767 24.5082L197.133 13.9806C198.758 13.1297 200.75 13.7558 201.626 15.3927C202.46 17.0502 201.853 19.0854 200.256 19.9849L180.901 30.5813C179.279 31.4341 177.288 30.8133 176.408 29.1807C175.981 28.377 175.885 27.4329 176.14 26.5564C176.395 25.6799 176.98 24.943 177.767 24.5082Z" fill="#F1CE48"/>
<path d="M160.64 31.2975L168.39 26.9909C169.93 26.166 171.818 26.773 172.648 28.3596C173.437 29.9692 172.856 31.9429 171.339 32.8109L163.61 37.1065C162.071 37.9313 160.183 37.3244 159.352 35.7377C158.567 34.1366 159.137 32.1728 160.64 31.2975Z" fill="#DFDFDE"/>
<path d="M200.827 8.30378L212.931 3.0644C214.624 2.35834 216.7 2.87787 217.613 4.23611C218.481 5.61397 217.842 7.30349 216.173 8.04658L204.069 13.286C202.376 13.992 200.3 13.4725 199.387 12.1142C198.519 10.7364 199.158 9.04687 200.827 8.30378Z" fill="#00AAD3"/>
<path d="M176.742 35.3976L196.13 24.8335C197.756 23.9797 199.751 24.608 200.628 26.2505C201.462 27.9168 200.848 29.96 199.245 30.8586L179.88 41.4342C178.253 42.288 176.259 41.6597 175.381 40.0172C174.537 38.3541 175.141 36.3045 176.742 35.3976Z" fill="#DFDFDE"/>
<path d="M198.858 22.0969L205.845 18.3398C207.567 17.4473 209.678 18.104 210.606 19.821C211.489 21.5627 210.839 23.6985 209.142 24.6378L202.155 28.395C200.433 29.2875 198.322 28.6308 197.394 26.9138C196.511 25.172 197.161 23.0363 198.858 22.0969Z" fill="#97BF54"/>
</svg>
